<svg width="71" height="55" viewBox="0 0 71 55" fill="none" xmlns="http://www.w3.org/2000/svg">
<path d="M65.5316 49.2281C62.9224 51.8948 59.5923 53.7431 55.9489 54.5469C52.3055 55.3507 48.5067 55.0751 45.0176 53.7538L44.2125 53.4258C43.7239 53.1577 43.3004 52.7851 42.9721 52.3347C42.3828 51.5501 42.129 50.5637 42.2666 49.5921C42.4041 48.6206 42.9217 47.7433 43.7056 47.1531C44.0932 46.868 44.5344 46.6641 45.0026 46.5534C45.4709 46.4428 45.9567 46.4277 46.4309 46.5091C46.9442 46.7711 47.4764 46.9944 48.0231 47.1769C49.8745 47.8039 51.8513 47.9678 53.7807 47.6541C55.71 47.3404 57.5331 46.5587 59.0904 45.3775C60.6478 44.1963 61.8919 42.6515 62.7139 40.8783C63.536 39.1051 63.9109 37.1574 63.806 35.2058C63.7011 33.2541 63.1194 31.3579 62.112 29.6831C61.1045 28.0082 59.7019 26.6057 58.0269 25.5982C56.3519 24.5908 54.4555 24.0091 52.5036 23.904C50.5518 23.799 48.6039 24.1738 46.8304 24.9957C46.568 25.1149 46.3116 25.2461 46.0552 25.3892C45.9485 25.4311 45.8389 25.465 45.7272 25.4906C45.6636 25.5701 45.598 25.6416 45.5304 25.7052C45.1881 26.0687 44.7771 26.3607 44.3212 26.5643C43.8652 26.7679 43.3734 26.879 42.8743 26.8912C42.3751 26.9034 41.8785 26.8164 41.4131 26.6354C40.9478 26.4543 40.523 26.1828 40.1634 25.8364C39.8117 25.4926 39.5329 25.0815 39.3433 24.6277C39.1538 24.174 39.0575 23.6867 39.0601 23.1949C39.2375 22.6292 39.3731 22.0513 39.4656 21.4657C39.5678 20.8228 39.6196 20.1729 39.6207 19.5219C39.6105 16.3816 38.3901 13.366 36.2133 11.1022C34.0366 8.83847 31.0709 7.5007 27.9331 7.36709C24.7952 7.23348 21.7266 8.31431 19.3652 10.3848C17.0039 12.4554 15.5315 15.3563 15.2543 18.4844C12.6131 19.032 10.1188 20.1358 7.93725 21.7221C7.3497 16.5652 8.83503 11.386 12.0665 7.32408C15.298 3.26213 20.0109 0.6501 25.1684 0.0626067C30.326 -0.524886 35.5057 0.960282 39.5681 4.19139C43.6305 7.4225 46.2429 12.1349 46.8304 17.2918C50.8928 16.1982 55.2021 16.4701 59.0947 18.0657C62.9874 19.6612 66.2475 22.492 68.3732 26.1221C70.4989 29.7522 71.3723 33.9803 70.8588 38.1554C70.3453 42.3305 68.4735 46.2211 65.5316 49.2281Z" fill="#22242A"/>
<path d="M38.3624 38.531V51.1898C38.197 52.1379 37.6684 52.9841 36.8889 53.5486C36.1094 54.1131 35.1405 54.3514 34.188 54.2129C33.5848 54.1118 33.017 53.8598 32.5374 53.4804C32.0577 53.1009 31.6819 52.6062 31.4449 52.0425C31.3085 51.7205 31.2162 51.3815 31.1706 51.0348V37.2669C31.1737 34.4015 30.1449 31.6308 28.2724 29.4617C27.9643 29.1051 27.6358 28.7666 27.2884 28.4481C25.0845 26.4242 22.2003 25.3025 19.208 25.3057C17.5395 25.3016 15.8886 25.6477 14.3622 26.3214C12.8358 26.9952 11.4677 27.9817 10.3464 29.2172C8.33577 31.416 7.22103 34.2876 7.22162 37.2669V51.1779C7.10069 52.0448 6.66612 52.8373 6.00015 53.4054C5.33419 53.9735 4.48304 54.2778 3.60781 54.2606C2.73959 54.2692 1.89789 53.9617 1.23958 53.3957C0.581281 52.8296 0.1513 52.0435 0.0297852 51.1839V37.2669C0.0354804 33.5193 1.13895 29.8555 3.20388 26.7279C5.26882 23.6004 8.20477 21.1461 11.6491 19.6683C15.0934 18.1906 18.8952 17.754 22.5849 18.4125C26.2747 19.071 29.6906 20.7958 32.4109 23.3738C32.7161 23.7387 33.0448 24.0833 33.3949 24.4053C35.9527 27.2194 37.6136 30.7319 38.1656 34.4942C38.2491 35.0905 38.3087 35.6868 38.3385 36.3188C38.3385 36.617 38.3385 36.9151 38.3385 37.2192C38.3385 37.5233 38.3385 37.8572 38.3385 38.1673C38.3445 38.2925 38.3564 38.4117 38.3624 38.531Z" fill="#FB4B00"/>
</svg>
