<svg width="24" height="24" viewBox="0 0 24 24" fill="none" xmlns="http://www.w3.org/2000/svg">
<path d="M19.002 0H4.99796C2.19066 0 0 2.2069 0 4.99797V19.002C0 21.8093 2.20689 24 4.99796 24H19.002C21.8093 24 23.9999 21.7931 23.9999 19.002V4.99797C24.0161 2.2069 21.8093 0 19.002 0ZM8.0162 19.002H5.01418V8H8.0162V19.002ZM6.50708 6.70183C5.501 6.70183 4.70587 5.90669 4.70587 4.90061C4.70587 3.89452 5.501 3.09939 6.50708 3.09939C7.51316 3.09939 8.21092 3.99189 8.21092 4.99797C8.21092 6.00406 7.51316 6.70183 6.50708 6.70183ZM20.008 19.002H17.006V13.4037C17.006 9.99594 12.9979 10.3043 12.9979 13.4037V19.002H9.99591V8H12.9979V9.80122C14.3935 7.20487 19.9918 6.99391 19.9918 12.3002V19.002H20.008Z" fill="#D84100"/>
</svg>
