<svg width="100" height="32" viewBox="0 0 100 32" fill="none" xmlns="http://www.w3.org/2000/svg">
<g clip-path="url(#clip0_176_1054)">
<path d="M97.2426 18.995C96.3907 19.8655 95.3037 20.4688 94.1143 20.7311C92.925 20.9935 91.685 20.9035 90.546 20.4722L90.2824 20.365C90.1235 20.2763 89.9853 20.1549 89.8769 20.0087C89.7816 19.8819 89.7122 19.7375 89.6727 19.5839C89.6332 19.4302 89.6243 19.2702 89.6467 19.1132C89.669 18.9561 89.722 18.8049 89.8028 18.6684C89.8835 18.5318 89.9904 18.4125 90.1173 18.3172C90.2445 18.2245 90.3889 18.158 90.5421 18.1217C90.6952 18.0854 90.8541 18.08 91.0094 18.1058C91.1766 18.1916 91.3499 18.2652 91.5279 18.3259C92.1324 18.5294 92.7775 18.5817 93.4069 18.4782C94.0363 18.3748 94.6308 18.1187 95.1384 17.7323C95.6459 17.346 96.0511 16.8412 96.3184 16.2621C96.5858 15.683 96.7072 15.0472 96.6721 14.4103C96.6369 13.7735 96.4463 13.1549 96.1168 12.6087C95.7873 12.0626 95.329 11.6054 94.782 11.2773C94.2351 10.9492 93.616 10.7601 92.9791 10.7265C92.3421 10.693 91.7066 10.816 91.1282 11.0848C91.0442 11.1224 90.9602 11.1659 90.8762 11.2122C90.8413 11.2264 90.8055 11.238 90.769 11.247L90.7053 11.3165C90.4796 11.5512 90.1702 11.6872 89.8447 11.6948C89.5192 11.7023 89.2038 11.581 88.9674 11.357C88.8518 11.2441 88.7604 11.1088 88.6986 10.9594C88.6369 10.8101 88.6062 10.6497 88.6082 10.4881C88.6656 10.3051 88.7101 10.1183 88.7415 9.92908C88.7739 9.71919 88.7904 9.50714 88.7907 9.29476C88.7914 8.26769 88.3952 7.28008 87.6849 6.53819C86.9747 5.79629 86.0053 5.35746 84.9791 5.31335C83.953 5.26924 82.9495 5.62326 82.1782 6.30147C81.4069 6.97968 80.9275 7.92964 80.84 8.95298C79.9774 9.13183 79.1629 9.49222 78.4504 10.0102C78.2872 8.34136 78.7866 6.67526 79.8408 5.3713C80.8949 4.06734 82.4194 3.23003 84.0854 3.03997C85.7514 2.84992 87.4253 3.32237 88.7461 4.3554C90.0669 5.38844 90.9287 6.89925 91.1455 8.56196C92.4717 8.20498 93.8785 8.29388 95.1492 8.81496C96.4198 9.33605 97.484 10.2604 98.1777 11.4457C98.8715 12.631 99.1563 14.0115 98.9884 15.3746C98.8204 16.7376 98.209 18.0077 97.2484 18.9892L97.2426 18.995Z" fill="#FCFCFC"/>
<path d="M22.0623 14.7864H16.6256C16.6191 15.3659 16.7502 15.9387 17.008 16.4577C17.2267 16.9074 17.5694 17.2853 17.9957 17.5468C18.4062 17.7916 18.8761 17.9189 19.3541 17.9146C19.6652 17.9182 19.9752 17.8783 20.2752 17.7959C20.5581 17.7141 20.8275 17.5911 21.0746 17.4309C21.3247 17.2697 21.5628 17.0906 21.7871 16.8951C22.0044 16.7068 22.2853 16.4461 22.6329 16.1217C22.8045 15.9882 23.0182 15.9204 23.2354 15.9305C23.4873 15.9194 23.7343 16.0031 23.9276 16.1652C24.0176 16.2489 24.088 16.3515 24.1336 16.4657C24.1791 16.5799 24.1988 16.7028 24.1912 16.8255C24.171 17.1353 24.0712 17.4346 23.9015 17.6945C23.6693 18.0706 23.3675 18.3989 23.0123 18.6619C22.5592 18.9997 22.0532 19.26 21.5149 19.4323C20.8438 19.6406 20.1434 19.7384 19.441 19.722C17.6568 19.722 16.2694 19.2132 15.2788 18.1956C14.2882 17.1779 13.79 15.8079 13.7842 14.0855C13.7763 13.3084 13.9007 12.5356 14.1521 11.8002C14.3761 11.1288 14.7405 10.5127 15.2209 9.99281C15.7037 9.47854 16.2983 9.08214 16.9587 8.83423C17.6864 8.55754 18.4598 8.42094 19.2382 8.43162C20.2148 8.4039 21.1807 8.64111 22.0333 9.11808C22.7675 9.53541 23.3697 10.1506 23.7712 10.8936C24.1463 11.5743 24.3454 12.338 24.3505 13.1152C24.3505 13.8132 24.1506 14.2738 23.7509 14.4736C23.2201 14.708 22.6418 14.8151 22.0623 14.7864ZM16.6256 13.2108H21.6655C21.5989 12.2578 21.3411 11.5482 20.8979 11.0761C20.6712 10.841 20.3974 10.6566 20.0944 10.5348C19.7914 10.413 19.4661 10.3566 19.1398 10.3693C18.8209 10.359 18.5035 10.4179 18.2095 10.5419C17.9155 10.6659 17.6519 10.8521 17.4367 11.0877C16.9906 11.5646 16.7203 12.2723 16.6256 13.2108Z" fill="#FCFCFC"/>
<path d="M36.6662 16.3157C36.6538 16.7051 36.5475 17.0857 36.3563 17.4251C36.1144 17.8529 35.7929 18.2304 35.4091 18.5373C34.9339 18.9257 34.3895 19.2206 33.8045 19.4062C33.1009 19.6319 32.3652 19.7415 31.6264 19.7306C29.9097 19.7306 28.5687 19.2295 27.6032 18.2274C26.6377 17.2252 26.155 15.8832 26.155 14.2013C26.1338 13.1554 26.36 12.1193 26.8153 11.1774C27.2372 10.3259 27.9039 9.61981 28.7299 9.14989C29.4921 8.75873 30.3239 8.52181 31.1778 8.45273C32.0317 8.38364 32.8909 8.48374 33.706 8.74728C34.2581 8.92887 34.7753 9.20313 35.2353 9.55829C35.6166 9.85078 35.9407 10.2112 36.1912 10.6213C36.3946 10.9365 36.5097 11.3007 36.5243 11.6756C36.5265 11.8351 36.4942 11.9933 36.4298 12.1393C36.3653 12.2852 36.2701 12.4156 36.1506 12.5214C35.9079 12.7514 35.5842 12.8763 35.2498 12.8689C35.0418 12.8776 34.8372 12.8142 34.6705 12.6894C34.4726 12.5212 34.2991 12.3262 34.155 12.1101C33.8763 11.6607 33.5157 11.2677 33.092 10.9515C32.5522 10.618 31.9093 10.4929 31.2838 10.5995C30.6583 10.7062 30.0932 11.0373 29.6944 11.5308C29.1924 12.1738 28.9413 13.0514 28.9413 14.1636C28.9352 14.6533 29.0006 15.1411 29.1354 15.6119C29.2469 16.0184 29.4368 16.3992 29.6944 16.7328C29.93 17.0343 30.2337 17.2755 30.5807 17.4366C30.9393 17.5979 31.3288 17.6789 31.7219 17.6741C32.2264 17.6889 32.724 17.5549 33.1528 17.2889C33.5923 16.9835 33.9536 16.5786 34.2071 16.1072C34.3464 15.831 34.5326 15.581 34.7574 15.3686C34.9561 15.1909 35.2151 15.0957 35.4815 15.1021C35.6426 15.0993 35.8022 15.1327 35.9486 15.1999C36.095 15.267 36.2244 15.3663 36.3273 15.4902C36.5383 15.7141 36.6591 16.0081 36.6662 16.3157Z" fill="#FCFCFC"/>
<path d="M46.3085 18.1897V17.8334C46.0031 18.227 45.651 18.582 45.26 18.8906C44.9007 19.1734 44.4936 19.3892 44.0579 19.5279C43.5764 19.6737 43.0752 19.744 42.5721 19.7364C41.9446 19.7468 41.3241 19.6036 40.7647 19.3193C40.2516 19.0572 39.8229 18.6556 39.5279 18.1607C39.1803 17.5699 39.0065 16.7212 39.0065 15.6148V10.1115C38.9747 9.66278 39.1121 9.21841 39.3918 8.86603C39.5178 8.72899 39.6723 8.62118 39.8444 8.55013C40.0166 8.47908 40.2021 8.44652 40.3881 8.45473C40.578 8.44716 40.7674 8.48049 40.9433 8.55245C41.1192 8.62441 41.2775 8.73332 41.4077 8.87182C41.6892 9.22208 41.8269 9.66632 41.7929 10.1144V14.5633C41.783 15.1095 41.8374 15.6549 41.9551 16.1883C42.0377 16.5825 42.24 16.9416 42.5344 17.2165C42.8568 17.4773 43.2644 17.6094 43.6785 17.5872C44.152 17.5867 44.6139 17.4412 45.0022 17.1702C45.4056 16.905 45.7212 16.5259 45.9088 16.0811C46.0652 15.6949 46.1434 14.8327 46.1434 13.4946V10.1144C46.1087 9.66577 46.2476 9.22095 46.5315 8.87182C46.6598 8.73407 46.8162 8.62553 46.9901 8.55356C47.164 8.4816 47.3514 8.44789 47.5395 8.45473C47.7255 8.44692 47.9109 8.47966 48.083 8.55068C48.255 8.6217 48.4096 8.72931 48.5359 8.86603C48.8131 9.22041 48.9474 9.66583 48.9124 10.1144V18.1694C48.9459 18.5977 48.8166 19.0228 48.5503 19.3599C48.4301 19.4873 48.2851 19.5889 48.1242 19.6583C47.9634 19.7277 47.79 19.7635 47.6148 19.7635C47.4396 19.7635 47.2662 19.7277 47.1053 19.6583C46.9445 19.5889 46.7995 19.4873 46.6792 19.3599C46.4106 19.0315 46.278 18.6128 46.3085 18.1897Z" fill="#FCFCFC"/>
<path d="M53.092 7.16007C52.7281 7.16854 52.3741 7.04158 52.0985 6.80381C51.958 6.6772 51.8478 6.52059 51.7761 6.3456C51.7044 6.17061 51.6731 5.98172 51.6843 5.79295C51.6796 5.60971 51.715 5.42765 51.788 5.25954C51.8611 5.09142 51.97 4.94132 52.1072 4.81974C52.3725 4.5817 52.7146 4.44717 53.071 4.44079C53.4274 4.43441 53.7742 4.55659 54.0478 4.78498C54.1877 4.91104 54.2969 5.06737 54.3672 5.24205C54.4374 5.41673 54.4669 5.60515 54.4533 5.79295C54.4633 5.9795 54.4322 6.16598 54.3621 6.33916C54.292 6.51235 54.1847 6.66801 54.0478 6.79512C53.7864 7.0326 53.4451 7.1629 53.092 7.16007ZM54.4533 10.0334V18.0652C54.487 18.5214 54.345 18.9731 54.0565 19.3281C53.9295 19.4682 53.7736 19.5791 53.5996 19.6532C53.4256 19.7272 53.2376 19.7625 53.0485 19.7567C52.8607 19.7629 52.674 19.7268 52.502 19.6511C52.3301 19.5754 52.1773 19.462 52.055 19.3194C51.7788 18.962 51.6428 18.5159 51.6727 18.0652V10.1145C51.6391 9.66688 51.7756 9.22311 52.055 8.87188C52.1805 8.73448 52.3343 8.62602 52.5059 8.554C52.6774 8.48198 52.8626 8.44812 53.0485 8.45479C53.2365 8.44907 53.4235 8.48329 53.5973 8.55519C53.771 8.62709 53.9275 8.73503 54.0565 8.87188C54.3358 9.19211 54.4783 9.60916 54.4533 10.0334Z" fill="#FCFCFC"/>
<path d="M66.5836 14.3084V18.0043C66.6191 18.4767 66.4777 18.9454 66.1868 19.3193C66.0545 19.4642 65.8921 19.5784 65.7109 19.6539C65.5298 19.7295 65.3344 19.7645 65.1383 19.7567C64.9457 19.7639 64.7539 19.7285 64.5767 19.6528C64.3994 19.5772 64.241 19.4633 64.113 19.3193C63.8254 18.9439 63.6862 18.4758 63.722 18.0043V13.5756C63.73 13.0321 63.7058 12.4885 63.6495 11.9478C63.6163 11.603 63.4824 11.2756 63.2643 11.0065C63.1378 10.8734 62.9833 10.77 62.812 10.7039C62.6407 10.6378 62.4569 10.6105 62.2737 10.6241C61.3642 10.6241 60.7647 10.9341 60.4779 11.5597C60.1912 12.1853 60.0435 13.0803 60.0435 14.2476V18.013C60.078 18.4826 59.9389 18.9485 59.6524 19.3222C59.5237 19.4681 59.3642 19.5836 59.1853 19.6602C59.0065 19.7369 58.8128 19.7728 58.6184 19.7654C58.4242 19.771 58.2311 19.7342 58.0526 19.6577C57.874 19.5812 57.7142 19.4667 57.5844 19.3222C57.2916 18.9513 57.148 18.4843 57.1818 18.013V10.0535C57.1507 9.62467 57.2797 9.1995 57.5438 8.86021C57.663 8.72667 57.8103 8.62108 57.975 8.55099C58.1397 8.4809 58.3179 8.44802 58.4968 8.45471C58.6733 8.45009 58.8489 8.48162 59.0127 8.54737C59.1766 8.61312 59.3253 8.7117 59.4497 8.83704C59.5805 8.97767 59.6816 9.14331 59.7468 9.32399C59.812 9.50467 59.84 9.69667 59.8291 9.88845V10.1549C60.2518 9.62738 60.7795 9.1934 61.3787 8.88048C61.9505 8.60585 62.5779 8.46707 63.2122 8.47498C63.8385 8.45807 64.4586 8.60166 65.0138 8.89207C65.5361 9.1909 65.966 9.62784 66.2563 10.1549C66.6656 9.63272 67.1783 9.20079 67.7625 8.88628C68.3145 8.6078 68.9256 8.4667 69.5438 8.47498C70.2265 8.45568 70.903 8.60911 71.5105 8.92103C72.0466 9.20734 72.4777 9.65671 72.7415 10.2042C72.979 10.7081 73.0978 11.4998 73.0978 12.5793V18.0043C73.1347 18.4768 72.9931 18.946 72.701 19.3193C72.5659 19.459 72.4041 19.5701 72.2252 19.646C72.0463 19.7219 71.854 19.761 71.6597 19.761C71.4654 19.761 71.273 19.7219 71.0941 19.646C70.9152 19.5701 70.7535 19.459 70.6184 19.3193C70.3256 18.9484 70.182 18.4814 70.2158 18.0101V13.3236C70.224 12.8397 70.1989 12.3559 70.1405 11.8754C70.0994 11.5383 69.9558 11.2218 69.7292 10.9688C69.5946 10.8396 69.4342 10.7402 69.2584 10.6773C69.0827 10.6144 68.8957 10.5894 68.7096 10.6039C68.3374 10.6047 67.974 10.7177 67.6669 10.9283C67.338 11.1449 67.0722 11.4447 66.8965 11.7972C66.6879 12.2838 66.5836 13.1209 66.5836 14.3084Z" fill="#FCFCFC"/>
<path d="M82.8154 18.1898C82.2188 18.6653 81.5625 19.0607 80.8632 19.3657C80.1922 19.6347 79.4744 19.7676 78.7516 19.7568C78.1 19.7701 77.4549 19.625 76.8718 19.3339C76.3561 19.0723 75.9245 18.6708 75.6264 18.1753C75.3363 17.7032 75.1838 17.1595 75.1861 16.6054C75.1711 15.889 75.4301 15.1938 75.9102 14.6619C76.4402 14.0988 77.1365 13.7202 77.8972 13.5815C78.0739 13.541 78.5112 13.4483 79.2093 13.3064C79.9073 13.1644 80.5069 13.0341 81.008 12.9153C81.5091 12.7966 82.0478 12.6518 82.63 12.4809C82.6459 11.911 82.4916 11.3493 82.1868 10.8675C81.9262 10.5258 81.3855 10.3549 80.5648 10.3549C80.0182 10.3208 79.4714 10.4202 78.9718 10.6445C78.5991 10.8544 78.2837 11.1529 78.0536 11.5134C77.7987 11.9074 77.6191 12.168 77.5149 12.2926C77.4212 12.3695 77.3126 12.426 77.1959 12.4584C77.0792 12.4908 76.9569 12.4985 76.8371 12.4809C76.5409 12.4893 76.2524 12.3859 76.029 12.1912C75.9181 12.0965 75.8298 11.9781 75.7706 11.8448C75.7115 11.7115 75.683 11.5666 75.6872 11.4208C75.699 10.9017 75.8812 10.401 76.2057 9.99571C76.6338 9.47762 77.1929 9.08358 77.8248 8.85451C78.7012 8.53197 79.6314 8.38055 80.5648 8.40845C81.549 8.36667 82.5321 8.51315 83.4613 8.84003C84.1146 9.08595 84.6458 9.57765 84.9414 10.21C85.2613 10.9981 85.4094 11.8453 85.3758 12.6952C85.3758 13.3469 85.3758 13.9001 85.3758 14.3549C85.3758 14.8096 85.3758 15.3136 85.3613 15.8726C85.3655 16.4269 85.4524 16.9775 85.6191 17.5062C85.7457 17.8606 85.8331 18.2277 85.8798 18.6011C85.8749 18.7598 85.8331 18.9152 85.7577 19.055C85.6823 19.1947 85.5753 19.315 85.4453 19.4063C85.1958 19.6332 84.8702 19.7583 84.533 19.7568C84.2159 19.735 83.9198 19.5906 83.7075 19.3541C83.3627 19.0047 83.063 18.6136 82.8154 18.1898ZM82.63 14.1666C82.0495 14.3639 81.4563 14.5217 80.8545 14.6387C80.0821 14.8067 79.5443 14.9293 79.2411 15.0066C78.9211 15.0928 78.6243 15.2491 78.3722 15.4642C78.2367 15.5818 78.1298 15.7288 78.0595 15.8939C77.9893 16.059 77.9575 16.2379 77.9667 16.4171C77.9646 16.6201 78.0061 16.8211 78.0886 17.0065C78.1711 17.1919 78.2925 17.3574 78.4446 17.4917C78.7883 17.7965 79.2371 17.9554 79.6959 17.9349C80.2255 17.9393 80.7484 17.815 81.2194 17.5728C81.6513 17.3726 82.0134 17.0478 82.2592 16.6402C82.5122 16.2192 82.6377 15.527 82.6358 14.5634L82.63 14.1666Z" fill="#FCFCFC"/>
<path d="M12.2723 14.5055V18.5605C12.2204 18.8662 12.0504 19.1393 11.7989 19.3208C11.5475 19.5023 11.2348 19.5778 10.9283 19.5308C10.7368 19.4972 10.5568 19.4159 10.4049 19.2944C10.2531 19.1729 10.1342 19.0152 10.0594 18.8357C10.015 18.7331 9.98482 18.6249 9.96959 18.5142V14.1C9.97219 13.1831 9.64297 12.2963 9.04272 11.6032C8.94517 11.4888 8.8407 11.3805 8.72991 11.2788C8.02479 10.6305 7.10126 10.2716 6.14337 10.2738C5.88759 10.2737 5.63243 10.2989 5.38161 10.3491C4.51702 10.5258 3.73994 10.9956 3.18162 11.679C2.6233 12.3624 2.31795 13.2175 2.31716 14.1V18.5518C2.27816 18.8291 2.13855 19.0824 1.92492 19.2635C1.71128 19.4445 1.43853 19.5407 1.15858 19.5337C0.87863 19.5407 0.60588 19.4445 0.392245 19.2635C0.17861 19.0824 0.0390042 18.8291 0 18.5518L0 14.1C-1.81206e-07 12.4727 0.646238 10.912 1.79663 9.76108C2.94703 8.61015 4.5074 7.96317 6.13469 7.9624C6.49392 7.9623 6.85249 7.99331 7.20637 8.05509C8.39481 8.26512 9.49441 8.82248 10.3664 9.65683C10.4669 9.77228 10.5743 9.88158 10.6879 9.98413C11.5037 10.8861 12.033 12.0102 12.2085 13.2137C12.2371 13.4057 12.2555 13.599 12.2636 13.793C12.2636 13.8885 12.2636 13.9841 12.2636 14.0826C12.2636 14.1811 12.2636 14.2854 12.2636 14.3723C12.2665 14.4273 12.2694 14.4649 12.2723 14.5055Z" fill="#FB4B00"/>
<path d="M29.5438 0.185373C29.5394 0.123661 29.5394 0.0617123 29.5438 0V0.370746C29.5394 0.309033 29.5394 0.247085 29.5438 0.185373Z" fill="#FB4B00"/>
<path d="M33.0717 0.185373C33.0717 0.249095 33.0717 0.30992 33.0717 0.370746V0C33.0688 0.0608255 33.0717 0.121651 33.0717 0.185373Z" fill="#FB4B00"/>
<path d="M57.761 29.7726C57.7538 30.0247 57.6852 30.2713 57.5612 30.4909C57.4065 30.7714 57.1978 31.0185 56.9471 31.218C56.6377 31.4689 56.2826 31.6578 55.9015 31.7741C55.4471 31.9215 54.9715 31.9929 54.4939 31.9855C53.3816 31.9855 52.5127 31.6621 51.887 31.0152C51.5662 30.6643 51.3183 30.2532 51.1577 29.8057C50.9971 29.3582 50.927 28.8832 50.9515 28.4084C50.9374 27.731 51.0843 27.0599 51.3802 26.4504C51.6521 25.8993 52.0829 25.4423 52.617 25.1383C53.2096 24.8157 53.8772 24.6558 54.5518 24.6749C54.9879 24.6694 55.4217 24.738 55.8349 24.8776C56.191 24.9975 56.5248 25.1757 56.8226 25.4048C57.069 25.5934 57.2782 25.8261 57.4395 26.0912C57.571 26.2957 57.645 26.5318 57.6539 26.7748C57.6558 26.8776 57.6353 26.9796 57.5938 27.0736C57.5523 27.1677 57.4907 27.2515 57.4135 27.3193C57.2577 27.4681 57.0495 27.5493 56.8342 27.5453C56.7011 27.5491 56.5706 27.5083 56.4634 27.4294C56.3353 27.3223 56.2232 27.1974 56.1303 27.0587C55.9503 26.7663 55.7163 26.5107 55.441 26.3056C55.0918 26.0915 54.6768 26.0114 54.2731 26.0801C53.8693 26.1488 53.5042 26.3617 53.2455 26.6792C52.8992 27.178 52.7318 27.7792 52.7705 28.3852C52.7668 28.7005 52.8088 29.0146 52.895 29.3179C52.9676 29.5805 53.0906 29.8264 53.2571 30.042C53.4109 30.2378 53.6096 30.3938 53.8364 30.4967C54.067 30.6026 54.3183 30.656 54.5721 30.6531C54.8991 30.6625 55.2216 30.5748 55.4989 30.4012C55.7836 30.2055 56.017 29.9442 56.1796 29.6394C56.2702 29.4618 56.3907 29.3011 56.5358 29.1644C56.6635 29.0494 56.8305 28.9882 57.0022 28.9935C57.1063 28.9909 57.2097 29.012 57.3045 29.0552C57.3993 29.0983 57.4831 29.1624 57.5496 29.2426C57.6824 29.3875 57.7576 29.5761 57.761 29.7726Z" fill="#FCFCFC"/>
<path d="M58.992 30.9052V23.1079C58.9745 22.8196 59.0597 22.5343 59.2324 22.3027C59.3135 22.2117 59.4137 22.1397 59.5259 22.0921C59.6381 22.0446 59.7595 22.0225 59.8813 22.0276C60.0036 22.0248 60.1251 22.0478 60.2379 22.0952C60.3507 22.1426 60.4523 22.2134 60.5358 22.3027C60.7177 22.5356 60.8065 22.8277 60.7849 23.1224V30.9052C60.8081 31.201 60.7168 31.4944 60.5301 31.7249C60.4486 31.8179 60.3479 31.8921 60.2348 31.9421C60.1217 31.9921 59.9991 32.0169 59.8755 32.0145C59.7538 32.0178 59.633 31.9934 59.5221 31.9432C59.4113 31.893 59.3132 31.8184 59.2353 31.7249C59.0555 31.4912 58.9688 31.1991 58.992 30.9052Z" fill="#FCFCFC"/>
<path d="M69.3787 28.3447C69.3836 28.8489 69.2992 29.35 69.1296 29.8248C68.9725 30.2583 68.7246 30.6533 68.4026 30.9834C68.0831 31.3109 67.6969 31.5658 67.2701 31.7307C66.7977 31.9106 66.2954 31.999 65.79 31.9913C65.2882 31.9982 64.7897 31.9087 64.3215 31.7278C63.8964 31.5573 63.5116 31.2998 63.1919 30.9718C62.8707 30.6416 62.6238 30.2466 62.4678 29.8132C62.1336 28.8508 62.1336 27.8039 62.4678 26.8415C62.6208 26.408 62.8659 26.0127 63.1861 25.6829C63.5053 25.3564 63.8917 25.1033 64.3186 24.9414C65.2704 24.592 66.3154 24.592 67.2672 24.9414C67.6971 25.1061 68.0862 25.362 68.4077 25.6915C68.7292 26.021 68.9755 26.4163 69.1296 26.8501C69.3013 27.3294 69.3856 27.8356 69.3787 28.3447ZM67.5742 28.3447C67.6073 27.7408 67.437 27.1432 67.0905 26.6474C66.938 26.4492 66.7406 26.2901 66.5144 26.1833C66.2883 26.0766 66.04 26.0251 65.79 26.0333C65.4577 26.0318 65.1329 26.133 64.8603 26.323C64.578 26.5236 64.3622 26.804 64.2404 27.1282C63.9527 27.9286 63.9527 28.8042 64.2404 29.6047C64.3631 29.9275 64.5763 30.2081 64.8545 30.4128C65.1291 30.6056 65.4574 30.7069 65.7929 30.7024C66.0429 30.7106 66.2912 30.6592 66.5173 30.5524C66.7435 30.4457 66.9409 30.2866 67.0934 30.0884C67.4494 29.5797 67.6192 28.9639 67.5742 28.3447Z" fill="#FCFCFC"/>
<path d="M75.4641 30.992V30.7603C75.2659 31.014 75.0384 31.2434 74.7864 31.4439C74.5526 31.626 74.289 31.7662 74.0072 31.8581C73.6955 31.9519 73.3711 31.9969 73.0456 31.9913C72.6433 31.9966 72.2457 31.9042 71.887 31.7219C71.5556 31.5543 71.2784 31.2962 71.0876 30.9775C70.8342 30.4678 70.7184 29.9007 70.7516 29.3323V25.7784C70.7282 25.488 70.8151 25.1995 70.9949 24.9703C71.0769 24.8818 71.1771 24.8122 71.2886 24.7662C71.4001 24.7202 71.5203 24.6989 71.6408 24.7038C71.7632 24.6999 71.885 24.7218 71.9984 24.7682C72.1117 24.8147 72.2139 24.8845 72.2983 24.9732C72.4811 25.2 72.5702 25.488 72.5474 25.7784V28.6546C72.5402 29.0081 72.5762 29.3612 72.6546 29.706C72.7085 29.9607 72.8401 30.1924 73.0311 30.3693C73.2396 30.5391 73.5041 30.6249 73.7726 30.6097C74.083 30.611 74.3863 30.517 74.6415 30.3403C74.9 30.1682 75.1016 29.9232 75.2208 29.6365C75.3541 29.089 75.4048 28.5248 75.3715 27.9623V25.7784C75.3495 25.4877 75.4397 25.1995 75.6234 24.9732C75.7956 24.8013 76.0289 24.7047 76.2722 24.7047C76.5155 24.7047 76.7489 24.8013 76.9211 24.9732C77.1009 25.2024 77.1877 25.4909 77.1644 25.7813V30.9949C77.1854 31.2721 77.1017 31.547 76.9297 31.7654C76.852 31.848 76.7582 31.9138 76.6541 31.9588C76.55 32.0037 76.4378 32.0269 76.3244 32.0269C76.211 32.0269 76.0988 32.0037 75.9947 31.9588C75.8906 31.9138 75.7968 31.848 75.719 31.7654C75.5359 31.551 75.4444 31.2733 75.4641 30.992Z" fill="#FCFCFC"/>
<path d="M83.8668 30.9718V30.7951C83.6529 31.0448 83.4131 31.271 83.1513 31.47C82.9202 31.6413 82.663 31.7743 82.3896 31.8639C82.0984 31.9565 81.7943 32.0025 81.4888 32C81.0729 31.9984 80.6631 31.8992 80.2925 31.7104C79.9217 31.5248 79.597 31.2586 79.3425 30.9312C79.0647 30.5764 78.8581 30.1712 78.7342 29.7379C78.5917 29.2576 78.5214 28.7588 78.5257 28.2578C78.5257 27.134 78.8009 26.2564 79.3483 25.6307C79.6161 25.3216 79.9496 25.0764 80.3245 24.913C80.6994 24.7496 81.1061 24.6722 81.5148 24.6865C81.9672 24.6725 82.4166 24.7648 82.8269 24.9559C83.221 25.1641 83.5735 25.4429 83.8668 25.7785V23.134C83.8456 22.8392 83.923 22.5458 84.0869 22.2998C84.1609 22.2048 84.2566 22.1289 84.3659 22.0785C84.4753 22.0281 84.5951 22.0047 84.7154 22.0102C84.8331 22.0028 84.951 22.0225 85.0599 22.0677C85.1688 22.1129 85.266 22.1824 85.344 22.2709C85.507 22.4921 85.586 22.7642 85.567 23.0384V30.966C85.5872 31.2435 85.5025 31.5185 85.3295 31.7365C85.2517 31.821 85.1565 31.8878 85.0506 31.9323C84.9446 31.9768 84.8303 31.9979 84.7154 31.9942C84.6007 31.997 84.4868 31.9745 84.3817 31.9285C84.2766 31.8825 84.1829 31.8139 84.1072 31.7278C83.9364 31.5142 83.8507 31.2448 83.8668 30.9718ZM80.3302 28.3302C80.3184 28.7566 80.3954 29.1807 80.5561 29.5757C80.6841 29.8886 80.9005 30.1573 81.1789 30.3491C81.4356 30.5215 81.7385 30.6124 82.0478 30.6097C82.3552 30.6135 82.657 30.528 82.9167 30.3635C83.1954 30.1776 83.413 29.9136 83.5424 29.6047C83.7111 29.2016 83.7911 28.767 83.777 28.3302C83.7877 27.9069 83.7077 27.4862 83.5424 27.0963C83.4093 26.7793 83.1907 26.5055 82.9109 26.3056C82.6562 26.1275 82.3528 26.0325 82.042 26.0333C81.729 26.0354 81.4247 26.1368 81.1731 26.323C80.8993 26.5282 80.6902 26.8077 80.5706 27.1282C80.4134 27.5095 80.3318 27.9178 80.3302 28.3302Z" fill="#FCFCFC"/>
</g>
<defs>
<clipPath id="clip0_176_1054">
<rect width="99.0268" height="32" fill="white"/>
</clipPath>
</defs>
</svg>
