<svg width="1512" height="1029" viewBox="0 0 1512 1029" fill="none" xmlns="http://www.w3.org/2000/svg">
<g opacity="0.35">
<path d="M242.166 848.883C242.166 851.104 240.357 852.945 238.104 852.945C235.851 852.945 234.042 851.136 234.042 848.883C234.042 846.63 235.851 844.821 238.104 844.821C240.357 844.821 242.166 846.63 242.166 848.883Z" fill="#FCFCFC"/>
<path d="M34.9392 882.804L-26.848 880.202C-26.848 880.202 -27.1019 880.139 -27.1654 880.044C-27.2288 879.948 -27.2606 879.821 -27.1971 879.694L16.1524 754.89C16.1524 754.89 16.2158 754.699 16.311 754.636C16.438 754.541 16.5649 754.541 16.6918 754.572C16.8505 754.636 16.9457 754.795 16.9457 754.953L35.3518 882.36C35.3518 882.36 35.3518 882.582 35.2566 882.677C35.1931 882.773 35.0662 882.804 34.971 882.804H34.9392ZM-26.2768 879.441L34.4949 882.011L16.3745 756.635L-26.2768 879.441Z" fill="#FCFCFC"/>
<path d="M34.9394 882.804C34.9394 882.804 34.749 882.773 34.6855 882.709C34.5268 882.582 34.4951 882.329 34.6538 882.17L163.433 726.68C163.433 726.68 163.687 726.426 163.877 726.489C164.067 726.521 164.194 726.68 164.194 726.87C164.194 726.965 164.194 727.06 164.131 727.124L138.997 777.96C138.997 777.96 138.965 778.023 138.934 778.055L35.2567 882.709C35.2567 882.709 35.0663 882.836 34.9711 882.836L34.9394 882.804ZM161.909 729.758L40.9372 875.792L138.267 777.515L161.878 729.758H161.909Z" fill="#FCFCFC"/>
<path d="M34.9393 882.805C34.9393 882.805 34.8759 882.805 34.8441 882.805C34.6855 882.773 34.5903 882.647 34.5585 882.488L16.1207 755.018C16.1207 754.796 16.2159 754.605 16.4381 754.573L163.687 726.49C163.687 726.49 163.909 726.49 164.004 726.585C164.099 726.649 164.163 726.776 164.163 726.902C164.163 726.998 164.131 727.093 164.067 727.156L35.225 882.71C35.225 882.71 35.0345 882.869 34.9076 882.869L34.9393 882.805ZM16.9458 755.24L35.1932 881.473L162.766 727.442L16.9458 755.24Z" fill="#FCFCFC"/>
<path d="M276.947 719.92C276.947 719.92 276.725 719.856 276.63 719.761C276.535 719.666 276.535 719.507 276.567 719.38L320.043 595.94C320.043 595.94 320.17 595.686 320.297 595.655C320.455 595.591 320.614 595.655 320.741 595.75L419.087 702.467C419.087 702.467 419.214 702.721 419.182 702.879C419.118 703.006 418.991 703.133 418.864 703.133L277.011 719.92H276.979H276.947ZM320.614 596.797L277.519 719.063L417.976 702.435L320.582 596.797H320.614Z" fill="#FCFCFC"/>
<path d="M418.801 703.133C418.801 703.133 418.706 703.133 418.674 703.133C418.484 703.07 418.388 702.911 418.42 702.721L440.571 511.341C440.571 511.341 440.634 511.055 440.761 510.96C440.952 510.865 441.174 510.897 441.301 511.087C441.301 511.087 441.301 511.119 441.332 511.151L482.111 599.685C482.111 599.685 482.143 599.939 482.111 600.066L419.15 702.975C419.15 702.975 418.96 703.165 418.801 703.165V703.133ZM441.205 512.737L419.404 700.976L481.286 599.78L441.174 512.705L441.205 512.737Z" fill="#FCFCFC"/>
<path d="M418.801 703.134C418.801 703.134 418.579 703.102 418.515 703.007L320.17 596.29C320.17 596.29 320.043 596.1 320.074 595.973C320.074 595.846 320.138 595.751 320.233 595.687L440.761 510.961C440.761 510.961 440.951 510.866 441.047 510.897C441.142 510.897 441.237 510.993 441.301 511.056C441.364 511.12 441.396 511.247 441.364 511.342L419.213 702.785C419.213 702.785 419.086 703.071 418.928 703.102C418.896 703.102 418.832 703.102 418.801 703.102V703.134ZM321.026 596.1L418.483 701.833L440.444 512.103L321.026 596.068V596.1Z" fill="#FCFCFC"/>
<path d="M591.945 544.185C591.945 544.185 591.723 544.153 591.659 544.058C591.564 543.963 591.532 543.836 591.564 543.709L626.408 376.668C626.408 376.668 626.408 376.541 626.44 376.477C626.567 376.224 626.948 376.192 627.107 376.414V376.477L739.733 523.336C739.733 523.336 739.828 523.59 739.796 523.717C739.733 523.844 739.638 523.939 739.479 523.971L592.008 544.185H591.945ZM627.011 377.62L592.452 543.328L738.685 523.273L627.011 377.588V377.62Z" fill="#FCFCFC"/>
<path d="M739.415 523.971H739.383C739.225 523.971 739.066 523.844 739.034 523.685L695.558 366.894C695.558 366.894 695.558 366.672 695.622 366.576C695.685 366.481 695.78 366.418 695.875 366.386C695.875 366.386 696.098 366.386 696.193 366.481L780.956 435.309C780.956 435.309 781.146 435.627 781.051 435.785L739.764 523.78C739.764 523.78 739.542 524.002 739.415 524.002V523.971ZM696.669 367.846L739.51 522.416L780.226 435.69L696.669 367.846Z" fill="#FCFCFC"/>
<path d="M739.415 523.97C739.415 523.97 739.193 523.907 739.098 523.812L626.472 376.889C626.472 376.889 626.377 376.636 626.408 376.509C626.472 376.382 626.567 376.286 626.726 376.255L695.875 366.354C696.066 366.354 696.288 366.481 696.32 366.671L739.764 523.431C739.828 523.621 739.733 523.812 739.574 523.907C739.51 523.907 739.447 523.939 739.383 523.939L739.415 523.97ZM627.519 376.953L738.495 521.717L695.653 367.211L627.519 376.953Z" fill="#FCFCFC"/>
<path d="M780.702 436.008C780.702 436.008 780.48 435.976 780.416 435.881C780.321 435.786 780.289 435.659 780.321 435.532L816.721 285.753C816.784 285.531 816.975 285.404 817.197 285.468C817.324 285.468 817.451 285.595 817.482 285.722L891.075 420.046C891.075 420.046 891.138 420.3 891.075 420.427C891.011 420.554 890.916 420.617 890.789 420.649L780.765 436.039H780.702V436.008ZM817.26 286.927L781.241 435.151L890.091 419.919L817.26 286.927Z" fill="#FCFCFC"/>
<path d="M890.726 420.618C890.726 420.618 890.535 420.618 890.472 420.523C890.313 420.396 890.281 420.205 890.377 420.047L971.427 262.621C971.427 262.621 971.522 262.43 971.617 262.399C971.776 262.303 971.935 262.335 972.061 262.462L1027.98 311.965C1027.98 311.965 1028.1 312.155 1028.1 312.282C1028.1 312.409 1028.04 312.505 1027.95 312.568L890.948 420.554C890.948 420.554 890.789 420.65 890.694 420.65L890.726 420.618ZM971.935 263.351L891.932 418.777L1027.12 312.219L971.966 263.351H971.935Z" fill="#FCFCFC"/>
<path d="M890.726 420.617C890.726 420.617 890.44 420.554 890.377 420.427L816.784 286.039C816.784 286.039 816.721 285.785 816.784 285.658C816.847 285.531 816.943 285.468 817.07 285.436L971.744 262.303C971.744 262.303 971.966 262.303 972.03 262.366C972.125 262.43 972.157 262.525 972.188 262.62C972.188 262.715 972.188 262.811 972.157 262.874L891.075 420.363C891.075 420.363 890.884 420.586 890.726 420.586V420.617ZM817.736 286.134L890.694 419.348L971.078 263.191L817.704 286.102L817.736 286.134Z" fill="#FCFCFC"/>
<path d="M1027.69 312.63C1027.5 312.63 1027.31 312.472 1027.31 312.281L1013.06 165.105C1013.06 165.105 1013.06 164.819 1013.19 164.724C1013.35 164.597 1013.57 164.597 1013.73 164.724L1013.79 164.788L1110.65 305.554C1110.65 305.554 1110.74 305.808 1110.65 305.935C1110.58 306.062 1110.46 306.157 1110.33 306.157L1027.69 312.599V312.63ZM1013.98 166.533L1028.04 311.805L1109.6 305.459L1013.98 166.533Z" fill="#FCFCFC"/>
<path d="M1027.69 312.63C1027.69 312.63 1027.5 312.598 1027.44 312.535L971.522 263.032C971.522 263.032 971.363 262.746 971.427 262.588L1013.09 164.914C1013.09 164.914 1013.25 164.692 1013.38 164.692C1013.51 164.692 1013.63 164.692 1013.73 164.787C1013.79 164.851 1013.82 164.946 1013.86 165.041L1028.1 312.249C1028.1 312.408 1028.04 312.567 1027.88 312.63C1027.82 312.63 1027.76 312.662 1027.69 312.662V312.63ZM972.252 262.619L1027.18 311.266L1013.19 166.596L972.252 262.588V262.619Z" fill="#FCFCFC"/>
<path d="M1110.33 306.19C1110.33 306.19 1110.27 306.19 1110.2 306.19C1110.04 306.126 1109.92 305.999 1109.92 305.809L1111.03 110.208C1111.03 110.208 1111.09 109.986 1111.15 109.923C1111.25 109.859 1111.34 109.796 1111.47 109.828C1111.47 109.828 1111.69 109.891 1111.76 110.018L1176.91 208.612C1176.91 208.612 1177 208.929 1176.91 209.056L1110.61 306.063C1110.61 306.063 1110.42 306.221 1110.3 306.221L1110.33 306.19ZM1111.85 111.478L1110.74 304.508L1176.15 208.802L1111.85 111.509V111.478Z" fill="#FCFCFC"/>
<path d="M1110.33 306.189C1110.33 306.189 1110.08 306.126 1110.01 306.031L1013.13 165.264C1013.13 165.264 1013.03 165.074 1013.06 164.947C1013.06 164.852 1013.16 164.757 1013.25 164.693L1111.19 109.891C1111.19 109.891 1111.38 109.764 1111.47 109.796C1111.63 109.796 1111.79 109.954 1111.82 110.113C1111.82 110.176 1111.82 110.24 1111.82 110.303L1110.71 305.777C1110.71 305.936 1110.58 306.094 1110.42 306.158C1110.39 306.158 1110.36 306.158 1110.3 306.158L1110.33 306.189ZM1014.05 165.169L1109.95 304.539L1111.06 110.906L1014.05 165.201V165.169Z" fill="#FCFCFC"/>
<path d="M2.95077 1010.5C2.95077 1010.5 2.76037 1010.47 2.6969 1010.4C2.6017 1010.31 2.53823 1010.15 2.56996 1010.02L34.5584 882.36C34.5584 882.36 34.5902 882.265 34.6219 882.234C34.7488 882.075 34.9392 882.011 35.1297 882.107L175.587 952.648C175.587 952.648 175.809 952.87 175.809 953.029C175.809 953.188 175.682 953.315 175.555 953.378L3.10944 1010.53C3.10944 1010.53 3.01425 1010.53 2.98251 1010.53L2.95077 1010.5ZM35.1931 882.995L3.522 1009.48L174.381 952.871L35.2249 882.995H35.1931Z" fill="#FCFCFC"/>
<path d="M2.95064 1010.5C2.76023 1010.5 2.60157 1010.37 2.56983 1010.18L-27.2289 879.916C-27.2289 879.916 -27.2289 879.662 -27.1337 879.567C-27.0703 879.472 -26.9433 879.408 -26.8164 879.44L34.9708 882.042C34.9708 882.042 35.2565 882.137 35.3199 882.264C35.3834 882.359 35.3834 882.486 35.3199 882.582L3.3632 1010.21C3.33146 1010.4 3.17279 1010.5 2.98238 1010.5H2.95064ZM-26.3404 880.233L2.98238 1008.4L34.4314 882.804L-26.3404 880.233Z" fill="#FCFCFC"/>
<path d="M175.396 953.346C175.396 953.346 175.301 953.346 175.269 953.346C175.143 953.315 175.016 953.188 175.016 953.061L138.203 777.865C138.172 777.674 138.267 777.484 138.426 777.42C138.553 777.357 138.743 777.42 138.838 777.484L266.982 868.906C266.982 868.906 267.141 869.096 267.141 869.191C267.141 869.318 267.109 869.413 267.014 869.509L175.65 953.251C175.65 953.251 175.492 953.346 175.396 953.346ZM139.187 778.658L175.65 952.172L266.157 869.223L139.219 778.658H139.187Z" fill="#FCFCFC"/>
<path d="M175.396 953.347C175.396 953.347 175.27 953.347 175.206 953.315L34.7488 882.773C34.7488 882.773 34.5584 882.615 34.5267 882.488C34.5267 882.361 34.5267 882.234 34.6219 882.139L138.235 777.516C138.235 777.516 138.331 777.421 138.394 777.389C138.584 777.325 138.775 777.389 138.87 777.548C138.87 777.548 138.933 777.675 138.933 777.738L175.714 952.902C175.714 952.902 175.714 953.22 175.555 953.283C175.492 953.347 175.396 953.379 175.301 953.379L175.396 953.347ZM35.6056 882.297L174.857 952.204L138.362 778.531L35.6056 882.266V882.297Z" fill="#FCFCFC"/>
<path d="M266.76 869.603C266.76 869.603 266.602 869.604 266.538 869.54C266.443 869.445 266.379 869.318 266.379 869.191L276.535 719.508C276.535 719.508 276.63 719.222 276.788 719.159C276.947 719.095 277.106 719.159 277.201 719.254L373.738 829.462C373.738 829.462 373.865 829.684 373.833 829.811C373.801 829.938 373.706 830.033 373.579 830.096L266.887 869.603C266.887 869.603 266.792 869.603 266.76 869.603ZM277.264 720.492L267.205 868.62L372.754 829.525L277.264 720.492Z" fill="#FCFCFC"/>
<path d="M266.76 869.604C266.76 869.604 266.602 869.604 266.538 869.541L138.362 778.087C138.362 778.087 138.172 777.865 138.204 777.706C138.204 777.579 138.299 777.452 138.457 777.389L276.757 719.191H276.82C276.82 719.191 277.138 719.159 277.233 719.255C277.233 719.255 277.36 719.477 277.36 719.604L267.205 869.255C267.205 869.255 267.109 869.541 266.982 869.572C266.919 869.572 266.856 869.604 266.824 869.604H266.76ZM139.409 777.833L266.411 868.462L276.503 720.143L139.409 777.833Z" fill="#FCFCFC"/>
<path d="M373.452 830.096C373.452 830.096 373.23 830.032 373.166 829.969C373.071 829.874 373.039 829.715 373.103 829.588L418.452 702.625C418.452 702.625 418.642 702.372 418.801 702.372C419.023 702.372 419.213 702.498 419.245 702.721L435.874 817.149C435.874 817.371 435.779 817.561 435.557 817.593L373.579 830.127H373.515L373.452 830.096ZM418.642 704.339L374.055 829.175L434.985 816.831L418.642 704.339Z" fill="#FCFCFC"/>
<path d="M373.452 830.097C373.452 830.097 373.23 830.034 373.167 829.97L276.662 719.794C276.662 719.794 276.535 719.541 276.598 719.382C276.662 719.255 276.789 719.16 276.916 719.128L418.737 702.342H418.769C418.96 702.31 419.182 702.468 419.213 702.691C419.213 702.786 419.213 702.881 419.15 702.976L373.833 829.843C373.833 829.843 373.674 830.066 373.547 830.097H373.484H373.452ZM277.741 719.826L373.293 828.923L418.198 703.198L277.741 719.826Z" fill="#FCFCFC"/>
<path d="M435.43 817.562C435.43 817.562 435.271 817.562 435.208 817.498C435.081 817.403 435.017 817.245 435.049 817.086L481.382 599.812C481.382 599.812 481.382 599.717 481.413 599.685C481.509 599.495 481.699 599.431 481.889 599.495C482.048 599.558 482.143 599.685 482.143 599.844L521.653 761.617C521.685 761.776 521.653 761.966 521.494 762.03L435.652 817.53C435.652 817.53 435.525 817.594 435.43 817.594V817.562ZM481.794 601.621L436.033 816.324L520.828 761.49L481.794 601.621Z" fill="#FCFCFC"/>
<path d="M435.43 817.561C435.239 817.561 435.081 817.402 435.049 817.212L418.42 702.784C418.42 702.784 418.42 702.594 418.483 702.53L481.445 599.621C481.54 599.462 481.73 599.367 481.921 599.462C482.111 599.526 482.206 599.716 482.175 599.906L435.842 817.244C435.811 817.434 435.652 817.561 435.461 817.561H435.43ZM419.245 702.816L435.525 814.896L480.905 602.001L419.245 702.816Z" fill="#FCFCFC"/>
<path d="M521.272 762.061C521.272 762.061 521.113 762.061 521.018 761.998C520.891 761.903 520.827 761.712 520.891 761.554L591.564 543.677C591.627 543.518 591.818 543.391 591.945 543.391C592.135 543.391 592.262 543.518 592.325 543.677L643.386 678.541C643.45 678.699 643.386 678.922 643.228 679.017L521.462 761.998C521.462 761.998 521.303 762.061 521.24 762.061H521.272ZM591.976 544.978L522.002 760.665L642.53 678.509L591.945 544.946L591.976 544.978Z" fill="#FCFCFC"/>
<path d="M521.272 762.061C521.082 762.061 520.955 761.934 520.891 761.744L481.382 599.907C481.35 599.717 481.413 599.558 481.572 599.463L591.691 543.455C591.691 543.455 591.85 543.391 591.945 543.359C592.135 543.359 592.262 543.486 592.326 543.645C592.326 543.645 592.326 543.835 592.326 543.93L521.684 761.744C521.621 761.902 521.494 762.029 521.304 762.029L521.272 762.061ZM482.207 600.066L521.304 760.221L591.247 544.597L482.207 600.066Z" fill="#FCFCFC"/>
<path d="M643.006 679.08C643.006 679.08 642.847 679.08 642.784 679.016C642.625 678.889 642.561 678.667 642.688 678.477L739.066 523.367C739.162 523.177 739.415 523.114 739.574 523.209C739.733 523.304 739.828 523.463 739.796 523.653L728.816 578.106C728.816 578.106 728.784 578.233 728.721 578.297L643.323 678.953C643.323 678.953 643.133 679.08 643.006 679.08ZM738.59 525.62L646.179 674.352L728.054 577.852L738.59 525.62Z" fill="#FCFCFC"/>
<path d="M643.006 679.08H642.974C642.974 679.08 642.688 678.953 642.657 678.826L591.564 543.93C591.564 543.93 591.532 543.676 591.564 543.581C591.627 543.486 591.723 543.422 591.849 543.39L739.225 523.177C739.225 523.177 739.447 523.177 739.542 523.177C739.542 523.177 739.796 523.431 739.764 523.589C739.764 523.684 739.701 523.748 739.637 523.811L643.323 678.826C643.323 678.826 643.133 679.016 642.974 679.016L643.006 679.08ZM592.484 544.12L643.101 677.81L738.622 524.097L592.484 544.12Z" fill="#FCFCFC"/>
<path d="M728.435 578.424C728.435 578.424 728.244 578.392 728.181 578.328C728.054 578.233 728.022 578.043 728.054 577.884L780.321 435.5C780.321 435.5 780.416 435.277 780.543 435.246C780.702 435.182 780.86 435.182 780.987 435.309C781.082 435.404 781.146 435.531 781.114 435.658L783.082 548.627C783.082 548.627 783.018 548.912 782.86 548.976L728.625 578.392C728.625 578.392 728.498 578.455 728.435 578.455V578.424ZM780.353 437.721L729.165 577.154L782.288 548.341L780.353 437.689V437.721Z" fill="#FCFCFC"/>
<path d="M728.435 578.424C728.435 578.424 728.372 578.424 728.34 578.424C728.149 578.361 728.022 578.17 728.054 577.948L739.034 523.495L780.353 435.405C780.353 435.405 780.448 435.246 780.543 435.215C780.702 435.151 780.861 435.151 780.987 435.278C781.114 435.373 781.146 435.564 781.083 435.722L728.816 578.17C728.752 578.329 728.594 578.424 728.435 578.424ZM777.211 443.973L739.796 523.749L729.863 573.03L777.211 443.973Z" fill="#FCFCFC"/>
<path d="M782.67 549.008C782.67 549.008 782.416 548.945 782.352 548.849C782.257 548.691 782.257 548.5 782.352 548.342L890.345 420.015C890.345 420.015 890.408 419.919 890.44 419.888C890.567 419.792 890.758 419.792 890.885 419.888L966.635 469.295C966.635 469.295 966.825 469.518 966.825 469.676C966.825 469.835 966.73 469.962 966.572 469.994L782.765 548.976C782.765 548.976 782.67 549.008 782.606 549.008H782.67ZM890.789 420.744L784.034 547.58L965.619 469.549L890.789 420.744Z" fill="#FCFCFC"/>
<path d="M782.67 549.008C782.67 549.008 782.574 549.008 782.543 549.008C782.384 548.944 782.289 548.817 782.289 548.627L780.321 435.627C780.321 435.436 780.48 435.246 780.67 435.214L890.694 419.824C890.853 419.824 891.075 419.919 891.138 420.078C891.17 420.205 891.138 420.363 891.075 420.459L783.05 548.849C783.05 548.849 782.86 548.976 782.733 548.976L782.67 549.008ZM781.115 435.944L783.05 547.548L889.742 420.744L781.083 435.944H781.115Z" fill="#FCFCFC"/>
<path d="M966.476 470.025C966.476 470.025 966.286 470.025 966.222 469.93C966.095 469.835 966.032 469.644 966.095 469.485L1027.31 312.091C1027.31 312.091 1027.37 311.996 1027.41 311.964C1027.41 311.964 1027.66 311.837 1027.79 311.869C1027.91 311.901 1028.04 311.996 1028.07 312.155L1058.28 413.319C1058.35 413.477 1058.28 413.668 1058.13 413.763L966.698 469.993C966.698 469.993 966.571 470.057 966.476 470.057V470.025ZM1027.66 313.456L967.27 468.692L1057.43 413.255L1027.63 313.487L1027.66 313.456Z" fill="#FCFCFC"/>
<path d="M966.477 470.025C966.477 470.025 966.318 470.025 966.254 469.962L890.504 420.554C890.504 420.554 890.345 420.364 890.314 420.237C890.314 420.11 890.377 419.983 890.472 419.919L1027.47 311.933C1027.63 311.806 1027.88 311.838 1028.01 311.997C1028.11 312.123 1028.14 312.282 1028.07 312.441L966.857 469.803C966.857 469.803 966.73 469.994 966.603 470.025C966.572 470.025 966.508 470.025 966.477 470.025ZM891.393 420.173L966.286 469.01L1026.8 313.424L891.393 420.173Z" fill="#FCFCFC"/>
<path d="M1057.9 413.795C1057.9 413.795 1057.71 413.763 1057.65 413.7C1057.52 413.573 1057.46 413.382 1057.55 413.224L1109.98 305.586C1110.08 305.396 1110.3 305.301 1110.49 305.396C1110.61 305.428 1110.68 305.523 1110.71 305.65L1139.62 355.946C1139.72 356.137 1139.68 356.359 1139.49 356.454L1058.13 413.7C1058.13 413.7 1057.97 413.763 1057.9 413.763V413.795ZM1110.36 306.634L1058.95 412.176L1138.76 356.041L1110.36 306.634Z" fill="#FCFCFC"/>
<path d="M1057.9 413.795H1057.87C1057.71 413.795 1057.59 413.668 1057.52 413.509L1027.31 312.345C1027.31 312.345 1027.31 312.091 1027.37 311.996C1027.44 311.901 1027.57 311.838 1027.66 311.838L1110.2 305.396C1110.2 305.396 1110.39 305.396 1110.46 305.396C1110.65 305.459 1110.74 305.681 1110.71 305.872C1110.71 305.872 1110.71 305.967 1110.68 305.999L1058.28 413.573C1058.28 413.573 1058.09 413.795 1057.94 413.795H1057.9ZM1028.23 312.599L1058 412.335L1109.66 306.253L1028.23 312.599Z" fill="#FCFCFC"/>
<path d="M1139.3 356.549C1139.3 356.549 1139.11 356.517 1139.05 356.454C1138.92 356.358 1138.89 356.2 1138.92 356.041L1176.24 208.674C1176.31 208.484 1176.46 208.357 1176.65 208.389C1176.84 208.389 1177 208.548 1177 208.738L1190.68 333.479C1190.68 333.638 1190.62 333.828 1190.46 333.892L1139.43 356.517C1139.43 356.517 1139.33 356.549 1139.27 356.549H1139.3ZM1176.46 210.959L1139.87 355.47L1189.89 333.289L1176.46 210.959Z" fill="#FCFCFC"/>
<path d="M1139.3 356.549C1139.3 356.549 1139.02 356.486 1138.95 356.359L1109.98 305.999C1109.98 305.999 1109.92 305.713 1109.98 305.586L1176.21 208.675C1176.27 208.516 1176.43 208.357 1176.62 208.421C1176.62 208.421 1176.88 208.516 1176.94 208.643C1177 208.77 1177 208.897 1176.94 209.024L1139.65 356.295C1139.65 356.295 1139.49 356.581 1139.33 356.581H1139.27L1139.3 356.549ZM1110.81 305.809L1139.14 355.121L1175.67 210.896L1110.81 305.809Z" fill="#FCFCFC"/>
<path d="M1190.3 333.924C1190.3 333.924 1190.11 333.924 1190.05 333.829C1189.92 333.733 1189.86 333.543 1189.92 333.384L1255.13 159.077C1255.13 159.077 1255.26 158.886 1255.39 158.855C1255.58 158.791 1255.77 158.855 1255.86 159.045L1310.67 258.337C1310.76 258.527 1310.7 258.749 1310.54 258.876L1190.49 333.892C1190.49 333.892 1190.36 333.956 1190.27 333.956L1190.3 333.924ZM1255.61 160.156L1191.09 332.559L1309.81 258.368L1255.58 160.156H1255.61Z" fill="#FCFCFC"/>
<path d="M1190.3 333.924H1190.24C1190.05 333.924 1189.92 333.765 1189.89 333.575L1176.21 208.833C1176.21 208.833 1176.27 208.548 1176.4 208.453L1255.26 158.95C1255.26 158.95 1255.36 158.886 1255.39 158.886C1255.58 158.823 1255.77 158.886 1255.86 159.076C1255.93 159.203 1255.9 159.362 1255.86 159.457L1190.68 333.67C1190.68 333.67 1190.46 333.924 1190.3 333.924ZM1177.04 208.992L1190.52 331.829L1254.75 160.187L1177.04 208.992Z" fill="#FCFCFC"/>
<path d="M1310.35 258.908C1310.35 258.908 1310.13 258.844 1310.03 258.781C1309.94 258.654 1309.91 258.495 1309.97 258.368L1385.56 100.371C1385.56 100.371 1385.69 100.149 1385.82 100.117C1385.94 100.054 1386.1 100.117 1386.23 100.212L1495.11 205.279C1495.11 205.279 1495.27 205.533 1495.21 205.66C1495.17 205.787 1495.08 205.914 1494.92 205.946L1310.45 258.876C1310.45 258.876 1310.38 258.876 1310.35 258.876V258.908ZM1386.07 101.164L1311.08 257.892L1494.03 205.375L1386.04 101.164H1386.07Z" fill="#FCFCFC"/>
<path d="M1310.35 258.907C1310.35 258.907 1310.07 258.843 1310 258.717L1255.2 159.425C1255.2 159.425 1255.13 159.203 1255.2 159.108C1255.23 159.012 1255.32 158.917 1255.42 158.885L1385.82 100.148C1385.82 100.148 1386.1 100.116 1386.23 100.18C1386.36 100.243 1386.39 100.402 1386.39 100.561C1386.39 100.592 1386.39 100.656 1386.36 100.688L1310.76 258.717C1310.76 258.717 1310.57 258.939 1310.42 258.939L1310.35 258.907ZM1256.09 159.425L1310.32 257.669L1385.12 101.322L1256.09 159.425Z" fill="#FCFCFC"/>
<path d="M1494.83 205.977C1494.83 205.977 1494.76 205.977 1494.73 205.977C1494.6 205.977 1494.48 205.85 1494.44 205.723L1449.64 64.4175C1449.64 64.4175 1449.64 64.1319 1449.73 64.0367C1449.83 63.9415 1449.95 63.878 1450.11 63.9098L1579.91 114.492C1579.91 114.492 1580.13 114.65 1580.16 114.777C1580.16 114.904 1580.16 115.031 1580.06 115.126L1495.11 205.85C1495.11 205.85 1494.92 205.977 1494.83 205.977ZM1450.65 64.9569L1495.02 204.803L1579.11 114.999L1450.68 64.9569H1450.65Z" fill="#FCFCFC"/>
<path d="M1494.83 205.977C1494.83 205.977 1494.64 205.945 1494.54 205.85L1385.66 100.783C1385.66 100.783 1385.53 100.561 1385.53 100.434C1385.53 100.307 1385.63 100.212 1385.72 100.148L1449.73 63.9731C1449.73 63.9731 1449.95 63.8462 1450.08 63.8779C1450.24 63.9096 1450.37 64.0366 1450.4 64.1952L1495.17 205.437C1495.24 205.596 1495.17 205.787 1495.02 205.882C1494.95 205.913 1494.89 205.945 1494.79 205.945L1494.83 205.977ZM1386.61 100.593L1493.97 204.232L1449.79 64.8933L1386.61 100.593Z" fill="#FCFCFC"/>
<path d="M1579.78 115.222C1579.78 115.222 1579.68 115.222 1579.62 115.222L1449.89 64.6714C1449.89 64.6714 1449.64 64.481 1449.64 64.3223C1449.64 64.1636 1449.7 64.005 1449.86 63.9415L1559.88 8.44102C1559.88 8.44102 1560.17 8.37755 1560.29 8.44102C1560.39 8.50448 1560.45 8.59969 1560.48 8.69489L1580.19 114.746C1580.19 114.746 1580.19 115.031 1580.06 115.126C1580 115.19 1579.91 115.222 1579.81 115.222H1579.78ZM1451.03 64.2271L1579.27 114.206L1559.79 9.36127L1451.03 64.2271Z" fill="#FCFCFC"/>
<path d="M327.5 980.128C327.5 980.128 327.373 980.128 327.31 980.096C327.151 980.001 327.056 979.811 327.119 979.62L373.071 829.62C373.135 829.429 373.293 829.334 373.484 829.334C373.674 829.334 373.833 829.493 373.833 829.683L383.861 909.428C383.861 909.428 383.861 909.65 383.766 909.713L327.786 980.001C327.786 980.001 327.595 980.16 327.469 980.16L327.5 980.128ZM373.293 831.587L328.484 977.843L383.068 909.332L373.293 831.587Z" fill="#FCFCFC"/>
<path d="M327.5 980.129C327.5 980.129 327.215 980.065 327.151 979.938L266.443 869.413C266.443 869.413 266.38 869.191 266.443 869.096C266.475 869.001 266.57 868.906 266.665 868.874L373.357 829.367C373.357 829.367 373.642 829.367 373.769 829.462C373.865 829.557 373.928 829.716 373.865 829.874L327.913 979.875C327.913 979.875 327.722 980.129 327.564 980.16H327.532L327.5 980.129ZM267.363 869.445L327.405 978.732L372.849 830.382L267.363 869.445Z" fill="#FCFCFC"/>
<path d="M383.48 909.841C383.48 909.841 383.29 909.809 383.226 909.745C383.099 909.618 383.036 909.428 383.131 909.238L435.081 816.959C435.081 816.959 435.271 816.768 435.398 816.768C435.43 816.768 435.493 816.768 435.525 816.768L501.977 821.243C502.136 821.243 502.294 821.37 502.326 821.528C502.358 821.687 502.326 821.846 502.167 821.973L383.702 909.745C383.702 909.745 383.544 909.809 383.48 909.809V909.841ZM435.652 817.562L384.749 908L500.866 821.973L435.652 817.562Z" fill="#FCFCFC"/>
<path d="M383.48 909.841H383.417C383.258 909.809 383.131 909.651 383.099 909.492L373.071 829.748C373.071 829.557 373.198 829.367 373.389 829.304L435.271 816.769C435.271 816.769 435.366 816.737 435.43 816.737C435.557 816.737 435.652 816.801 435.747 816.896C435.747 816.896 435.842 817.15 435.811 817.277C435.811 817.34 435.779 817.372 435.747 817.404L383.829 909.619C383.829 909.619 383.639 909.809 383.48 909.809V909.841ZM373.896 830.033L383.734 908.223L434.668 817.753L373.928 830.065L373.896 830.033Z" fill="#FCFCFC"/>
<path d="M649.035 825.781L501.945 822.068C501.945 822.068 501.691 822.004 501.628 821.909C501.565 821.814 501.533 821.687 501.565 821.56L520.891 761.554C520.954 761.395 521.081 761.268 521.272 761.268C521.272 761.268 521.43 761.268 521.526 761.363L649.226 825.051C649.384 825.146 649.479 825.305 649.448 825.495C649.416 825.685 649.257 825.781 649.067 825.781H649.035ZM502.485 821.275L647.258 824.924L521.494 762.22L502.485 821.275Z" fill="#FCFCFC"/>
<path d="M501.945 822.067L435.43 817.561C435.271 817.561 435.112 817.434 435.08 817.275C435.049 817.117 435.08 816.926 435.239 816.831L521.018 761.362C521.018 761.362 521.176 761.235 521.303 761.235C521.462 761.235 521.621 761.331 521.684 761.521C521.684 761.521 521.684 761.743 521.684 761.838L502.389 821.781C502.326 821.94 502.167 822.067 502.009 822.067H501.945ZM436.635 816.863L501.66 821.242L520.542 762.6L436.635 816.831V816.863Z" fill="#FCFCFC"/>
<path d="M649.035 825.781C649.035 825.781 648.94 825.781 648.908 825.781C648.75 825.717 648.654 825.59 648.623 825.432L642.625 678.858C642.625 678.858 642.625 678.668 642.625 678.573C642.688 678.414 642.879 678.319 643.069 678.351C643.133 678.351 643.228 678.414 643.291 678.446L719.994 736.136C719.994 736.136 720.121 736.295 720.152 736.39C720.152 736.485 720.152 736.612 720.057 736.675L649.321 825.654C649.321 825.654 649.13 825.812 649.003 825.812L649.035 825.781ZM643.482 679.525L649.384 824.289L719.2 736.453L643.482 679.493V679.525Z" fill="#FCFCFC"/>
<path d="M649.035 825.781C649.035 825.781 648.908 825.781 648.845 825.749L521.081 762.03C521.081 762.03 520.859 761.84 520.859 761.713C520.859 761.586 520.923 761.427 521.018 761.364L642.784 678.383C642.784 678.383 642.974 678.287 643.069 678.319C643.26 678.351 643.418 678.51 643.418 678.7L649.416 825.4C649.416 825.4 649.353 825.686 649.226 825.749C649.162 825.781 649.099 825.813 649.004 825.813L649.035 825.781ZM522.065 761.618L648.623 824.734L642.688 679.43L522.065 761.618Z" fill="#FCFCFC"/>
<path d="M719.771 736.803C719.771 736.803 719.613 736.803 719.549 736.739C719.454 736.676 719.391 736.549 719.391 736.39L728.054 578.012C728.054 577.822 728.213 577.663 728.403 577.631C728.403 577.631 728.625 577.631 728.721 577.758L843.124 692.218C843.124 692.218 843.251 692.44 843.219 692.599C843.219 692.726 843.092 692.853 842.965 692.884L719.898 736.771C719.898 736.771 719.803 736.771 719.771 736.771V736.803ZM728.752 578.932L720.184 735.819L842.108 692.345L728.752 578.932Z" fill="#FCFCFC"/>
<path d="M719.772 736.803C719.772 736.803 719.613 736.803 719.518 736.739L642.784 679.017C642.784 679.017 642.625 678.859 642.625 678.732C642.625 678.637 642.625 678.51 642.72 678.446L728.054 577.853C728.054 577.853 728.245 577.663 728.372 577.631C728.372 577.631 728.689 577.695 728.753 577.853C728.816 577.949 728.816 578.076 728.753 578.171L720.121 736.422C720.121 736.422 720.025 736.707 719.899 736.771C719.835 736.771 719.803 736.803 719.74 736.803H719.772ZM643.609 678.637L719.423 735.66L727.959 579.218L643.609 678.637Z" fill="#FCFCFC"/>
<path d="M842.838 692.916H842.807C842.807 692.916 842.521 692.821 842.489 692.662L782.321 548.786C782.321 548.786 782.289 548.595 782.321 548.5C782.321 548.5 782.479 548.278 782.606 548.246C782.733 548.246 782.892 548.246 782.987 548.373L870.955 647.887C870.955 647.887 871.082 648.204 870.987 648.363L843.156 692.757C843.156 692.757 842.965 692.948 842.807 692.948L842.838 692.916ZM783.971 550.658L842.902 691.647L870.162 648.173L783.971 550.658Z" fill="#FCFCFC"/>
<path d="M842.838 692.915C842.838 692.915 842.648 692.884 842.553 692.788L728.15 578.329C728.15 578.329 728.023 578.106 728.023 577.98C728.023 577.853 728.118 577.757 728.213 577.694L782.447 548.278C782.447 548.278 782.765 548.214 782.892 548.341C782.955 548.405 782.987 548.468 783.019 548.563L843.156 692.408C843.219 692.598 843.156 692.788 842.997 692.884C842.934 692.915 842.838 692.947 842.775 692.947L842.838 692.915ZM729.102 578.138L841.696 690.821L782.479 549.198L729.102 578.17V578.138Z" fill="#FCFCFC"/>
<path d="M870.638 648.522C870.638 648.522 870.416 648.49 870.352 648.395C870.257 648.268 870.225 648.078 870.289 647.951L966.064 469.55C966.064 469.55 966.127 469.391 966.19 469.359C966.317 469.232 966.508 469.232 966.635 469.296C966.73 469.359 966.825 469.423 966.857 469.55L1018.97 590.451C1018.97 590.451 1019 590.673 1018.97 590.769C1018.93 590.864 1018.84 590.959 1018.74 590.991L870.765 648.554C870.765 648.554 870.669 648.554 870.606 648.554L870.638 648.522ZM966.444 470.565L871.526 647.38L1018.11 590.356L966.444 470.565Z" fill="#FCFCFC"/>
<path d="M870.638 648.522C870.638 648.522 870.416 648.458 870.352 648.395L782.384 548.881C782.384 548.881 782.257 548.659 782.289 548.532C782.289 548.405 782.416 548.31 782.511 548.246L966.318 469.263C966.318 469.263 966.54 469.232 966.635 469.263C966.73 469.327 966.825 469.39 966.857 469.517C966.889 469.613 966.857 469.74 966.857 469.835L871.019 648.331C871.019 648.331 870.828 648.522 870.701 648.522H870.67H870.638ZM783.336 548.754L870.574 647.443L965.619 470.438L783.336 548.754Z" fill="#FCFCFC"/>
<path d="M1018.62 590.959C1018.62 590.959 1018.46 590.959 1018.39 590.895C1018.27 590.8 1018.2 590.641 1018.24 590.483L1057.49 413.319C1057.49 413.319 1057.59 413.128 1057.68 413.065C1057.78 413.001 1057.9 413.002 1058 413.033C1058 413.033 1058.19 413.128 1058.22 413.224L1123.37 528.54C1123.47 528.731 1123.4 528.953 1123.21 529.08L1018.77 590.927C1018.77 590.927 1018.65 590.99 1018.58 590.99L1018.62 590.959ZM1058.06 414.461L1019.22 589.753L1122.52 528.572L1058.06 414.493V414.461Z" fill="#FCFCFC"/>
<path d="M1018.62 590.958C1018.62 590.958 1018.33 590.863 1018.27 590.704L966.127 469.771C966.064 469.58 966.127 469.39 966.286 469.263L1057.62 413.096C1057.62 413.096 1057.68 413.064 1057.71 413.032C1057.81 412.969 1057.94 412.969 1058.03 413.001C1058.03 413.001 1058.28 413.191 1058.32 413.318C1058.32 413.413 1058.32 413.477 1058.28 413.572L1019.03 590.64C1019 590.799 1018.84 590.926 1018.68 590.958H1018.65H1018.62ZM966.984 469.802L1018.52 589.308L1057.33 414.27L967.016 469.802H966.984Z" fill="#FCFCFC"/>
<path d="M1123.05 529.079C1123.05 529.079 1122.9 529.079 1122.83 529.016C1122.71 528.921 1122.64 528.794 1122.67 528.667L1138.92 356.168C1138.92 355.977 1139.05 355.85 1139.21 355.787C1139.37 355.724 1139.56 355.787 1139.65 355.946L1220.1 483.511C1220.1 483.511 1220.16 483.733 1220.13 483.828C1220.1 483.924 1220.04 484.019 1219.91 484.082L1123.21 529.048C1123.21 529.048 1123.12 529.079 1123.05 529.079ZM1139.59 357.342L1123.53 528.032L1219.18 483.543L1139.59 357.342Z" fill="#FCFCFC"/>
<path d="M1123.05 529.079C1123.05 529.079 1122.77 529.016 1122.71 528.889L1057.55 413.572C1057.46 413.382 1057.49 413.16 1057.68 413.065L1139.05 355.819C1139.05 355.819 1139.33 355.724 1139.46 355.819C1139.59 355.882 1139.68 356.009 1139.68 356.168V356.231L1123.44 528.762C1123.44 528.921 1123.31 529.079 1123.12 529.111C1123.12 529.111 1123.05 529.111 1123.02 529.111L1123.05 529.079ZM1058.44 413.509L1122.8 527.398L1138.86 356.961L1058.47 413.509H1058.44Z" fill="#FCFCFC"/>
<path d="M1219.72 484.114C1219.72 484.114 1219.65 484.114 1219.62 484.114C1219.46 484.082 1219.37 483.955 1219.34 483.797L1189.92 333.669C1189.92 333.669 1189.89 333.542 1189.92 333.447C1189.95 333.225 1190.14 333.098 1190.36 333.13L1319.14 352.836C1319.14 352.836 1319.4 352.963 1319.46 353.09C1319.52 353.217 1319.49 353.375 1319.4 353.471L1220.04 483.956C1220.04 483.956 1219.85 484.114 1219.72 484.114ZM1190.81 333.987L1219.94 482.75L1318.35 353.502L1190.81 333.955V333.987Z" fill="#FCFCFC"/>
<path d="M1219.72 484.114C1219.72 484.114 1219.46 484.051 1219.37 483.924L1138.92 356.358C1138.92 356.358 1138.86 356.136 1138.89 356.041C1138.92 355.946 1139.02 355.851 1139.11 355.787L1190.14 333.162C1190.14 333.162 1190.33 333.13 1190.4 333.162C1190.55 333.194 1190.65 333.32 1190.68 333.479L1220.1 483.67C1220.13 483.86 1220.04 484.051 1219.85 484.114C1219.81 484.114 1219.75 484.114 1219.69 484.114H1219.72ZM1139.84 356.327L1218.89 481.703L1189.98 334.082L1139.84 356.327Z" fill="#FCFCFC"/>
<path d="M1319.08 353.661C1318.89 353.661 1318.7 353.503 1318.7 353.312L1309.94 258.59C1309.94 258.431 1310 258.273 1310.16 258.209C1310.16 258.209 1310.45 258.146 1310.57 258.209L1441.23 349.187C1441.23 349.187 1441.42 349.472 1441.38 349.631C1441.32 349.79 1441.19 349.917 1441 349.917L1319.08 353.693V353.661ZM1310.8 259.32L1319.43 352.836L1439.77 349.123L1310.76 259.32H1310.8Z" fill="#FCFCFC"/>
<path d="M1319.08 353.661H1319.02L1190.24 333.923C1190.08 333.923 1189.95 333.765 1189.92 333.606C1189.89 333.447 1189.95 333.289 1190.11 333.193L1310.1 258.209H1310.16C1310.35 258.082 1310.57 258.146 1310.67 258.336C1310.7 258.431 1310.73 258.495 1310.7 258.59L1319.43 353.217C1319.43 353.217 1319.4 353.471 1319.3 353.534C1319.24 353.597 1319.14 353.629 1319.02 353.629L1319.08 353.661ZM1191.41 333.32L1318.64 352.804L1310 259.224L1191.41 333.32Z" fill="#FCFCFC"/>
<path d="M1441 349.885C1441 349.885 1440.84 349.885 1440.78 349.822C1440.65 349.726 1440.59 349.536 1440.65 349.377L1494.48 205.501C1494.48 205.501 1494.48 205.438 1494.54 205.374C1494.67 205.216 1494.89 205.152 1495.05 205.247C1495.21 205.343 1495.3 205.533 1495.24 205.692L1477.05 322.881C1477.05 322.881 1476.99 323.071 1476.9 323.134L1441.29 349.822C1441.29 349.822 1441.13 349.885 1441.07 349.885H1441ZM1493.84 209.341L1441.86 348.362L1476.26 322.595L1493.84 209.341Z" fill="#FCFCFC"/>
<path d="M1441 349.885C1441 349.885 1440.84 349.885 1440.78 349.821L1310.13 258.843C1310.13 258.843 1309.94 258.59 1309.97 258.463C1309.97 258.304 1310.1 258.177 1310.26 258.145L1494.7 205.215C1494.7 205.215 1494.92 205.215 1495.02 205.215C1495.21 205.31 1495.27 205.501 1495.21 205.691L1441.38 349.599C1441.38 349.599 1441.26 349.789 1441.13 349.853C1441.1 349.853 1441.07 349.853 1441 349.853V349.885ZM1311.27 258.653L1440.81 348.869L1494.16 206.167L1311.24 258.653H1311.27Z" fill="#FCFCFC"/>
<path d="M1476.61 323.198C1476.61 323.198 1476.39 323.166 1476.32 323.071C1476.2 322.944 1476.17 322.754 1476.26 322.627L1579.4 114.651C1579.4 114.651 1579.59 114.429 1579.75 114.429C1579.94 114.429 1580.1 114.556 1580.13 114.746L1609.32 261.351C1609.36 261.542 1609.26 261.7 1609.1 261.795L1476.77 323.166C1476.77 323.166 1476.64 323.198 1476.61 323.198ZM1579.59 116.047L1477.47 321.961L1608.5 261.192L1579.59 116.047Z" fill="#FCFCFC"/>
<path d="M1476.61 323.198C1476.61 323.198 1476.51 323.198 1476.48 323.198C1476.29 323.135 1476.17 322.944 1476.2 322.754L1494.38 205.502C1494.38 205.502 1494.44 205.343 1494.48 205.279L1579.37 114.587C1579.37 114.587 1579.56 114.429 1579.68 114.429C1579.68 114.429 1579.97 114.524 1580.03 114.683C1580.1 114.809 1580.06 114.968 1580 115.063L1476.9 322.976C1476.9 322.976 1476.67 323.198 1476.55 323.198H1476.61ZM1495.17 205.755L1477.4 320.342L1578.19 117.094L1495.17 205.755Z" fill="#FCFCFC"/>
<path d="M552.34 1003.45C552.34 1003.45 552.181 1003.45 552.118 1003.39C551.959 1003.26 551.927 1003.07 551.991 1002.88L648.654 825.304C648.654 825.304 648.718 825.145 648.813 825.082C648.972 824.955 649.162 824.987 649.321 825.082C649.384 825.145 649.416 825.209 649.448 825.272L674.169 880.075C674.169 880.075 674.201 880.392 674.106 880.519L552.657 1003.36C552.657 1003.36 552.467 1003.48 552.372 1003.48L552.34 1003.45ZM649.004 826.288L554.022 1000.79L673.312 880.138L649.035 826.288H649.004Z" fill="#FCFCFC"/>
<path d="M552.34 1003.45H552.308C552.15 1003.45 552.023 1003.32 551.959 1003.17L501.565 821.781C501.565 821.781 501.565 821.527 501.628 821.432C501.692 821.337 501.819 821.273 501.945 821.273L649.035 824.986C649.035 824.986 649.226 825.018 649.289 825.081C649.448 825.208 649.48 825.43 649.384 825.589L552.657 1003.26C552.657 1003.26 552.467 1003.48 552.308 1003.48L552.34 1003.45ZM502.485 822.067L552.467 1001.99L648.401 825.748L502.485 822.067Z" fill="#FCFCFC"/>
<path d="M673.756 880.615C673.756 880.615 673.502 880.552 673.439 880.457C673.375 880.361 673.344 880.203 673.375 880.107L719.359 736.327C719.359 736.327 719.454 736.104 719.581 736.041C719.771 735.946 720.025 736.041 720.121 736.231L788.921 875.824C788.921 875.824 788.985 876.077 788.921 876.204C788.858 876.331 788.731 876.395 788.604 876.395L673.82 880.647L673.756 880.615ZM719.835 737.437L674.296 879.79L787.906 875.57L719.835 737.437Z" fill="#FCFCFC"/>
<path d="M673.756 880.616C673.756 880.616 673.471 880.521 673.407 880.394L648.654 825.56C648.654 825.56 648.623 825.274 648.718 825.147L719.454 736.168C719.454 736.168 719.676 736.01 719.803 736.01C719.93 736.01 720.057 736.105 720.121 736.232C720.152 736.327 720.184 736.422 720.121 736.517L674.137 880.33C674.137 880.33 673.947 880.584 673.788 880.616H673.756ZM649.479 825.433L673.693 879.124L718.724 738.326L649.479 825.433Z" fill="#FCFCFC"/>
<path d="M788.54 876.362C788.54 876.362 788.413 876.362 788.382 876.33C788.191 876.235 788.128 876.045 788.16 875.854L842.426 692.376C842.489 692.217 842.616 692.09 842.807 692.09C842.997 692.09 843.124 692.217 843.187 692.376L854.612 776.563C854.612 776.563 854.612 776.753 854.548 776.848L788.858 876.203C788.858 876.203 788.667 876.394 788.54 876.394V876.362ZM842.68 694.375L789.683 873.538L853.819 776.531L842.68 694.375Z" fill="#FCFCFC"/>
<path d="M788.541 876.362C788.541 876.362 788.255 876.267 788.192 876.14L719.391 736.548C719.391 736.548 719.328 736.326 719.391 736.23C719.423 736.135 719.518 736.04 719.613 736.008L842.585 692.154C842.585 692.154 842.712 692.09 842.807 692.09C842.997 692.09 843.124 692.217 843.188 692.376C843.188 692.376 843.188 692.598 843.188 692.661L788.953 876.076C788.953 876.076 788.763 876.33 788.604 876.362H788.572H788.541ZM720.311 736.611L788.445 874.871L842.204 693.106L720.311 736.579V736.611Z" fill="#FCFCFC"/>
<path d="M918.462 781.069L854.263 777.038C854.263 777.038 854.041 776.975 853.977 776.912C853.914 776.816 853.882 776.721 853.882 776.594L870.257 648.077C870.257 647.918 870.416 647.759 870.574 647.728C870.765 647.728 870.955 647.791 871.019 647.982L918.811 780.529C918.811 780.529 918.811 780.783 918.747 780.91C918.684 781.005 918.557 781.069 918.43 781.069H918.462ZM854.707 776.277L917.89 780.244L870.828 649.79L854.707 776.277Z" fill="#FCFCFC"/>
<path d="M854.263 777.038C854.072 777.038 853.882 776.88 853.882 776.689L842.457 692.566C842.457 692.566 842.457 692.376 842.521 692.312L870.289 647.982C870.289 647.982 870.447 647.759 870.606 647.728C870.765 647.728 870.923 647.759 870.987 647.886C871.05 647.982 871.082 648.108 871.018 648.235L854.643 776.658C854.643 776.848 854.453 777.007 854.263 777.007V777.038ZM843.251 692.598L854.231 773.611L870.003 649.886L843.219 692.598H843.251Z" fill="#FCFCFC"/>
<path d="M918.462 781.069C918.462 781.069 918.271 781.069 918.208 780.973C918.049 780.846 918.017 780.656 918.113 780.497L1018.27 590.355C1018.36 590.165 1018.55 590.101 1018.74 590.165C1018.9 590.228 1019 590.387 1019 590.545L1033.94 687.806C1033.94 687.806 1033.91 688.092 1033.82 688.187L918.716 781.005C918.716 781.005 918.557 781.1 918.462 781.1V781.069ZM1018.43 591.783L919.731 779.165L1033.18 687.711L1018.46 591.815L1018.43 591.783Z" fill="#FCFCFC"/>
<path d="M918.462 781.069C918.462 781.069 918.176 780.942 918.113 780.815L870.32 648.268C870.257 648.077 870.32 647.855 870.543 647.76L1018.43 590.229C1018.43 590.229 1018.68 590.133 1018.81 590.165C1019 590.229 1019.09 590.419 1019.06 590.609C1019.06 590.609 1019.03 590.736 1019 590.768L918.874 780.847C918.874 780.847 918.684 781.069 918.525 781.069H918.462ZM871.177 648.331L918.557 779.673L1017.79 591.276L871.177 648.299V648.331Z" fill="#FCFCFC"/>
<path d="M1033.56 688.25C1033.56 688.25 1033.37 688.25 1033.31 688.155C1033.15 688.028 1033.12 687.838 1033.21 687.647L1122.67 528.476C1122.77 528.318 1122.96 528.222 1123.15 528.286C1123.34 528.349 1123.44 528.54 1123.4 528.73L1108.36 625.959C1108.36 625.959 1108.3 626.15 1108.23 626.213L1033.79 688.155C1033.79 688.155 1033.63 688.25 1033.53 688.25H1033.56ZM1122.32 530.729L1034.96 686.156L1107.63 625.674L1122.32 530.729Z" fill="#FCFCFC"/>
<path d="M1033.56 688.251H1033.5C1033.34 688.219 1033.21 688.093 1033.18 687.902L1018.24 590.578C1018.24 590.419 1018.3 590.261 1018.43 590.165L1122.77 528.35C1122.77 528.35 1123.02 528.223 1123.18 528.255C1123.18 528.255 1123.44 528.445 1123.44 528.604C1123.44 528.731 1123.44 528.858 1123.31 528.921L1033.88 687.997C1033.88 687.997 1033.69 688.188 1033.53 688.188L1033.56 688.251ZM1019.06 590.737L1033.79 686.665L1121.94 529.81L1019.06 590.768V590.737Z" fill="#FCFCFC"/>
<path d="M1108.01 626.309C1108.01 626.309 1107.76 626.245 1107.66 626.119C1107.57 625.992 1107.6 625.801 1107.66 625.674L1219.37 483.448C1219.37 483.448 1219.56 483.29 1219.65 483.29C1219.75 483.29 1219.88 483.321 1219.97 483.417C1219.97 483.417 1220.04 483.48 1220.04 483.512L1274.81 590.388C1274.81 590.388 1274.87 590.641 1274.81 590.737C1274.75 590.863 1274.65 590.927 1274.52 590.959L1108.01 626.309C1108.01 626.309 1107.95 626.309 1107.92 626.309H1108.01ZM1219.65 484.432L1109 625.293L1273.95 590.292L1219.69 484.432H1219.65Z" fill="#FCFCFC"/>
<path d="M1108.01 626.309C1108.01 626.309 1107.92 626.309 1107.85 626.277C1107.7 626.214 1107.6 626.023 1107.63 625.865L1122.67 528.636C1122.67 528.636 1122.77 528.382 1122.9 528.35L1219.46 483.417C1219.46 483.417 1219.62 483.322 1219.69 483.322C1219.78 483.322 1219.91 483.353 1220 483.448C1220 483.448 1220.13 483.671 1220.1 483.797C1220.1 483.893 1220.04 483.988 1219.94 484.051L1108.3 626.182C1108.3 626.182 1108.11 626.341 1107.98 626.341L1108.01 626.309ZM1123.4 528.953L1108.62 624.469L1218.35 484.781L1123.4 528.953Z" fill="#FCFCFC"/>
<path d="M1274.52 590.99C1274.52 590.99 1274.43 590.99 1274.37 590.958C1274.21 590.895 1274.11 590.704 1274.14 590.514L1318.7 353.248C1318.7 353.248 1318.7 353.09 1318.76 353.026C1318.89 352.836 1319.24 352.804 1319.4 353.026C1319.43 353.058 1319.46 353.121 1319.49 353.185L1365.57 471.675C1365.57 471.675 1365.57 471.96 1365.51 472.056L1274.84 590.863C1274.84 590.863 1274.65 591.021 1274.52 591.021V590.99ZM1319.24 354.708L1275.22 589.022L1364.75 471.707L1319.24 354.676V354.708Z" fill="#FCFCFC"/>
<path d="M1274.52 590.99C1274.52 590.99 1274.24 590.895 1274.17 590.768L1219.4 483.892C1219.4 483.892 1219.34 483.606 1219.43 483.48L1318.79 352.995C1318.95 352.804 1319.27 352.804 1319.43 352.995C1319.49 353.09 1319.52 353.217 1319.52 353.312L1274.97 590.641C1274.94 590.8 1274.81 590.926 1274.65 590.958H1274.59L1274.52 590.99ZM1220.19 483.765L1274.33 589.372L1318.38 354.803L1220.19 483.765Z" fill="#FCFCFC"/>
<path d="M1464.87 485.828H1464.8L1365.13 472.183C1365.13 472.183 1364.87 472.088 1364.81 471.961C1364.75 471.834 1364.75 471.707 1364.81 471.58L1440.59 349.377C1440.59 349.377 1440.69 349.218 1440.78 349.155C1440.94 349.06 1441.1 349.092 1441.23 349.187C1441.32 349.25 1441.38 349.377 1441.38 349.504L1465.25 485.384C1465.25 485.384 1465.25 485.637 1465.15 485.733C1465.09 485.796 1464.96 485.859 1464.87 485.859V485.828ZM1365.86 471.485L1464.39 484.971L1440.81 350.615L1365.86 471.485Z" fill="#FCFCFC"/>
<path d="M1365.19 472.183H1365.16C1365.16 472.183 1364.87 472.056 1364.84 471.929L1318.73 353.407C1318.73 353.407 1318.73 353.153 1318.76 353.058C1318.83 352.963 1318.95 352.899 1319.08 352.868L1441 349.091C1441 349.091 1441.19 349.091 1441.26 349.187C1441.42 349.313 1441.45 349.536 1441.35 349.694L1365.54 471.992C1365.54 471.992 1365.35 472.183 1365.19 472.183ZM1319.65 353.629L1365.28 470.881L1440.31 349.885L1319.68 353.597L1319.65 353.629Z" fill="#FCFCFC"/>
<path d="M1464.87 485.828C1464.87 485.828 1464.71 485.828 1464.65 485.765C1464.52 485.701 1464.46 485.543 1464.46 485.384L1476.2 322.785C1476.2 322.785 1476.23 322.595 1476.32 322.532C1476.32 322.532 1476.55 322.405 1476.67 322.436C1476.8 322.436 1476.9 322.563 1476.96 322.659L1530.05 447.114C1530.11 447.305 1530.05 447.495 1529.89 447.622L1465.06 485.796C1465.06 485.796 1464.93 485.86 1464.87 485.86V485.828ZM1476.9 324.467L1465.31 484.686L1529.19 447.082L1476.9 324.467Z" fill="#FCFCFC"/>
<path d="M1464.87 485.828C1464.68 485.828 1464.52 485.701 1464.49 485.51L1440.62 349.568C1440.62 349.568 1440.65 349.282 1440.78 349.187L1476.39 322.5C1476.55 322.373 1476.8 322.404 1476.93 322.563C1477.02 322.658 1477.02 322.785 1477.02 322.88L1465.28 485.447C1465.28 485.637 1465.09 485.796 1464.9 485.828H1464.87ZM1441.45 349.663L1464.71 482.21L1476.17 323.674L1441.45 349.694V349.663Z" fill="#FCFCFC"/>
<path d="M1529.7 447.654C1529.54 447.654 1529.38 447.558 1529.35 447.4L1476.26 322.944C1476.17 322.754 1476.26 322.532 1476.45 322.436L1608.78 261.065C1608.94 261.002 1609.17 261.065 1609.26 261.192C1609.36 261.319 1609.39 261.51 1609.26 261.636L1530.02 447.4C1530.02 447.4 1529.83 447.654 1529.67 447.654H1529.7ZM1477.15 323.008L1529.7 446.257L1608.18 262.239L1477.15 323.008Z" fill="#FCFCFC"/>
<path d="M726.246 964.452C726.246 964.452 725.992 964.388 725.928 964.293C725.833 964.166 725.833 963.976 725.928 963.817L788.223 875.759C788.35 875.568 788.604 875.537 788.763 875.664C788.794 875.664 788.826 875.727 788.858 875.759L833.477 925.167C833.477 925.167 833.604 925.389 833.572 925.516C833.572 925.643 833.445 925.738 833.318 925.801L726.341 964.42C726.341 964.42 726.245 964.42 726.214 964.42L726.246 964.452ZM788.604 876.616L727.293 963.246L832.525 925.262L788.604 876.616Z" fill="#FCFCFC"/>
<path d="M726.245 964.452C726.245 964.452 725.992 964.388 725.928 964.261L673.439 880.455C673.439 880.455 673.344 880.169 673.439 880.074C673.503 879.947 673.629 879.884 673.788 879.852L788.54 875.6C788.54 875.6 788.731 875.6 788.826 875.663C789.016 875.79 789.048 876.044 788.921 876.203L726.594 964.261C726.594 964.261 726.404 964.42 726.277 964.42L726.245 964.452ZM674.486 880.614L726.277 963.341L787.779 876.425L674.486 880.614Z" fill="#FCFCFC"/>
<path d="M833.191 925.833C833.191 925.833 833.064 925.834 833.032 925.802C832.874 925.738 832.778 925.548 832.81 925.389L853.85 776.658C853.85 776.658 853.882 776.436 853.977 776.373C854.136 776.214 854.39 776.246 854.517 776.373L908.561 838.41C908.561 838.41 908.688 838.791 908.561 838.918L833.477 925.675C833.477 925.675 833.286 925.802 833.191 925.802V925.833ZM854.517 777.578L833.762 924.183L907.736 838.695L854.485 777.578H854.517Z" fill="#FCFCFC"/>
<path d="M833.191 925.833C833.191 925.833 832.969 925.801 832.905 925.706L788.255 876.266C788.255 876.266 788.128 875.917 788.223 875.79L853.914 776.435C853.914 776.435 854.072 776.277 854.199 776.245C854.326 776.245 854.421 776.245 854.517 776.372C854.612 776.467 854.643 776.594 854.643 776.721L833.603 925.516C833.603 925.516 833.476 925.801 833.318 925.833C833.286 925.833 833.254 925.833 833.191 925.833ZM789.048 875.949L832.937 924.532L853.628 778.307L789.08 875.949H789.048Z" fill="#FCFCFC"/>
<path d="M908.307 839.045C908.307 839.045 908.085 839.013 908.021 838.918C907.926 838.823 907.894 838.696 907.926 838.569L918.081 780.688C918.081 780.498 918.176 780.371 918.303 780.307C918.398 780.244 918.557 780.276 918.652 780.307L1032.83 818.958C1032.99 819.021 1033.12 819.18 1033.09 819.37C1033.09 819.561 1032.93 819.688 1032.74 819.719L908.338 839.013H908.275L908.307 839.045ZM918.779 781.196L908.783 838.188L1031.02 819.212L918.779 781.196Z" fill="#FCFCFC"/>
<path d="M908.307 839.045C908.307 839.045 908.085 838.981 908.021 838.918L853.977 776.88C853.977 776.88 853.85 776.595 853.914 776.436C853.977 776.277 854.168 776.182 854.294 776.214L918.462 780.244C918.462 780.244 918.652 780.244 918.716 780.339C918.843 780.434 918.906 780.561 918.874 780.72L908.719 838.695C908.719 838.695 908.592 838.981 908.434 839.013C908.402 839.013 908.37 839.013 908.338 839.013L908.307 839.045ZM855.183 777.071L908.053 837.744L917.986 781.005L855.151 777.039L855.183 777.071Z" fill="#FCFCFC"/>
<path d="M1032.71 819.75C1032.71 819.75 1032.58 819.75 1032.55 819.719C1032.42 819.655 1032.33 819.528 1032.33 819.37L1033.18 687.901C1033.18 687.742 1033.28 687.584 1033.47 687.52C1033.47 687.52 1033.72 687.52 1033.85 687.584L1112.84 750.7C1112.84 750.7 1112.99 750.89 1112.99 751.017C1112.99 751.144 1112.93 751.239 1112.87 751.335L1033.02 819.687C1033.02 819.687 1032.87 819.782 1032.77 819.782L1032.71 819.75ZM1033.98 688.694L1033.12 818.513L1111.95 751.017L1033.98 688.694Z" fill="#FCFCFC"/>
<path d="M1032.71 819.751C1032.71 819.751 1032.61 819.751 1032.58 819.751L918.335 781.069C918.335 781.069 918.081 780.91 918.081 780.751C918.081 780.593 918.081 780.466 918.208 780.371L1033.28 687.616C1033.28 687.616 1033.37 687.521 1033.44 687.521C1033.63 687.457 1033.82 687.521 1033.91 687.711C1033.98 687.806 1033.98 687.901 1033.94 687.997L1033.09 819.402C1033.09 819.402 1033.02 819.656 1032.93 819.719C1032.87 819.783 1032.77 819.783 1032.71 819.783V819.751ZM919.287 780.529L1032.33 818.799L1033.18 688.695L919.287 780.529Z" fill="#FCFCFC"/>
<path d="M1112.55 751.399C1112.55 751.399 1112.46 751.399 1112.39 751.367C1112.26 751.304 1112.17 751.177 1112.14 751.018L1107.6 625.991C1107.6 625.801 1107.7 625.642 1107.85 625.579C1108.01 625.515 1108.2 625.579 1108.33 625.706L1166.28 704.308C1166.4 704.466 1166.37 704.72 1166.21 704.847L1112.8 751.304C1112.8 751.304 1112.65 751.399 1112.55 751.399ZM1108.46 627.197L1112.93 750.161L1165.45 704.498L1108.46 627.229V627.197Z" fill="#FCFCFC"/>
<path d="M1112.55 751.399C1112.55 751.399 1112.36 751.399 1112.3 751.304L1033.31 688.187C1033.31 688.187 1033.15 687.997 1033.15 687.87C1033.15 687.743 1033.21 687.648 1033.28 687.553L1107.73 625.61C1107.73 625.61 1107.98 625.483 1108.14 625.547C1108.27 625.61 1108.36 625.737 1108.39 625.864L1112.93 750.955C1112.93 750.955 1112.87 751.24 1112.71 751.335C1112.65 751.335 1112.58 751.367 1112.52 751.367L1112.55 751.399ZM1034.2 687.87L1112.14 750.161L1107.63 626.753L1034.2 687.87Z" fill="#FCFCFC"/>
<path d="M1165.96 704.942C1165.96 704.942 1165.71 704.879 1165.64 704.783C1165.55 704.625 1165.55 704.434 1165.67 704.276L1274.17 590.419C1274.17 590.419 1274.4 590.197 1274.56 590.228C1274.65 590.228 1274.78 590.292 1274.84 590.387L1327.36 639.382C1327.36 639.382 1327.52 639.605 1327.49 639.731C1327.46 639.858 1327.36 639.985 1327.23 640.017L1166.12 704.942C1166.12 704.942 1166.02 704.942 1165.96 704.942ZM1274.56 591.149L1167.51 703.483L1326.38 639.478L1274.56 591.149Z" fill="#FCFCFC"/>
<path d="M1165.96 704.942C1165.96 704.942 1165.74 704.879 1165.67 704.783L1107.73 626.181C1107.73 626.181 1107.63 625.928 1107.66 625.801C1107.73 625.674 1107.82 625.579 1107.95 625.547L1274.46 590.197C1274.46 590.197 1274.56 590.197 1274.59 590.197C1274.75 590.197 1274.87 590.324 1274.94 590.45C1275 590.577 1274.94 590.768 1274.87 590.863L1166.31 704.815C1166.31 704.815 1166.12 704.942 1166.02 704.942H1165.96ZM1108.68 626.181L1165.99 703.927L1273.35 591.244L1108.68 626.181Z" fill="#FCFCFC"/>
<path d="M1327.08 640.016C1327.08 640.016 1326.89 640.016 1326.82 639.921C1326.7 639.826 1326.66 639.667 1326.7 639.54L1364.81 471.706C1364.84 471.516 1364.97 471.357 1365.22 471.389C1365.41 471.389 1365.57 471.547 1365.6 471.706L1364.46 623.547C1364.46 623.547 1364.36 623.833 1364.21 623.896L1327.23 639.953C1327.23 639.953 1327.14 639.985 1327.08 639.985V640.016ZM1364.75 475.419L1327.62 638.937L1363.6 623.293L1364.71 475.419H1364.75Z" fill="#FCFCFC"/>
<path d="M1327.08 640.017C1327.08 640.017 1326.89 639.985 1326.79 639.922L1274.21 590.895C1274.21 590.895 1274.05 590.514 1274.17 590.355L1364.81 471.612C1364.81 471.612 1365 471.39 1365.19 471.39C1365.38 471.39 1365.54 471.548 1365.57 471.707C1365.57 471.707 1365.57 471.866 1365.57 471.929L1327.49 639.7C1327.49 639.7 1327.36 639.954 1327.2 639.985C1327.17 639.985 1327.14 639.985 1327.08 639.985V640.017ZM1275.03 590.546L1326.82 638.843L1364.36 473.452L1275.03 590.514V590.546Z" fill="#FCFCFC"/>
<path d="M1364.05 623.929C1364.05 623.929 1363.86 623.897 1363.76 623.802C1363.63 623.675 1363.6 623.453 1363.73 623.294L1464.52 485.225C1464.52 485.225 1464.71 484.971 1464.9 485.003C1465.09 485.003 1465.25 485.161 1465.25 485.352L1470.58 545.581C1470.58 545.581 1470.52 545.866 1470.42 545.93L1364.24 623.802C1364.24 623.802 1364.08 623.865 1364.02 623.865L1364.05 623.929ZM1464.58 486.494L1365.89 621.676L1469.82 545.422L1464.58 486.462V486.494Z" fill="#FCFCFC"/>
<path d="M1364.05 623.929C1364.05 623.929 1363.95 623.929 1363.92 623.929C1363.76 623.865 1363.63 623.707 1363.63 623.548L1364.78 471.77C1364.78 471.77 1364.84 471.548 1364.9 471.485C1365 471.421 1365.09 471.39 1365.22 471.39L1464.9 485.035C1464.9 485.035 1465.12 485.13 1465.19 485.225C1465.25 485.32 1465.28 485.447 1465.22 485.542C1465.22 485.574 1465.19 485.638 1465.15 485.669L1364.33 623.77C1364.33 623.77 1364.14 623.929 1364.02 623.929H1364.05ZM1365.6 472.215L1364.46 622.31L1464.17 485.733L1365.6 472.246V472.215Z" fill="#FCFCFC"/>
<path d="M1470.23 546.056C1470.23 546.056 1469.98 545.993 1469.91 545.898C1469.82 545.771 1469.82 545.58 1469.91 545.453L1529.38 447.05C1529.38 447.05 1529.42 446.987 1529.45 446.987C1529.45 446.987 1529.64 446.892 1529.73 446.86C1529.83 446.86 1529.96 446.923 1530.02 446.987L1587.52 515.149C1587.52 515.149 1587.65 515.403 1587.59 515.53C1587.55 515.656 1587.43 515.752 1587.3 515.783L1470.33 546.025C1470.33 546.025 1470.26 546.025 1470.23 546.025V546.056ZM1529.76 447.939L1471.06 545.041L1586.47 515.212L1529.73 447.939H1529.76Z" fill="#FCFCFC"/>
<path d="M1470.23 546.056C1470.23 546.056 1470.17 546.056 1470.14 546.056C1469.98 546.024 1469.85 545.865 1469.82 545.707L1464.49 485.478C1464.49 485.478 1464.55 485.193 1464.68 485.097L1529.51 446.923C1529.67 446.828 1529.89 446.859 1530.02 447.018C1530.15 447.177 1530.11 447.367 1530.02 447.494L1470.55 545.865C1470.55 545.865 1470.36 546.056 1470.2 546.056H1470.23ZM1465.31 485.637L1470.52 544.406L1528.56 448.383L1465.31 485.637Z" fill="#FCFCFC"/>
<path d="M873.05 1024.55C873.05 1024.55 872.859 1024.55 872.796 1024.46C872.669 1024.36 872.637 1024.24 872.669 1024.08L907.926 838.632C907.926 838.632 908.021 838.379 908.148 838.315C908.339 838.22 908.561 838.315 908.656 838.474L994.942 976.257C994.942 976.257 995.006 976.479 994.974 976.606C994.942 976.733 994.847 976.797 994.752 976.86L873.208 1024.55C873.208 1024.55 873.113 1024.55 873.05 1024.55ZM908.497 839.743L873.558 1023.54L993.99 976.257L908.497 839.743Z" fill="#FCFCFC"/>
<path d="M873.049 1024.55C872.891 1024.55 872.732 1024.46 872.669 1024.3L832.842 925.579C832.842 925.579 832.842 925.294 832.905 925.167L907.989 838.41C907.989 838.41 908.211 838.251 908.37 838.283C908.497 838.283 908.624 838.41 908.656 838.537C908.656 838.6 908.656 838.664 908.656 838.727L873.398 1024.2C873.367 1024.36 873.208 1024.52 873.049 1024.52H873.018L873.049 1024.55ZM833.667 925.516L872.891 1022.78L907.64 840.06L833.667 925.548V925.516Z" fill="#FCFCFC"/>
<path d="M994.593 976.829C994.593 976.829 994.339 976.765 994.244 976.638L907.958 838.855C907.958 838.855 907.862 838.601 907.958 838.474C908.021 838.347 908.116 838.252 908.243 838.252L1032.55 818.958C1032.55 818.958 1032.71 818.927 1032.77 818.958C1032.96 818.99 1033.09 819.181 1033.09 819.371C1033.09 819.434 1033.09 819.498 1033.02 819.561L994.974 976.543C994.974 976.543 994.815 976.829 994.656 976.829H994.593ZM908.941 838.95L994.403 975.432L1032.13 819.847L908.941 838.95Z" fill="#FCFCFC"/>
<path d="M1078.12 960.739C1078.12 960.739 1077.96 960.739 1077.9 960.676C1077.77 960.581 1077.71 960.422 1077.74 960.295L1112.17 750.986C1112.17 750.796 1112.33 750.637 1112.52 750.605C1112.74 750.574 1112.93 750.701 1112.96 750.923V750.986L1132.29 930.213C1132.29 930.213 1132.23 930.53 1132.1 930.593L1078.34 960.708C1078.34 960.708 1078.21 960.771 1078.15 960.771L1078.12 960.739ZM1112.46 753.937L1078.63 959.597L1131.43 930.022L1112.46 753.969V753.937Z" fill="#FCFCFC"/>
<path d="M1078.12 960.739C1077.96 960.739 1077.8 960.644 1077.74 960.454L1032.29 819.465C1032.29 819.465 1032.29 819.148 1032.42 819.053L1112.26 750.701C1112.26 750.701 1112.52 750.574 1112.65 750.637C1112.77 750.669 1112.87 750.796 1112.9 750.923C1112.9 750.954 1112.9 751.018 1112.9 751.081L1078.47 960.422C1078.47 960.612 1078.28 960.739 1078.12 960.739ZM1033.15 819.497L1077.99 958.677L1111.98 752.002L1033.15 819.497Z" fill="#FCFCFC"/>
<path d="M1131.88 930.627C1131.88 930.627 1131.72 930.627 1131.65 930.563C1131.53 930.468 1131.46 930.309 1131.46 930.182L1165.55 704.468C1165.55 704.309 1165.71 704.15 1165.86 704.15C1165.99 704.15 1166.15 704.15 1166.21 704.277L1301.66 816.897C1301.66 816.897 1301.82 817.087 1301.78 817.214C1301.78 817.341 1301.72 817.468 1301.59 817.531L1132.04 930.563C1132.04 930.563 1131.88 930.627 1131.81 930.627H1131.88ZM1166.25 705.293L1132.42 929.421L1300.8 817.182L1166.28 705.293H1166.25Z" fill="#FCFCFC"/>
<path d="M1131.88 930.627C1131.69 930.627 1131.5 930.468 1131.5 930.277L1112.17 751.051C1112.17 751.051 1112.2 750.797 1112.3 750.702L1165.64 704.309C1165.64 704.309 1165.8 704.15 1165.9 704.15C1166.05 704.15 1166.25 704.214 1166.31 704.372C1166.31 704.372 1166.37 704.594 1166.31 704.69L1132.26 930.309C1132.26 930.5 1132.07 930.658 1131.88 930.658V930.627ZM1112.96 751.146L1131.94 927.136L1165.39 705.546L1112.96 751.146Z" fill="#FCFCFC"/>
<path d="M1301.44 817.593C1301.44 817.593 1301.24 817.593 1301.18 817.498L1165.71 704.847C1165.71 704.847 1165.55 704.625 1165.58 704.466C1165.58 704.339 1165.71 704.212 1165.83 704.149L1326.95 639.224C1326.95 639.224 1327.17 639.192 1327.27 639.224C1327.36 639.287 1327.46 639.382 1327.46 639.478C1327.46 639.541 1327.46 639.573 1327.46 639.636L1301.78 817.212C1301.78 817.212 1301.66 817.466 1301.53 817.53C1301.5 817.53 1301.44 817.53 1301.4 817.53L1301.44 817.593ZM1166.72 704.657L1301.15 816.451L1326.6 640.239L1166.72 704.657Z" fill="#FCFCFC"/>
<path d="M1501.11 688.505C1501.11 688.505 1501.01 688.505 1500.95 688.473C1500.82 688.41 1500.76 688.315 1500.73 688.188L1469.82 545.771C1469.82 545.771 1469.82 545.644 1469.82 545.581C1469.82 545.581 1469.95 545.359 1470.07 545.295C1470.2 545.232 1470.33 545.263 1470.42 545.327L1601.04 626.69C1601.04 626.69 1601.23 626.88 1601.23 627.039C1601.23 627.197 1601.17 627.293 1601.04 627.388L1501.33 688.441C1501.33 688.441 1501.2 688.505 1501.11 688.505ZM1470.77 546.501L1501.36 687.489L1600.03 627.039L1470.74 546.501H1470.77Z" fill="#FCFCFC"/>
<path d="M1501.11 688.505C1501.11 688.505 1500.98 688.505 1500.95 688.473L1363.89 623.929C1363.89 623.929 1363.67 623.738 1363.67 623.612C1363.67 623.485 1363.73 623.326 1363.82 623.262L1470.01 545.39C1470.01 545.39 1470.33 545.295 1470.45 545.39C1470.55 545.454 1470.61 545.581 1470.61 545.708L1501.52 688.061C1501.52 688.061 1501.52 688.346 1501.39 688.441C1501.33 688.505 1501.24 688.537 1501.14 688.537L1501.11 688.505ZM1364.81 623.485L1500.57 687.426L1469.95 546.374L1364.81 623.485Z" fill="#FCFCFC"/>
<path d="M1600.82 627.42C1600.82 627.42 1600.66 627.42 1600.6 627.356L1469.98 545.994C1469.98 545.994 1469.75 545.74 1469.79 545.613C1469.79 545.454 1469.91 545.327 1470.07 545.295L1586.95 515.086H1587.01C1587.2 514.991 1587.39 515.086 1587.49 515.276C1587.49 515.276 1587.52 515.403 1587.52 515.467L1601.14 627.007C1601.14 627.007 1601.07 627.293 1600.95 627.388C1600.88 627.42 1600.82 627.451 1600.72 627.451L1600.82 627.42ZM1471.21 545.803L1600.34 626.246L1586.89 515.911L1471.25 545.803H1471.21Z" fill="#FCFCFC"/>
<path d="M34.9392 873.823C30.179 873.823 26.3391 877.662 26.3391 882.422C26.3391 887.182 30.179 891.022 34.9392 891.022C39.6994 891.022 43.5393 887.182 43.5393 882.422C43.5393 877.662 39.6994 873.823 34.9392 873.823Z" fill="#FCFCFC"/>
<path d="M163.782 731.312C166.235 731.312 168.225 729.323 168.225 726.87C168.225 724.416 166.235 722.427 163.782 722.427C161.328 722.427 159.339 724.416 159.339 726.87C159.339 729.323 161.328 731.312 163.782 731.312Z" fill="#FCFCFC"/>
<path d="M16.5016 759.079C18.78 759.079 20.6271 757.232 20.6271 754.954C20.6271 752.676 18.78 750.829 16.5016 750.829C14.2231 750.829 12.3761 752.676 12.3761 754.954C12.3761 757.232 14.2231 759.079 16.5016 759.079Z" fill="#FCFCFC"/>
<path d="M427.56 702.753C427.56 697.929 423.625 693.995 418.801 693.995C413.977 693.995 410.042 697.929 410.042 702.753C410.042 707.576 413.977 711.511 418.801 711.511C423.625 711.511 427.56 707.576 427.56 702.753Z" fill="#FCFCFC"/>
<path d="M320.455 606.286C326.116 606.286 330.706 601.697 330.706 596.036C330.706 590.375 326.116 585.786 320.455 585.786C314.794 585.786 310.205 590.375 310.205 596.036C310.205 601.697 314.794 606.286 320.455 606.286Z" fill="#FCFCFC"/>
<path d="M440.983 514.292C442.631 514.292 443.966 512.956 443.966 511.309C443.966 509.662 442.631 508.326 440.983 508.326C439.336 508.326 438 509.662 438 511.309C438 512.956 439.336 514.292 440.983 514.292Z" fill="#FCFCFC"/>
<path d="M626.789 381.174C629.278 381.174 631.296 379.156 631.296 376.668C631.296 374.179 629.278 372.162 626.789 372.162C624.301 372.162 622.283 374.179 622.283 376.668C622.283 379.156 624.301 381.174 626.789 381.174Z" fill="#FCFCFC"/>
<path d="M695.971 362.007C693.337 362.007 691.179 364.134 691.179 366.799C691.179 369.465 693.305 371.591 695.971 371.591C698.637 371.591 700.763 369.465 700.763 366.799C700.763 364.134 698.637 362.007 695.971 362.007Z" fill="#FCFCFC"/>
<path d="M817.102 279.692C813.706 279.692 810.977 282.421 810.977 285.816C810.977 289.212 813.706 291.941 817.102 291.941C820.497 291.941 823.226 289.212 823.226 285.816C823.226 282.421 820.497 279.692 817.102 279.692Z" fill="#FCFCFC"/>
<path d="M971.808 268.808C975.173 268.808 977.901 266.08 977.901 262.715C977.901 259.35 975.173 256.623 971.808 256.623C968.443 256.623 965.715 259.35 965.715 262.715C965.715 266.08 968.443 268.808 971.808 268.808Z" fill="#FCFCFC"/>
<path d="M890.726 412.684C886.568 412.684 883.204 416.048 883.204 420.205C883.204 424.362 886.568 427.726 890.726 427.726C894.883 427.726 898.247 424.362 898.247 420.205C898.247 416.048 894.883 412.684 890.726 412.684Z" fill="#FCFCFC"/>
<path d="M1111.47 115.253C1114.26 115.253 1116.55 112.969 1116.55 110.176C1116.55 107.384 1114.26 105.099 1111.47 105.099C1108.68 105.099 1106.39 107.384 1106.39 110.176C1106.39 112.969 1108.68 115.253 1111.47 115.253Z" fill="#FCFCFC"/>
<path d="M1017.54 165.01C1017.54 162.757 1015.73 160.948 1013.48 160.948C1011.22 160.948 1009.41 162.757 1009.41 165.01C1009.41 167.263 1011.22 169.072 1013.48 169.072C1015.73 169.072 1017.54 167.263 1017.54 165.01Z" fill="#FCFCFC"/>
<path d="M1255.55 154.284C1252.82 154.284 1250.6 156.505 1250.6 159.234C1250.6 161.963 1252.82 164.185 1255.55 164.185C1258.28 164.185 1260.5 161.963 1260.5 159.234C1260.5 156.505 1258.28 154.284 1255.55 154.284Z" fill="#FCFCFC"/>
<path d="M1385.94 95.1028C1382.96 95.1028 1380.58 97.5145 1380.58 100.466C1380.58 103.417 1382.99 105.828 1385.94 105.828C1388.9 105.828 1391.31 103.417 1391.31 100.466C1391.31 97.5145 1388.9 95.1028 1385.94 95.1028Z" fill="#FCFCFC"/>
<path d="M2.95074 1004.85C0.0628934 1004.85 -2.3172 1007.2 -2.3172 1010.12C-2.3172 1013.04 0.0311589 1015.38 2.95074 1015.38C5.87032 1015.38 8.21868 1013.04 8.21868 1010.12C8.21868 1007.2 5.87032 1004.85 2.95074 1004.85Z" fill="#FCFCFC"/>
<path d="M138.584 769.836C134.205 769.836 130.651 773.39 130.651 777.769C130.651 782.148 134.205 785.702 138.584 785.702C142.964 785.702 146.518 782.148 146.518 777.769C146.518 773.39 142.964 769.836 138.584 769.836Z" fill="#FCFCFC"/>
<path d="M276.947 714.462C274.155 714.462 271.901 716.715 271.901 719.508C271.901 722.3 274.155 724.553 276.947 724.553C279.74 724.553 281.993 722.3 281.993 719.508C281.993 716.715 279.74 714.462 276.947 714.462Z" fill="#FCFCFC"/>
<path d="M266.76 862.335C262.952 862.335 259.874 865.413 259.874 869.221C259.874 873.029 262.952 876.107 266.76 876.107C270.569 876.107 273.647 873.029 273.647 869.221C273.647 865.413 270.569 862.335 266.76 862.335Z" fill="#FCFCFC"/>
<path d="M373.452 823.941C370.247 823.941 367.676 826.543 367.676 829.716C367.676 832.889 370.279 835.491 373.452 835.491C376.625 835.491 379.228 832.889 379.228 829.716C379.228 826.543 376.625 823.941 373.452 823.941Z" fill="#FCFCFC"/>
<path d="M481.762 591.371C477.097 591.371 473.289 595.148 473.289 599.844C473.289 604.541 477.066 608.317 481.762 608.317C486.459 608.317 490.235 604.541 490.235 599.844C490.235 595.148 486.459 591.371 481.762 591.371Z" fill="#FCFCFC"/>
<path d="M521.272 757.301C518.86 757.301 516.892 759.269 516.892 761.68C516.892 764.092 518.86 766.059 521.272 766.059C523.683 766.059 525.651 764.092 525.651 761.68C525.651 759.269 523.683 757.301 521.272 757.301Z" fill="#FCFCFC"/>
<path d="M591.945 536.314C587.819 536.314 584.487 539.646 584.487 543.772C584.487 547.897 587.819 551.229 591.945 551.229C596.07 551.229 599.402 547.897 599.402 543.772C599.402 539.646 596.07 536.314 591.945 536.314Z" fill="#FCFCFC"/>
<path d="M739.415 517.403C735.988 517.403 733.227 520.163 733.227 523.591C733.227 527.018 735.988 529.778 739.415 529.778C742.843 529.778 745.604 527.018 745.604 523.591C745.604 520.163 742.843 517.403 739.415 517.403Z" fill="#FCFCFC"/>
<path d="M788.382 435.596C788.382 431.344 784.954 427.916 780.702 427.916C776.449 427.916 773.022 431.344 773.022 435.596C773.022 439.848 776.449 443.275 780.702 443.275C784.954 443.275 788.382 439.848 788.382 435.596Z" fill="#FCFCFC"/>
<path d="M1027.69 318.851C1031.34 318.851 1034.29 315.9 1034.29 312.251C1034.29 308.601 1031.34 305.65 1027.69 305.65C1024.04 305.65 1021.09 308.601 1021.09 312.251C1021.09 315.9 1024.04 318.851 1027.69 318.851Z" fill="#FCFCFC"/>
<path d="M1110.33 315.677C1115.79 315.677 1120.2 311.266 1120.2 305.808C1120.2 300.35 1115.79 295.939 1110.33 295.939C1104.87 295.939 1100.46 300.35 1100.46 305.808C1100.46 311.266 1104.87 315.677 1110.33 315.677Z" fill="#FCFCFC"/>
<path d="M1176.59 206.707C1175.45 206.707 1174.53 207.627 1174.53 208.77C1174.53 209.912 1175.45 210.832 1176.59 210.832C1177.73 210.832 1178.65 209.912 1178.65 208.77C1178.65 207.627 1177.73 206.707 1176.59 206.707Z" fill="#FCFCFC"/>
<path d="M1139.3 350.583C1136.22 350.583 1133.72 353.09 1133.72 356.168C1133.72 359.246 1136.22 361.753 1139.3 361.753C1142.38 361.753 1144.89 359.246 1144.89 356.168C1144.89 353.09 1142.38 350.583 1139.3 350.583Z" fill="#FCFCFC"/>
<path d="M1450.05 61.0853C1448.3 61.0853 1446.87 62.5133 1446.87 64.2586C1446.87 66.0039 1448.3 67.4318 1450.05 67.4318C1451.79 67.4318 1453.22 66.0039 1453.22 64.2586C1453.22 62.5133 1451.79 61.0853 1450.05 61.0853Z" fill="#FCFCFC"/>
<path d="M176.317 948.523C176.031 948.46 175.714 948.428 175.396 948.428C172.889 948.428 170.89 950.459 170.89 952.934C170.89 954.172 171.398 955.314 172.223 956.139C173.048 956.964 174.159 957.472 175.428 957.472C177.935 957.472 179.966 955.441 179.966 952.934C179.966 950.745 178.411 948.936 176.348 948.492L176.317 948.523Z" fill="#FCFCFC"/>
<path d="M327.501 973.623C324.137 973.623 321.407 976.352 321.407 979.716C321.407 983.079 324.137 985.808 327.501 985.808C330.864 985.808 333.594 983.079 333.594 979.716C333.594 976.352 330.864 973.623 327.501 973.623Z" fill="#FCFCFC"/>
<path d="M383.48 905.113C381.1 905.113 379.164 907.049 379.164 909.429C379.164 911.809 381.1 913.745 383.48 913.745C385.86 913.745 387.796 911.809 387.796 909.429C387.796 907.049 385.86 905.113 383.48 905.113Z" fill="#FCFCFC"/>
<path d="M435.43 820.766C437.428 820.766 439.047 819.146 439.047 817.148C439.047 815.15 437.428 813.53 435.43 813.53C433.432 813.53 431.812 815.15 431.812 817.148C431.812 819.146 433.432 820.766 435.43 820.766Z" fill="#FCFCFC"/>
<path d="M501.945 828.891C505.941 828.891 509.181 825.652 509.181 821.656C509.181 817.66 505.941 814.421 501.945 814.421C497.949 814.421 494.71 817.66 494.71 821.656C494.71 825.652 497.949 828.891 501.945 828.891Z" fill="#FCFCFC"/>
<path d="M655.414 825.369C655.414 821.847 652.558 818.991 649.035 818.991C645.513 818.991 642.656 821.847 642.656 825.369C642.656 828.891 645.513 831.747 649.035 831.747C652.558 831.747 655.414 828.891 655.414 825.369Z" fill="#FCFCFC"/>
<path d="M643.006 683.681C645.757 683.681 647.988 681.451 647.988 678.699C647.988 675.948 645.757 673.717 643.006 673.717C640.254 673.717 638.023 675.948 638.023 678.699C638.023 681.451 640.254 683.681 643.006 683.681Z" fill="#FCFCFC"/>
<path d="M728.435 582.739C731.038 582.739 733.164 580.613 733.164 578.011C733.164 575.409 731.038 573.283 728.435 573.283C725.833 573.283 723.707 575.409 723.707 578.011C723.707 580.613 725.833 582.739 728.435 582.739Z" fill="#FCFCFC"/>
<path d="M786.414 548.595C786.414 546.532 784.732 544.882 782.701 544.882C780.67 544.882 778.988 546.564 778.988 548.595C778.988 550.626 780.67 552.308 782.701 552.308C784.732 552.308 786.414 550.626 786.414 548.595Z" fill="#FCFCFC"/>
<path d="M848.011 692.502C848.011 689.646 845.694 687.329 842.838 687.329C839.982 687.329 837.665 689.646 837.665 692.502C837.665 695.358 839.982 697.674 842.838 697.674C845.694 697.674 848.011 695.358 848.011 692.502Z" fill="#FCFCFC"/>
<path d="M966.476 461.298C961.875 461.298 958.162 465.011 958.162 469.612C958.162 474.213 961.875 477.926 966.476 477.926C971.078 477.926 974.791 474.213 974.791 469.612C974.791 465.011 971.078 461.298 966.476 461.298Z" fill="#FCFCFC"/>
<path d="M1057.9 418.364C1060.66 418.364 1062.89 416.133 1062.89 413.382C1062.89 410.63 1060.66 408.4 1057.9 408.4C1055.15 408.4 1052.92 410.63 1052.92 413.382C1052.92 416.133 1055.15 418.364 1057.9 418.364Z" fill="#FCFCFC"/>
<path d="M1219.72 479.164C1217.21 479.164 1215.18 481.195 1215.18 483.702C1215.18 486.209 1217.21 488.239 1219.72 488.239C1222.23 488.239 1224.26 486.209 1224.26 483.702C1224.26 481.195 1222.23 479.164 1219.72 479.164Z" fill="#FCFCFC"/>
<path d="M1190.3 326.974C1186.68 326.974 1183.73 329.925 1183.73 333.543C1183.73 337.16 1186.68 340.112 1190.3 340.112C1193.92 340.112 1196.87 337.16 1196.87 333.543C1196.87 329.925 1193.92 326.974 1190.3 326.974Z" fill="#FCFCFC"/>
<path d="M1310.35 254.179C1307.97 254.179 1306 256.115 1306 258.527C1306 260.938 1307.94 262.874 1310.35 262.874C1312.76 262.874 1314.7 260.938 1314.7 258.527C1314.7 256.115 1312.76 254.179 1310.35 254.179Z" fill="#FCFCFC"/>
<path d="M1501.33 205.565C1501.33 201.979 1498.41 199.059 1494.83 199.059C1491.24 199.059 1488.32 201.979 1488.32 205.565C1488.32 209.151 1491.24 212.07 1494.83 212.07C1498.41 212.07 1501.33 209.151 1501.33 205.565Z" fill="#FCFCFC"/>
<path d="M556.053 1003.07C556.053 1001.01 554.371 999.328 552.308 999.328C550.245 999.328 548.563 1001.01 548.563 1003.07C548.563 1005.13 550.245 1006.82 552.308 1006.82C554.371 1006.82 556.053 1005.13 556.053 1003.07Z" fill="#FCFCFC"/>
<path d="M719.771 740.356C721.961 740.356 723.738 738.579 723.738 736.39C723.738 734.2 721.961 732.423 719.771 732.423C717.582 732.423 715.805 734.2 715.805 736.39C715.805 738.579 717.582 740.356 719.771 740.356Z" fill="#FCFCFC"/>
<path d="M854.263 785.893C859.38 785.893 863.529 781.744 863.529 776.627C863.529 771.509 859.38 767.361 854.263 767.361C849.145 767.361 844.996 771.509 844.996 776.627C844.996 781.744 849.145 785.893 854.263 785.893Z" fill="#FCFCFC"/>
<path d="M870.638 655.059C874.476 655.059 877.588 651.947 877.588 648.109C877.588 644.271 874.476 641.16 870.638 641.16C866.799 641.16 863.688 644.271 863.688 648.109C863.688 651.947 866.799 655.059 870.638 655.059Z" fill="#FCFCFC"/>
<path d="M918.462 772.151C913.765 772.151 909.957 775.959 909.957 780.655C909.957 785.352 913.765 789.16 918.462 789.16C923.159 789.16 926.967 785.352 926.967 780.655C926.967 775.959 923.159 772.151 918.462 772.151Z" fill="#FCFCFC"/>
<path d="M1128.45 528.698C1128.45 525.715 1126.04 523.304 1123.05 523.304C1120.07 523.304 1117.66 525.715 1117.66 528.698C1117.66 531.681 1120.07 534.093 1123.05 534.093C1126.04 534.093 1128.45 531.681 1128.45 528.698Z" fill="#FCFCFC"/>
<path d="M1018.62 582.676C1014.27 582.676 1010.75 586.198 1010.75 590.545C1010.75 594.893 1014.27 598.415 1018.62 598.415C1022.96 598.415 1026.49 594.893 1026.49 590.545C1026.49 586.198 1022.96 582.676 1018.62 582.676Z" fill="#FCFCFC"/>
<path d="M1365.19 481.068C1370.33 481.068 1374.49 476.905 1374.49 471.77C1374.49 466.635 1370.33 462.473 1365.19 462.473C1360.05 462.473 1355.89 466.635 1355.89 471.77C1355.89 476.905 1360.05 481.068 1365.19 481.068Z" fill="#FCFCFC"/>
<path d="M1319.08 348.679C1316.57 348.679 1314.51 350.71 1314.51 353.248C1314.51 355.787 1316.54 357.818 1319.08 357.818C1321.62 357.818 1323.65 355.787 1323.65 353.248C1323.65 350.71 1321.62 348.679 1319.08 348.679Z" fill="#FCFCFC"/>
<path d="M1441 352.837C1442.86 352.837 1444.37 351.331 1444.37 349.473C1444.37 347.615 1442.86 346.109 1441 346.109C1439.15 346.109 1437.64 347.615 1437.64 349.473C1437.64 351.331 1439.15 352.837 1441 352.837Z" fill="#FCFCFC"/>
<path d="M1476.61 327.418C1479.15 327.418 1481.21 325.358 1481.21 322.817C1481.21 320.276 1479.15 318.216 1476.61 318.216C1474.07 318.216 1472.01 320.276 1472.01 322.817C1472.01 325.358 1474.07 327.418 1476.61 327.418Z" fill="#FCFCFC"/>
<path d="M673.788 872.364C669.472 872.364 665.949 875.886 665.949 880.202C665.949 884.517 669.472 888.039 673.788 888.039C678.104 888.039 681.626 884.517 681.626 880.202C681.626 875.886 678.104 872.364 673.788 872.364Z" fill="#FCFCFC"/>
<path d="M833.191 921.709C831.128 921.709 829.478 923.359 829.478 925.422C829.478 927.485 831.128 929.135 833.191 929.135C835.254 929.135 836.904 927.485 836.904 925.422C836.904 923.359 835.254 921.709 833.191 921.709Z" fill="#FCFCFC"/>
<path d="M726.245 952.997C720.121 952.997 715.17 957.947 715.17 964.071C715.17 970.196 720.121 975.146 726.245 975.146C732.37 975.146 737.321 970.196 737.321 964.071C737.321 957.947 732.37 952.997 726.245 952.997Z" fill="#FCFCFC"/>
<path d="M788.54 869.16C784.764 869.16 781.718 872.206 781.718 875.982C781.718 879.758 784.764 882.805 788.54 882.805C792.317 882.805 795.363 879.758 795.363 875.982C795.363 872.206 792.317 869.16 788.54 869.16Z" fill="#FCFCFC"/>
<path d="M1033.56 695.264C1037.65 695.264 1040.96 691.954 1040.96 687.871C1040.96 683.787 1037.65 680.477 1033.56 680.477C1029.48 680.477 1026.17 683.787 1026.17 687.871C1026.17 691.954 1029.48 695.264 1033.56 695.264Z" fill="#FCFCFC"/>
<path d="M1274.52 584.105C1270.94 584.105 1268.05 587.024 1268.05 590.578C1268.05 594.132 1270.97 597.052 1274.52 597.052C1278.08 597.052 1281 594.132 1281 590.578C1281 587.024 1278.08 584.105 1274.52 584.105Z" fill="#FCFCFC"/>
<path d="M1118.07 625.928C1118.07 620.375 1113.57 615.837 1107.98 615.837C1102.4 615.837 1097.89 620.343 1097.89 625.928C1097.89 631.513 1102.4 636.019 1107.98 636.019C1113.57 636.019 1118.07 631.513 1118.07 625.928Z" fill="#FCFCFC"/>
<path d="M1471.12 485.415C1471.12 481.956 1468.33 479.164 1464.87 479.164C1461.41 479.164 1458.62 481.956 1458.62 485.415C1458.62 488.874 1461.41 491.667 1464.87 491.667C1468.33 491.667 1471.12 488.874 1471.12 485.415Z" fill="#FCFCFC"/>
<path d="M1364.05 619.613C1361.89 619.613 1360.11 621.39 1360.11 623.548C1360.11 625.706 1361.89 627.483 1364.05 627.483C1366.21 627.483 1367.98 625.706 1367.98 623.548C1367.98 621.39 1366.21 619.613 1364.05 619.613Z" fill="#FCFCFC"/>
<path d="M1470.23 541.074C1467.69 541.074 1465.63 543.137 1465.63 545.676C1465.63 548.214 1467.69 550.277 1470.23 550.277C1472.77 550.277 1474.83 548.214 1474.83 545.676C1474.83 543.137 1472.77 541.074 1470.23 541.074Z" fill="#FCFCFC"/>
<path d="M994.593 973.085C992.752 973.085 991.229 974.576 991.229 976.448C991.229 978.321 992.721 979.812 994.593 979.812C996.465 979.812 997.957 978.321 997.957 976.448C997.957 974.576 996.465 973.085 994.593 973.085Z" fill="#FCFCFC"/>
<path d="M873.05 1028.36C875.381 1028.36 877.27 1026.47 877.27 1024.14C877.27 1021.81 875.381 1019.92 873.05 1019.92C870.719 1019.92 868.829 1021.81 868.829 1024.14C868.829 1026.47 870.719 1028.36 873.05 1028.36Z" fill="#FCFCFC"/>
<path d="M908.307 834.317C905.895 834.317 903.959 836.252 903.959 838.664C903.959 841.076 905.895 843.011 908.307 843.011C910.718 843.011 912.654 841.076 912.654 838.664C912.654 836.252 910.718 834.317 908.307 834.317Z" fill="#FCFCFC"/>
<path d="M1112.55 740.546C1106.77 740.546 1102.11 745.21 1102.11 750.986C1102.11 756.761 1106.77 761.426 1112.55 761.426C1118.33 761.426 1122.99 756.761 1122.99 750.986C1122.99 745.21 1118.33 740.546 1112.55 740.546Z" fill="#FCFCFC"/>
<path d="M1131.88 925.135C1129.05 925.135 1126.77 927.42 1126.77 930.244C1126.77 933.068 1129.05 935.353 1131.88 935.353C1134.7 935.353 1136.99 933.068 1136.99 930.244C1136.99 927.42 1134.7 925.135 1131.88 925.135Z" fill="#FCFCFC"/>
<path d="M1078.12 962.771C1079.45 962.771 1080.53 961.692 1080.53 960.36C1080.53 959.028 1079.45 957.948 1078.12 957.948C1076.79 957.948 1075.71 959.028 1075.71 960.36C1075.71 961.692 1076.79 962.771 1078.12 962.771Z" fill="#FCFCFC"/>
<path d="M1032.71 813.341C1029.41 813.341 1026.71 816.039 1026.71 819.339C1026.71 822.639 1029.41 825.336 1032.71 825.336C1036.01 825.336 1038.7 822.639 1038.7 819.339C1038.7 816.039 1036.01 813.341 1032.71 813.341Z" fill="#FCFCFC"/>
<path d="M1165.96 697.898C1162.31 697.898 1159.33 700.881 1159.33 704.53C1159.33 708.179 1162.31 711.162 1165.96 711.162C1169.61 711.162 1172.59 708.179 1172.59 704.53C1172.59 700.881 1169.61 697.898 1165.96 697.898Z" fill="#FCFCFC"/>
<path d="M1301.43 812.42C1298.8 812.42 1296.67 814.546 1296.67 817.18C1296.67 819.814 1298.8 821.94 1301.43 821.94C1304.07 821.94 1306.19 819.814 1306.19 817.18C1306.19 814.546 1304.07 812.42 1301.43 812.42Z" fill="#FCFCFC"/>
<path d="M1327.11 634.845C1324.47 634.845 1322.32 636.971 1322.32 639.637C1322.32 642.302 1324.44 644.397 1327.11 644.397C1329.77 644.397 1331.87 642.271 1331.87 639.637C1331.87 637.003 1329.74 634.845 1327.11 634.845Z" fill="#FCFCFC"/>
<path d="M1501.11 691.456C1502.97 691.456 1504.47 689.95 1504.47 688.093C1504.47 686.235 1502.97 684.729 1501.11 684.729C1499.25 684.729 1497.74 686.235 1497.74 688.093C1497.74 689.95 1499.25 691.456 1501.11 691.456Z" fill="#FCFCFC"/>
</g>
</svg>
