<svg width="130" height="126" viewBox="0 0 130 126" fill="none" xmlns="http://www.w3.org/2000/svg">
<path d="M87.3978 41.1002C86.795 41.5271 86.155 41.8706 85.5151 42.1954C79.2548 45.3234 71.492 43.5042 67.337 37.6009C62.7646 31.0943 64.3228 22.1094 70.8242 17.5242C71.3992 17.1251 71.9835 16.7909 72.5864 16.4846C78.8745 13.2731 86.7115 15.0738 90.8851 21.0142C95.4667 27.5208 93.8993 36.5149 87.3978 41.1002ZM108.535 31.2335L107.718 22.2301L100.948 21.701C100.447 20.2345 99.7793 18.8144 98.9539 17.4407L102.849 11.9179L96.4498 5.54128L90.9778 9.44896C89.6052 8.62287 88.1491 7.95457 86.6466 7.43479L86.0901 0.770396L77.0938 0L75.4337 6.46019C73.8477 6.7108 72.2896 7.13777 70.7686 7.72253L66.1035 3.01661L65.8902 3.16512L58.7117 8.21447L61.5775 14.2198C60.5109 15.4636 59.5927 16.8002 58.823 18.2018L52.2195 17.5985L49.9008 26.3234L55.9942 29.108C55.9757 30.7045 56.1333 32.301 56.4487 33.8882L50.9581 37.6937L54.7978 45.8711L61.3085 44.0704C62.3287 45.3049 63.4602 46.4094 64.6752 47.384L62.8945 53.8999L71.0932 57.7055L74.9607 52.0714C76.4817 52.3498 78.0398 52.4798 79.5979 52.4519L82.4545 58.6337L91.1726 56.2761L90.8387 52.7954L90.5141 49.4446C91.1633 49.0733 91.8032 48.6742 92.4246 48.2379C93.0738 47.7739 93.6952 47.2819 94.2981 46.7714L100.475 49.6859L105.641 42.2697L100.753 37.4617C101.3 36.0137 101.69 34.5008 101.94 32.9785L108.535 31.2335Z" fill="#FB4B00"/>
<path d="M108.602 108.084C108 108.52 107.359 108.88 106.719 109.212C100.458 112.397 92.6941 110.539 88.5384 104.52C83.9654 97.8747 85.5237 88.6892 92.0262 84.0064C92.6013 83.5988 93.195 83.2575 93.7887 82.9447C100.078 79.6743 107.916 81.5039 112.09 87.5801C116.673 94.2252 115.105 103.401 108.602 108.084ZM129.742 98.0169L128.935 88.8219L122.155 88.2721C121.654 86.7839 120.986 85.324 120.17 83.9211L124.066 78.2809L117.656 71.7685L112.183 75.7594C110.81 74.9252 109.354 74.2332 107.851 73.7023L107.304 66.9056L98.2968 66.1188L96.6364 72.7165C95.0595 72.9724 93.4918 73.399 91.9706 73.9962L87.3047 69.1902L87.0914 69.3418L79.9117 74.4986L82.778 80.6412C81.7113 81.902 80.793 83.267 80.0231 84.6984L73.4185 84.0822L71.1088 93.0023L77.1939 95.8367C77.1846 97.4671 77.333 99.107 77.6484 100.719L72.157 104.615L75.9973 112.966L82.509 111.117C83.5294 112.378 84.6611 113.516 85.8762 114.502L84.0952 121.166L92.2952 125.043L96.1633 119.298C97.6846 119.582 99.243 119.715 100.811 119.677L103.658 126L112.378 123.592L112.044 120.037L111.719 116.615C112.369 116.236 113.009 115.819 113.63 115.374C114.289 114.9 114.91 114.407 115.504 113.876L121.682 116.862L126.848 109.288L121.96 104.378C122.507 102.889 122.906 101.354 123.157 99.7896L129.742 98.0169Z" fill="#D84100"/>
<path d="M44.6796 94.7487C43.9541 95.2698 43.2006 95.6962 42.4285 96.0847C34.9679 99.8746 25.7213 97.667 20.7724 90.5134C15.3211 82.6209 17.1816 71.7248 24.9306 66.163C25.6096 65.6703 26.3166 65.2724 27.0329 64.8934C34.5121 61.0087 43.861 63.1879 48.8378 70.3983C54.2891 78.2909 52.4286 89.187 44.6796 94.7487ZM69.8614 82.7914L68.8939 71.8669L60.8287 71.2226C60.224 69.4508 59.4333 67.7264 58.4473 66.0588L63.0892 59.3601L55.4612 51.6286L48.9402 56.366C47.3029 55.3617 45.5727 54.5468 43.7773 53.9215L43.1261 45.8394L32.4004 44.9109L30.419 52.7466C28.5306 53.0498 26.6701 53.5614 24.8561 54.2721L19.2933 48.5587L19.0421 48.7387L10.4932 54.869L13.9072 62.1552C12.642 63.6522 11.5443 65.2819 10.6234 66.9779L2.75352 66.2483L0 76.8412L7.25591 80.2048C7.2373 82.1471 7.41405 84.08 7.79545 86.0034L1.24653 90.6271L5.82333 100.538L13.5909 98.3492C14.8095 99.8462 16.149 101.192 17.6002 102.367L15.4793 110.278L25.2468 114.892L29.8516 108.061C31.6748 108.393 33.526 108.554 35.3865 108.516L38.7912 116.02L49.1727 113.158L48.7727 108.933L48.382 104.877C49.1634 104.423 49.9262 103.93 50.6611 103.409C51.4425 102.84 52.1867 102.253 52.8937 101.627L60.2612 105.171L66.4102 96.1794L60.5868 90.3429C61.2473 88.5806 61.7124 86.7519 62.0101 84.8948L69.8614 82.7914Z" fill="#FCFCFC"/>
</svg>
