<svg width="165" height="115" viewBox="0 0 165 115" fill="none" xmlns="http://www.w3.org/2000/svg">
<path d="M147.229 0H17.0035C13.5611 0 10.7371 2.93791 10.7371 6.53056V87.6505C10.7371 91.2431 13.5611 94.181 17.0035 94.181H147.229C150.672 94.181 153.496 91.2431 153.496 87.6505V6.53056C153.496 2.93791 150.672 0 147.229 0Z" fill="#FB4B00"/>
<path d="M143.055 5.94827H20.7462C17.9691 5.94827 15.6939 8.22775 15.6939 11.023V85.181C15.6939 86.8282 16.497 88.2924 17.7182 89.2241L145.565 6.63045C144.812 6.19785 143.959 5.94827 143.055 5.94827Z" fill="#FCFCFC"/>
<path d="M145.069 6.44397L17.181 88.7285C18.0373 89.3823 18.5826 90.2155 19.7243 90.2155H142.477C145.264 90.2155 147.547 87.9185 147.547 85.1018V10.3746C147.547 8.47999 146.58 7.31582 145.069 6.44397Z" fill="#FCFCFC"/>
<path d="M96.4019 34.8141C96.0366 35.0727 95.6489 35.2808 95.2612 35.4776C91.4684 37.3727 86.7654 36.2705 84.2481 32.6941C81.478 28.7521 82.422 23.3087 86.3608 20.5307C86.7092 20.2889 87.0632 20.0865 87.4284 19.9009C91.2381 17.9552 95.9861 19.0461 98.5146 22.6451C101.29 26.5871 100.341 32.0361 96.4019 34.8141ZM109.207 28.8364L108.713 23.3818L104.611 23.0612C104.308 22.1727 103.903 21.3124 103.403 20.4801L105.763 17.1342L101.886 13.271L98.5708 15.6384C97.7392 15.1379 96.857 14.733 95.9467 14.4181L95.6096 10.3805L90.1592 9.9138L89.1534 13.8277C88.1926 13.9795 87.2486 14.2382 86.3271 14.5924L83.5008 11.7414L83.3716 11.8314L79.0225 14.8905L80.7588 18.5288C80.1126 19.2823 79.5563 20.0921 79.09 20.9412L75.0893 20.5757L73.6846 25.8617L77.3762 27.5487C77.365 28.5159 77.4605 29.4831 77.6515 30.4447L74.3251 32.7503L76.6514 37.7045L80.5958 36.6135C81.2139 37.3614 81.8994 38.0306 82.6355 38.6211L81.5567 42.5687L86.5238 44.8743L88.8669 41.4609C89.7884 41.6296 90.7324 41.7083 91.6763 41.6914L93.407 45.4366L98.6887 44.0083L98.4865 41.8995L98.2898 39.8695C98.6831 39.6445 99.0708 39.4027 99.4473 39.1384C99.8406 38.8573 100.217 38.5592 100.582 38.2499L104.325 40.0157L107.454 35.5226L104.493 32.6097C104.825 31.7325 105.061 30.8158 105.212 29.8936L109.207 28.8364Z" fill="#FB4B00"/>
<path d="M109.249 75.3957C108.883 75.6599 108.496 75.8781 108.108 76.0791C104.314 78.0088 99.6107 76.8831 97.093 73.2363C94.3225 69.2105 95.2666 63.6455 99.2061 60.8085C99.5545 60.5615 99.9142 60.3548 100.274 60.1652C104.084 58.1839 108.833 59.2923 111.362 62.9736C114.138 66.9994 113.188 72.5587 109.249 75.3957ZM122.056 69.2966L121.567 63.7259L117.459 63.3928C117.156 62.4912 116.751 61.6067 116.257 60.7568L118.617 57.3397L114.734 53.3942L111.418 55.812C110.586 55.3067 109.704 54.8874 108.793 54.5658L108.462 50.4481L103.005 49.9714L101.999 53.9685C101.044 54.1236 100.094 54.382 99.1724 54.7438L96.3456 51.8321L96.2163 51.924L91.8666 55.0482L93.6031 58.7697C92.9569 59.5335 92.4005 60.3605 91.9341 61.2277L87.9327 60.8544L86.5334 66.2586L90.22 67.9757C90.2144 68.9635 90.3043 69.9571 90.4954 70.9334L87.1685 73.2938L89.4951 78.3534L93.4402 77.2335C94.0583 77.9973 94.744 78.6865 95.4801 79.2837L94.4011 83.3211L99.3691 85.67L101.713 82.1897C102.634 82.362 103.578 82.4424 104.528 82.4194L106.253 86.25L111.536 84.7913L111.334 82.6376L111.137 80.5644C111.53 80.3347 111.918 80.082 112.295 79.8121C112.694 79.5249 113.07 79.2263 113.43 78.9047L117.173 80.7137L120.303 76.1251L117.341 73.1502C117.673 72.2485 117.914 71.3182 118.066 70.3706L122.056 69.2966Z" fill="#D84100"/>
<path d="M70.5214 67.3166C70.0818 67.6324 69.6253 67.8907 69.1576 68.126C64.6376 70.4221 59.0356 69.0846 56.0374 64.7507C52.7348 59.9691 53.8619 53.3677 58.5566 49.9982C58.968 49.6997 59.3963 49.4586 59.8303 49.229C64.3615 46.8755 70.0255 48.1958 73.0406 52.5641C76.3432 57.3458 75.2161 63.9471 70.5214 67.3166ZM85.7776 60.0724L85.1915 53.4538L80.3052 53.0635C79.9389 51.9901 79.4598 50.9453 78.8624 49.9351L81.6747 45.8767L77.0533 41.1926L73.1026 44.0627C72.1107 43.4543 71.0625 42.9606 69.9748 42.5818L69.5802 37.6853L63.0821 37.1227L61.8817 41.87C60.7376 42.0536 59.6105 42.3636 58.5115 42.7941L55.1413 39.3328L54.9891 39.4418L49.8098 43.1558L51.8781 47.5701C51.1117 48.477 50.4466 49.4644 49.8887 50.4919L45.1208 50.0499L43.4526 56.4675L47.8485 58.5053C47.8372 59.6821 47.9443 60.8531 48.1754 62.0184L44.2078 64.8196L46.9806 70.8239L51.6865 69.4979C52.4248 70.4049 53.2364 71.22 54.1156 71.9318L52.8306 76.725L58.7482 79.5205L61.5379 75.3817C62.6425 75.5826 63.7641 75.6802 64.8912 75.6573L66.954 80.2036L73.2435 78.47L73.0012 75.9098L72.7645 73.453C73.2379 73.1775 73.7 72.879 74.1453 72.5633C74.6187 72.2188 75.0695 71.8629 75.4979 71.4841L79.9614 73.6309L83.6867 68.1834L80.1587 64.6474C80.5588 63.5797 80.8406 62.4718 81.021 61.3467L85.7776 60.0724Z" fill="#22242A"/>
<path d="M164.399 111.056L164.315 109.052L0.823273 110.377V111.169C0.823273 113.287 3.12974 115 5.98776 115H159.234C162.142 115 164.482 113.222 164.399 111.056Z" fill="#D84100"/>
<path d="M149.264 93.1897H15.9604C12.8883 93.1897 9.74939 94.2536 8.96466 95.5791L1.06731 108.974C0.0822285 110.631 2.16927 112.026 5.70888 112.026H159.515C163.055 112.026 165.142 110.631 164.157 108.974L156.259 95.5791C155.491 94.2536 152.336 93.1897 149.264 93.1897Z" fill="#FB4B00"/>
<path d="M143.819 98.1465H21.419C18.5979 98.1465 16.0287 98.6314 15.7096 99.2202L12.7542 104.883C12.4183 105.541 14.5845 106.078 17.5736 106.078H147.647C150.653 106.078 152.819 105.541 152.467 104.883L149.511 99.2202C149.192 98.6314 146.64 98.1465 143.819 98.1465Z" fill="#FCFCFC"/>
<path d="M141.679 95.1724H23.544C20.8204 95.1724 18.5312 95.2891 18.4477 95.4557L17.679 96.8553C17.5955 97.0219 19.7844 97.1552 22.5582 97.1552H142.665C145.439 97.1552 147.644 97.0219 147.544 96.8553L146.792 95.4557C146.709 95.2891 144.403 95.1724 141.679 95.1724Z" fill="#FCFCFC"/>
<path d="M112.596 107.069H52.6118C51.225 107.069 50.0387 107.251 49.9718 107.479L49.4037 109.603C49.3369 109.846 50.4397 110.043 51.8599 110.043H113.364C114.784 110.043 115.887 109.846 115.82 109.603L115.236 107.479C115.169 107.251 113.982 107.069 112.596 107.069Z" fill="#FCFCFC"/>
</svg>
