<svg width="228" height="385" viewBox="0 0 228 385" fill="none" xmlns="http://www.w3.org/2000/svg">
<path d="M189.734 344.658C171.484 363.304 148.191 376.228 122.707 381.849C97.222 387.469 70.651 385.542 46.2452 376.303L40.6141 374.01C37.1963 372.135 34.234 369.53 31.938 366.38C27.8159 360.894 26.041 353.997 27.003 347.203C27.965 340.41 31.5852 334.276 37.0686 330.149C39.7798 328.156 42.8654 326.73 46.1407 325.956C49.4161 325.183 52.8139 325.077 56.131 325.646C59.7215 327.478 63.4443 329.039 67.268 330.316C80.2179 334.7 94.0452 335.845 107.54 333.652C121.036 331.459 133.788 325.993 144.681 317.734C155.573 309.475 164.276 298.673 170.026 286.274C175.776 273.875 178.398 260.257 177.664 246.61C176.93 232.964 172.862 219.705 165.815 207.994C158.768 196.283 148.958 186.476 137.241 179.432C125.525 172.387 112.261 168.32 98.608 167.586C84.9553 166.851 71.3305 169.472 58.9257 175.218C57.0903 176.052 55.2967 176.97 53.5031 177.97C52.7571 178.263 51.9902 178.5 51.2089 178.679C50.764 179.235 50.3052 179.735 49.8324 180.18C47.4383 182.722 44.5634 184.763 41.3743 186.187C38.1852 187.61 34.7452 188.387 31.2536 188.472C27.7621 188.558 24.2882 187.95 21.0334 186.684C17.7785 185.418 14.8072 183.519 12.2917 181.097C9.83212 178.693 7.88148 175.819 6.5558 172.646C5.23012 169.473 4.55649 166.066 4.57497 162.627C5.81567 158.672 6.7637 154.631 7.41138 150.536C8.12581 146.041 8.48843 141.496 8.49591 136.944C8.42427 114.986 -0.111877 93.9008 -15.3376 78.0719C-30.5633 62.2431 -51.3069 52.8891 -73.2553 51.9548C-95.2036 51.0206 -116.668 58.578 -133.185 73.0558C-149.702 87.5335 -160 107.817 -161.939 129.69C-180.414 133.519 -197.861 141.237 -213.12 152.329C-217.229 116.27 -206.84 80.0563 -184.237 51.6541C-161.634 23.2518 -128.668 4.98781 -92.593 0.879901C-56.5176 -3.22801 -20.287 7.15668 8.12822 29.7495C36.5435 52.3422 54.8159 85.2924 58.9257 121.351C87.3406 113.704 117.483 115.605 144.71 126.762C171.938 137.919 194.742 157.712 209.611 183.095C224.479 208.477 230.588 238.041 226.997 267.235C223.405 296.428 210.312 323.632 189.734 344.658Z" fill="#D84100"/>
</svg>