<svg width="210" height="100" viewBox="0 0 210 100" fill="none" xmlns="http://www.w3.org/2000/svg">
<path d="M209.874 68.9125C209.874 69.8705 209.811 70.818 209.716 71.7549L209.642 72.4497C208.011 86.3143 196.81 97.3997 182.486 99.5894V100H33.4663C16.7285 100 2.96562 87.925 1.16586 72.3971C1.12351 72.1234 1.09175 71.8707 1.07058 71.6075C0.996473 70.7127 0.922363 69.8284 0.922363 68.9125C0.922363 51.7528 15.4898 37.8356 33.4663 37.8356C36.5047 37.8356 39.4478 38.2672 42.2427 38.9936C42.4862 22.0339 56.9372 8.34825 74.7549 8.34825C85.0347 8.34825 94.1923 12.9382 100.163 20.0547C107.235 8.09559 120.67 0 136.074 0C158.295 0 176.41 16.7912 177.288 37.8356H177.331C195.307 37.8356 209.874 51.7528 209.874 68.9125Z" fill="#D84100"/>
<path d="M209.642 74.5342C208.011 87.3566 196.811 97.5998 182.487 99.621V100H33.4665C16.7287 100 2.96583 88.841 1.16607 74.4815C3.06111 60.2274 16.8028 49.1736 33.4665 49.1736C36.5049 49.1736 39.448 49.5737 42.2429 50.2474C42.4864 34.5615 56.9375 21.9181 74.7551 21.9181C85.0349 21.9181 94.1925 26.1607 100.163 32.7403C107.235 21.6865 120.67 14.212 136.074 14.212C158.296 14.212 176.41 29.7295 177.288 49.1736H177.331C194.016 49.1736 207.768 60.259 209.642 74.5342Z" fill="#FCFCFC"/>
</svg>
