<svg width="349" height="304" viewBox="0 0 349 304" fill="none" xmlns="http://www.w3.org/2000/svg">
<path d="M231.267 303.569C230.803 303.569 230.344 303.367 230.027 302.979L106.979 149.987C106.429 149.302 106.54 148.308 107.221 147.758C107.902 147.208 108.9 147.314 109.45 148L232.498 300.992C233.048 301.672 232.942 302.671 232.261 303.221C231.963 303.458 231.615 303.569 231.267 303.569Z" fill="#E13122"/>
<path d="M40.3888 303.569C40.0408 303.569 39.6928 303.458 39.4003 303.221C38.7194 302.671 38.6084 301.672 39.1582 300.992L162.206 148C162.756 147.314 163.754 147.208 164.435 147.758C165.121 148.308 165.227 149.302 164.677 149.987L41.6295 302.979C41.3118 303.367 40.8528 303.569 40.3888 303.569Z" fill="#F14E25"/>
<path d="M163.441 303.569C162.977 303.569 162.519 303.367 162.206 302.979L39.1582 149.987C38.6084 149.302 38.7194 148.308 39.4003 147.758C40.0812 147.208 41.0798 147.314 41.6295 148L164.677 300.992C165.227 301.672 165.116 302.671 164.435 303.221C164.143 303.458 163.789 303.569 163.441 303.569Z" fill="#F14E25"/>
<path d="M62.1971 155.054H5.02845C2.78406 155.054 0.968384 153.233 0.968384 150.994C0.968384 148.75 2.78406 146.929 5.02845 146.929H62.1971C64.4365 146.929 66.2572 148.75 66.2572 150.994C66.2572 153.233 64.4365 155.054 62.1971 155.054Z" fill="#E13122"/>
<path d="M226.678 155.054H63.2866C61.0422 155.054 59.2265 153.233 59.2265 150.994C59.2265 148.75 61.0422 146.929 63.2866 146.929H226.678V155.054Z" fill="#F14E25"/>
<path d="M106.353 227.49C106.353 229.941 104.366 231.923 101.915 231.923C99.4639 231.923 97.4818 229.941 97.4818 227.49C97.4818 225.039 99.4639 223.051 101.915 223.051C104.366 223.051 106.353 225.039 106.353 227.49Z" fill="#E13122"/>
<path d="M174.174 227.49C174.174 229.941 172.187 231.923 169.741 231.923C167.29 231.923 165.303 229.941 165.303 227.49C165.303 225.039 167.29 223.051 169.741 223.051C172.187 223.051 174.174 225.039 174.174 227.49Z" fill="#FBC52F"/>
<path d="M253.842 6.52636H110.943V2.14351C110.943 0.958275 111.896 0 113.082 0H251.699C252.884 0 253.842 0.958275 253.842 2.14351V6.52636Z" fill="#FCFCFC"/>
<path d="M249.853 82.7142H114.933C112.729 82.7142 110.943 80.9237 110.943 78.7197V6.52625H253.842V78.7197C253.842 80.9237 252.057 82.7142 249.853 82.7142Z" fill="#343573"/>
<path d="M246.983 3.26307C246.983 3.81786 246.534 4.26673 245.979 4.26673C245.425 4.26673 244.971 3.81786 244.971 3.26307C244.971 2.70828 245.425 2.2594 245.979 2.2594C246.534 2.2594 246.983 2.70828 246.983 3.26307Z" fill="#F14E25"/>
<path d="M240.078 3.26307C240.078 3.81786 239.629 4.26673 239.07 4.26673C238.515 4.26673 238.066 3.81786 238.066 3.26307C238.066 2.70828 238.515 2.2594 239.07 2.2594C239.629 2.2594 240.078 2.70828 240.078 3.26307Z" fill="#F14E25"/>
<path d="M233.174 3.26307C233.174 3.81786 232.72 4.26673 232.165 4.26673C231.61 4.26673 231.161 3.81786 231.161 3.26307C231.161 2.70828 231.61 2.2594 232.165 2.2594C232.72 2.2594 233.174 2.70828 233.174 3.26307Z" fill="#F14E25"/>
<path d="M197.702 16.8251H118.347C117.586 16.8251 116.965 16.2048 116.965 15.4432C116.965 14.6816 117.586 14.0613 118.347 14.0613H197.702C198.464 14.0613 199.079 14.6816 199.079 15.4432C199.079 16.2048 198.464 16.8251 197.702 16.8251Z" fill="#50C4C0"/>
<path d="M197.702 25.6111H118.347C117.586 25.6111 116.965 24.9958 116.965 24.2292C116.965 23.4676 117.586 22.8523 118.347 22.8523H197.702C198.464 22.8523 199.079 23.4676 199.079 24.2292C199.079 24.9958 198.464 25.6111 197.702 25.6111Z" fill="#50C4C0"/>
<path d="M159.845 34.4022H118.347C117.586 34.4022 116.965 33.7818 116.965 33.0202C116.965 32.2587 117.586 31.6383 118.347 31.6383H159.845C160.607 31.6383 161.227 32.2587 161.227 33.0202C161.227 33.7818 160.607 34.4022 159.845 34.4022Z" fill="#50C4C0"/>
<path d="M197.702 51.979H118.347C117.586 51.979 116.965 51.3636 116.965 50.597C116.965 49.8354 117.586 49.2151 118.347 49.2151H197.702C198.464 49.2151 199.079 49.8354 199.079 50.597C199.079 51.3636 198.464 51.979 197.702 51.979Z" fill="#F14E25"/>
<path d="M159.845 60.7698H118.347C117.586 60.7698 116.965 60.1495 116.965 59.3879C116.965 58.6263 117.586 58.006 118.347 58.006H159.845C160.607 58.006 161.227 58.6263 161.227 59.3879C161.227 60.1495 160.607 60.7698 159.845 60.7698Z" fill="#F14E25"/>
<path d="M159.845 69.5558H118.347C117.586 69.5558 116.965 68.9405 116.965 68.1739C116.965 67.4123 117.586 66.797 118.347 66.797H159.845C160.607 66.797 161.227 67.4123 161.227 68.1739C161.227 68.9405 160.607 69.5558 159.845 69.5558Z" fill="#50C4C0"/>
<path d="M197.702 34.4022H167.88C167.118 34.4022 166.498 33.7818 166.498 33.0202C166.498 32.2587 167.118 31.6383 167.88 31.6383H197.702C198.464 31.6383 199.079 32.2587 199.079 33.0202C199.079 33.7818 198.464 34.4022 197.702 34.4022Z" fill="#FCFCFC"/>
<path d="M237.088 14.6666L216.005 35.7537C215.466 36.2933 214.588 36.2933 214.049 35.7537C213.509 35.214 213.509 34.3364 214.049 33.7968L235.136 12.7097C235.675 12.17 236.553 12.17 237.088 12.7097C237.627 13.2493 237.627 14.1269 237.088 14.6666Z" fill="#F14E25"/>
<path d="M238.005 54.5562C238.005 61.4205 232.437 66.9885 225.568 66.9885C218.704 66.9885 213.136 61.4205 213.136 54.5562C213.136 47.6869 218.704 42.1188 225.568 42.1188C232.437 42.1188 238.005 47.6869 238.005 54.5562Z" fill="#F14E25"/>
<path d="M223.944 63.2209C223.944 67.1044 220.792 70.2566 216.903 70.2566C213.02 70.2566 209.867 67.1044 209.867 63.2209C209.867 59.3323 213.02 56.1801 216.903 56.1801C220.792 56.1801 223.944 59.3323 223.944 63.2209Z" fill="#50C4C0"/>
<path d="M110.943 75.0027V100.145L134.043 77.0352" fill="#343573"/>
<path d="M86.3456 106.938H137.038L155.372 142.223H104.679L86.3456 106.938Z" fill="#87C5B8"/>
<path d="M105.703 139.611L90.5268 110.398C90.209 109.783 90.6529 109.052 91.3438 109.052H135.198C135.54 109.052 135.853 109.243 136.015 109.546L151.191 138.763C151.513 139.373 151.065 140.105 150.379 140.105H106.52C106.177 140.105 105.864 139.918 105.703 139.611Z" fill="#FCFCFC"/>
<path d="M145.734 142.223H104.679V146.929H145.734V142.223Z" fill="#BBE8E0"/>
<path d="M181.008 142.223H140.493C139.192 142.223 138.138 143.277 138.138 144.574C138.138 145.875 139.192 146.929 140.493 146.929H181.008C182.31 146.929 183.364 145.875 183.364 144.574C183.364 143.277 182.31 142.223 181.008 142.223Z" fill="#9FD2C5"/>
<path d="M104.679 142.223L86.3456 106.938L85.4277 107.629C84.8326 108.073 84.651 108.885 84.999 109.541L104.679 146.929V142.223Z" fill="#BBE8E0"/>
<path d="M123.133 145.204H118.614V144.417H123.133V145.204Z" fill="#9FD2C5"/>
<path d="M128.817 145.204H124.298V144.417H128.817V145.204Z" fill="#9FD2C5"/>
<path d="M134.497 145.204H129.978V144.417H134.497V145.204Z" fill="#9FD2C5"/>
<path d="M197.102 211.274C197.102 211.274 155.049 244.017 148.381 252.334C145.87 255.481 141.482 260.999 136.938 266.653C129.478 275.943 121.56 285.622 120.622 285.854C119.124 286.237 106.505 276.629 106.121 274.556C105.889 273.27 117.379 253.55 127.32 237.698C133.377 228.059 138.849 219.838 140.776 218.063C145.86 213.347 177.14 196.779 177.14 196.779L197.102 211.274Z" fill="#343573"/>
<mask id="mask0_250_1100" style="mask-type:alpha" maskUnits="userSpaceOnUse" x="115" y="215" width="59" height="66">
<path d="M115.134 215.592H173.236V280.149H115.134V215.592Z" fill="black"/>
</mask>
<g mask="url(#mask0_250_1100)">
<mask id="mask1_250_1100" style="mask-type:alpha" maskUnits="userSpaceOnUse" x="116" y="215" width="57" height="65">
<path d="M116.859 279.398C116.753 279.398 116.647 279.368 116.552 279.302C116.315 279.136 116.259 278.803 116.426 278.566C116.431 278.556 126.245 264.585 138.542 249.414C138.658 249.838 138.768 250.256 138.884 250.675C129.892 261.801 122.286 272.201 119.013 276.755C117.903 278.303 117.293 279.171 117.288 279.171C117.187 279.317 117.026 279.398 116.859 279.398ZM164.173 222.789L164.032 221.483C166.412 219.339 168.702 217.453 170.871 215.93H172.747C170.114 217.655 167.214 220.005 164.173 222.789Z" fill="black"/>
</mask>
<g mask="url(#mask1_250_1100)">
<path d="M116.259 279.398H172.747V215.93H116.259V279.398Z" fill="#2C2E5F"/>
</g>
</g>
<path d="M240.926 67.7047C240.482 68.7184 239.972 69.7725 239.403 70.8519C236.326 76.7276 238.601 82.6134 235.09 84.1164C234.878 84.2021 234.646 84.2828 234.384 84.3383C229.86 85.342 219.44 79.3149 218.986 76.3039C218.532 73.2929 222.199 68.1384 218.986 67.513C215.773 66.8876 214.038 72.2893 214.038 72.2893C211.401 72.5667 210.458 68.1384 206.125 68.1384C205.51 68.1384 204.91 68.2242 204.33 68.3704C202.292 68.8748 200.502 70.1357 199.362 71.1091C198.514 71.8152 198.03 72.375 198.03 72.375C198.03 72.375 194.172 69.9339 194.354 65.1274C194.661 57.5066 197.47 51.9486 204.244 50.8189C204.995 42.3406 211.971 37.8166 221.291 37.5341C229.462 37.2769 230.682 44.6254 230.874 46.4511C230.803 45.0894 230.42 40.6057 228.478 37.5341C232.563 37.3526 236.17 40.2728 235.226 49.7799C236.17 46.9504 239.468 45.165 242.005 47.2329C239.655 47.2329 237.395 51.187 237.395 51.187C237.395 51.187 240.154 52.9523 242.035 56.2155C243.599 58.9138 243.009 62.8931 240.926 67.7047Z" fill="#322020"/>
<path d="M235.09 84.1166L234.984 85.5136L234.626 90.4563C234.626 90.4563 227.101 96.8919 222.834 90.4563L222.739 90.3302C221.417 88.3632 220.222 87.6773 219.132 87.5512C218.31 87.4503 217.539 87.6672 216.802 87.8891C215.436 88.2926 214.185 88.6961 212.909 87.0771C207.285 79.9405 205.046 71.6791 204.33 68.3706C204.91 68.2243 205.51 68.1386 206.125 68.1386C210.458 68.1386 211.401 72.5668 214.038 72.2894C214.038 72.2894 215.773 66.8878 218.986 67.5132C222.199 68.1386 218.532 73.2931 218.986 76.3041C219.188 77.6457 221.377 79.5925 224.141 81.2417C227.369 83.1734 231.383 84.7066 233.93 84.4141C234.087 84.3889 234.238 84.3687 234.384 84.3385C234.646 84.283 234.878 84.2023 235.09 84.1166Z" fill="#F89D8A"/>
<path d="M221.17 94.602C220.61 93.5983 219.738 91.6818 220.444 90.4562C220.635 90.1183 221.11 89.6543 221.785 89.1045C221.785 89.1045 221.785 89.1045 221.785 89.0995C222.098 89.4424 222.416 89.8459 222.739 90.3301L222.834 90.4562C223.384 91.2934 223.994 91.9087 224.635 92.3526C223.631 92.9982 222.446 93.7648 221.17 94.602Z" fill="#E9F8F5"/>
<path d="M224.635 92.3525C223.994 91.9087 223.384 91.2934 222.834 90.4562L222.739 90.3301C222.416 89.8459 222.098 89.4424 221.785 89.0995C223.152 87.9798 225.351 86.5474 227.621 85.3622C227.056 86.2045 226.773 86.7946 226.678 87.0013L226.668 87.077C226.511 87.7629 226.35 88.4791 226.203 89.2306C226.042 90.0073 225.881 90.8143 225.724 91.6515C225.391 91.8633 225.028 92.1004 224.635 92.3525Z" fill="#F6836D"/>
<path d="M235.262 175.748C227.696 177.205 211.683 172.747 204.022 169.302C201.762 168.288 200.219 167.36 199.846 166.705C198.378 164.112 199.856 162.125 203.502 153.904C203.916 152.976 204.35 151.972 204.814 150.883C207.285 145.058 207.3 132.645 207.285 121.938C207.255 112.774 207.215 104.871 208.672 103.463C211.829 100.422 227.601 90.4561 227.601 90.4561L230.738 106.817C230.738 106.817 232.513 115.124 234.384 125.963C237.829 145.925 241.612 174.522 235.262 175.748Z" fill="#50C4C0"/>
<path d="M240.532 183.031C240.532 183.782 232.997 201.354 226.678 203.871C220.358 206.382 182.274 203.618 182.274 203.618L163.442 215.93L167.386 253.02L170.129 278.868L170.215 279.706C164.455 283.468 149.95 284.482 148.381 281.239L148.371 281.214C146.858 277.95 123.759 208.395 132.807 196.336C141.84 184.287 199.846 166.705 199.846 166.705C201.359 167.663 203.114 168.53 205.026 169.302C211.471 171.945 219.662 173.604 225.896 174.578C228.297 174.946 230.4 175.223 232.004 175.41C234.036 175.652 235.262 175.748 235.262 175.748C235.262 175.748 240.532 182.269 240.532 183.031Z" fill="#343573"/>
<path d="M172.606 303.935H123.633C123.391 303.072 123.718 302.195 124.46 301.307C126.442 298.916 131.42 296.516 136.216 294.448C140.776 292.481 145.148 290.791 146.616 289.626C150.076 286.893 148.477 281.567 148.381 281.239C148.911 282.323 150.908 282.938 153.551 283.12C158.741 283.488 166.402 282.197 170.215 279.706L170.129 278.868C171.592 281.657 172.278 295.451 172.51 301.307C172.57 302.921 172.606 303.935 172.606 303.935Z" fill="#202853"/>
<path d="M153.551 283.12C153.405 285.455 153.067 289.233 152.386 290.252C151.382 291.76 140.584 297.035 139.081 296.531C138.113 296.213 136.928 295.154 136.216 294.448C140.776 292.481 145.149 290.791 146.616 289.626C150.076 286.893 148.477 281.567 148.381 281.239C148.911 282.323 150.908 282.938 153.551 283.12Z" fill="#304383"/>
<path d="M172.606 303.935H123.633C123.391 303.072 123.718 302.195 124.46 301.307H172.51C172.57 302.921 172.606 303.935 172.606 303.935Z" fill="#304383"/>
<path d="M120.622 285.853C120.622 285.853 116.9 295.663 113.677 300.848C112.401 302.921 111.185 304.262 110.328 303.935C107.317 302.805 77.0505 277.073 79.9455 275.191C80.3692 274.919 81.045 274.727 81.8923 274.621C84.52 274.284 88.8877 274.652 92.9226 275.065C96.3875 275.423 99.6103 275.817 101.295 275.817C105.562 275.817 106.122 274.556 106.122 274.556C106.217 275.055 107.019 275.993 108.215 277.133C111.957 280.684 119.482 286.141 120.622 285.853Z" fill="#202853"/>
<path d="M108.215 277.133C101.799 281.385 95.1114 278.828 93.79 277.855C92.8165 277.149 92.8165 275.827 92.9225 275.066C96.3874 275.424 99.6102 275.817 101.295 275.817C105.562 275.817 106.121 274.556 106.121 274.556C106.217 275.055 107.019 275.994 108.215 277.133Z" fill="#304383"/>
<path d="M113.677 300.848C112.401 302.921 111.185 304.263 110.328 303.935C107.317 302.805 77.0505 277.073 79.9455 275.192C80.3692 274.919 81.045 274.727 81.8923 274.622L113.677 300.848Z" fill="#304383"/>
<path d="M204.042 143.696C201.677 146.994 197.44 152.023 193.95 151.514C193.824 151.498 193.688 151.473 193.521 151.443C186.859 150.268 147.706 140.453 145.86 140.085C143.978 139.712 130.8 139.586 131.551 138.204C132.298 136.817 139.833 132.434 141.84 132.54C143.847 132.646 151.766 134.935 159.669 134.683C167.582 134.441 188.296 134.683 188.296 134.683L189.3 132.948L190.783 130.391C190.369 138.062 199.614 144.321 204.042 143.696Z" fill="#F89D8A"/>
<path d="M209.267 185.628C209.197 185.628 209.121 185.613 209.05 185.583C206.594 184.463 205.132 182.577 204.32 180.61C203.508 178.638 203.306 176.57 203.306 174.981C203.306 173.352 203.518 172.217 203.523 172.197C203.573 171.94 203.795 171.763 204.042 171.763C204.078 171.763 204.108 171.768 204.138 171.774C204.426 171.829 204.617 172.101 204.562 172.389C204.562 172.389 204.552 172.449 204.531 172.57C204.516 172.691 204.491 172.868 204.466 173.1C204.415 173.559 204.365 174.215 204.365 174.981C204.365 176.484 204.557 178.421 205.298 180.206C206.039 181.992 207.3 183.621 209.489 184.619C209.752 184.74 209.873 185.053 209.752 185.321C209.661 185.512 209.469 185.628 209.267 185.628Z" fill="#2C2E5F"/>
<path d="M163.442 279.398C163.199 279.398 162.978 279.226 162.927 278.979C162.927 278.974 156.133 246.761 152.734 225.018C151.599 217.766 150.843 211.688 150.843 208.294C150.843 207.209 150.908 206.402 151.11 205.822C151.297 205.323 151.655 204.849 152.144 204.335C152.633 203.82 153.269 203.28 154.025 202.7C155.538 201.545 157.551 200.259 159.901 198.893C164.596 196.154 170.629 193.092 176.59 190.228C188.508 184.488 200.143 179.53 200.149 179.525C200.214 179.5 200.285 179.485 200.355 179.485C200.557 179.485 200.754 179.606 200.839 179.808C200.955 180.075 200.829 180.383 200.562 180.499C200.557 180.499 199.125 181.114 196.749 182.153C194.369 183.197 191.045 184.67 187.272 186.395C179.727 189.839 170.376 194.278 163.184 198.247C158.398 200.885 154.545 203.346 152.906 205.066C152.467 205.515 152.199 205.918 152.109 206.186C151.983 206.508 151.892 207.265 151.897 208.294C151.892 214.013 154.202 228.276 156.799 242.434C159.397 256.601 162.287 270.708 163.442 276.276C163.769 277.865 163.961 278.757 163.961 278.762C164.022 279.045 163.835 279.327 163.552 279.388C163.517 279.393 163.477 279.398 163.442 279.398Z" fill="#2C2E5F"/>
<path d="M167.386 253.02C167.386 253.02 159.427 210.654 159.427 207.885C159.427 205.52 212.031 190.394 225.896 174.578C228.297 174.951 230.4 175.228 232.004 175.415C232.034 175.616 232.064 175.823 232.089 176.025C232.498 179.016 232.735 181.78 232.735 184.17C232.735 189.335 231.625 192.775 228.73 193.067C221.448 193.829 216.671 194.076 214.916 201.354L182.274 203.618L166.009 214.099L163.442 215.93L167.386 253.02Z" fill="#2C2E5F"/>
<path d="M203.503 153.904C203.916 152.976 204.35 151.972 204.814 150.883C205.767 148.639 206.352 145.421 206.715 141.694C213.358 135.293 219.148 125.685 218.865 117.162C219.304 122.069 219.672 132.489 215.733 138.077C212.465 142.702 207.204 148.578 203.503 153.904Z" fill="#43BAB4"/>
<path d="M206.105 142.269C205.616 142.713 205.121 143.156 204.622 143.57C204.446 143.635 204.254 143.676 204.042 143.696C199.614 144.321 190.369 138.062 190.783 130.391C190.813 129.821 191.267 128.681 192.008 127.188C195.791 119.558 207.169 102.576 209.262 103.358C209.262 103.358 216.575 104.487 218.562 114.479C220.424 123.85 213.711 135.223 206.105 142.269Z" fill="#389A9A"/>
<path d="M232.004 175.41C230.395 175.218 228.297 174.946 225.896 174.578C219.662 173.604 211.471 171.945 205.026 169.302C210.71 169.1 222.875 165.363 224.347 137.512C225.008 142.722 226.017 148.124 227.409 153.652C229.275 160.99 231.04 168.742 232.004 175.41Z" fill="#43BAB4"/>
<path d="M221.785 89.1043C221.553 88.8471 221.326 88.6302 221.099 88.4436C221.326 88.6302 221.553 88.8471 221.785 89.0993C221.785 89.1043 221.785 89.1043 221.785 89.1043Z" fill="#E9F8F5"/>
<path d="M221.785 89.0995C221.553 88.8473 221.326 88.6305 221.099 88.4439C220.408 87.8739 219.758 87.6218 219.132 87.5511L224.141 81.2467C225.659 82.1596 227.358 82.9817 228.993 83.5667L228.998 83.5617L228.993 83.5667C228.534 84.1014 228.155 84.5956 227.848 85.0344C227.767 85.1504 227.691 85.2563 227.621 85.3622C225.351 86.5475 223.152 87.9798 221.785 89.0995Z" fill="#F6836D"/>
<path d="M194.449 151.554C194.283 151.554 194.116 151.539 193.95 151.514C193.824 151.498 193.688 151.473 193.521 151.443C189.204 145.209 189.048 137.039 189.3 132.948L190.783 130.391C190.778 130.421 190.778 130.457 190.778 130.487C190.48 137.23 197.632 142.864 202.343 143.646C202.348 143.646 202.348 143.646 202.353 143.646C202.363 143.651 202.368 143.651 202.378 143.651C202.398 143.656 202.418 143.656 202.433 143.661C202.443 143.661 202.459 143.666 202.469 143.666C202.509 143.671 202.544 143.676 202.58 143.681C202.615 143.686 202.65 143.691 202.685 143.696C202.822 143.711 202.963 143.726 203.099 143.731C203.139 143.731 203.175 143.736 203.215 143.736C203.281 143.736 203.341 143.741 203.402 143.741C203.624 143.741 203.84 143.726 204.042 143.696C201.788 146.838 197.834 151.554 194.449 151.554Z" fill="#F6836D"/>
<path d="M203.215 143.736C203.175 143.736 203.139 143.731 203.099 143.731C203.139 143.731 203.175 143.736 203.215 143.736ZM203.099 143.731C202.963 143.726 202.822 143.711 202.685 143.696C202.822 143.711 202.963 143.726 203.099 143.731ZM202.469 143.666C202.459 143.666 202.443 143.661 202.433 143.661C202.443 143.661 202.459 143.666 202.469 143.666ZM202.378 143.65C202.368 143.65 202.363 143.65 202.353 143.645C202.363 143.65 202.368 143.65 202.378 143.65ZM202.343 143.645C197.632 142.864 190.48 137.23 190.778 130.487C190.48 137.23 197.632 142.864 202.343 143.645Z" fill="#2E7D80"/>
<path d="M237.647 76.9547C237.799 75.7594 238.021 74.4884 238.434 73.1821C238.021 74.4834 237.804 75.7594 237.652 76.9547H237.647Z" fill="#272952"/>
<path d="M229.003 83.5568C228.13 83.2441 227.237 82.8709 226.365 82.4472C225.603 82.074 224.852 81.6654 224.141 81.2418C222.91 80.5054 221.79 79.7136 220.913 78.9369C219.818 77.9786 219.097 77.0506 218.986 76.3041C218.956 76.1226 218.946 75.936 218.946 75.7393C218.951 73.6966 220.318 70.963 220.318 69.2079C220.318 68.3353 219.985 67.7099 218.986 67.5132C218.81 67.4779 218.638 67.4628 218.472 67.4628H218.467C216.969 67.4678 215.834 68.7691 215.087 70.0199C214.397 71.1799 214.038 72.2895 214.038 72.2895C213.963 72.2996 213.882 72.3046 213.806 72.3046H213.801C212.425 72.2996 211.502 70.9983 210.22 69.8484C209.207 68.9456 207.976 68.1386 206.125 68.1386C205.51 68.1386 204.91 68.2244 204.33 68.3706C202.292 68.875 200.502 70.1359 199.362 71.1093C199.362 71.1093 203.391 65.4504 209.867 65.4504C210.523 65.4504 211.204 65.5059 211.905 65.632C211.905 65.632 210.906 63.7306 206.458 63.7306C206.196 63.7306 205.918 63.7356 205.631 63.7507C209.923 62.3537 213.6 61.7283 216.681 61.7283C221.352 61.7283 224.65 63.1606 226.657 65.5059C228.448 67.604 231.827 70.0249 235.408 70.0249C237.259 70.0249 239.16 69.3793 240.926 67.7049C240.482 68.7186 239.972 69.7727 239.402 70.8521C238.994 71.6338 238.681 72.4156 238.434 73.1822C238.021 74.4885 237.799 75.7594 237.647 76.9548C237.027 77.2776 236.442 77.6054 235.882 77.9332C232.619 79.88 230.42 81.8974 229.003 83.5568Z" fill="#261A19"/>
<path d="M226.365 82.4472C225.603 82.0739 224.852 81.6705 224.141 81.2418V81.2468C222.905 80.5104 221.79 79.7136 220.913 78.9369C221.79 79.7136 222.91 80.5054 224.141 81.2418C224.852 81.6654 225.603 82.0739 226.365 82.4472ZM218.986 76.3041C218.956 76.1226 218.946 75.9359 218.946 75.7392C218.946 75.9359 218.956 76.1226 218.986 76.3041ZM213.801 72.3046C212.425 72.2995 211.502 70.9983 210.221 69.8484C211.502 70.9983 212.425 72.2995 213.801 72.3046ZM214.038 72.2895C214.038 72.2895 214.044 72.2895 214.044 72.2844C214.044 72.2895 214.038 72.2895 214.038 72.2895ZM220.318 69.2078C220.318 68.3353 219.985 67.7099 218.986 67.5132C218.81 67.4779 218.638 67.4628 218.472 67.4628C218.638 67.4628 218.81 67.4779 218.986 67.5132C219.985 67.7099 220.318 68.3353 220.318 69.2078ZM204.33 68.3706C204.91 68.2243 205.51 68.1386 206.125 68.1386C205.51 68.1386 204.91 68.2243 204.33 68.3706ZM218.467 67.4628H218.472H218.467Z" fill="#F6836D"/>
<path d="M237.425 78.9864C237.425 78.9818 237.425 78.9818 237.425 78.9772C237.425 78.9772 237.425 78.9818 237.43 78.9818C237.43 78.9818 237.43 78.9864 237.425 78.9864Z" fill="#272952"/>
<path d="M237.425 78.9872C237.057 78.7047 236.684 78.4374 236.306 78.1953C236.684 78.4374 237.057 78.6946 237.425 78.9771C237.425 78.9821 237.425 78.9821 237.425 78.9872Z" fill="#261A19"/>
<path d="M228.998 83.5616C228.125 83.2489 227.237 82.8707 226.365 82.447C227.237 82.8707 228.13 83.2439 229.003 83.5566L228.998 83.5616Z" fill="#1F1616"/>
<path d="M228.993 83.5665C227.359 82.9815 225.659 82.1594 224.141 81.2465V81.2415C224.852 81.6702 225.603 82.0736 226.365 82.4469C227.237 82.8705 228.125 83.2488 228.998 83.5615L228.993 83.5665Z" fill="#F3654F"/>
<path d="M262.885 215.93H225.21C225.21 215.93 255.098 207.134 255.098 147.872C255.098 147.11 255.098 146.359 255.088 145.607C254.78 106 246.312 84.1568 235.882 77.9331C239.15 76.0014 243.493 74.1504 249.232 72.8744C251.739 72.2994 254.493 71.8455 257.549 71.5277C283.342 68.9 303.95 79.0124 306.401 90.4562C308.842 101.9 293.762 215.93 262.885 215.93Z" fill="#D84100"/>
<path d="M255.098 147.872C255.098 207.134 225.21 215.93 225.21 215.93H163.441L166.009 214.099L182.274 203.619L214.916 201.354C216.671 194.076 221.447 193.829 228.73 193.067C232.967 192.639 233.38 185.482 232.089 176.025C231.151 169.216 229.331 161.217 227.409 153.652C226.017 148.124 225.008 142.723 224.347 137.513C223.551 131.415 223.203 125.595 223.172 120.107C223.076 107.619 224.6 96.9473 226.204 89.2307C226.35 88.4792 226.511 87.763 226.668 87.0771L226.678 87.0014C226.829 86.6736 227.474 85.3421 228.993 83.5668L229.003 83.5567C230.42 81.8973 232.619 79.8799 235.882 77.9331C236.402 78.2408 236.921 78.5989 237.425 78.9872C247.139 86.3861 254.79 107.978 255.088 145.608C255.098 146.359 255.098 147.111 255.098 147.872Z" fill="#FB4B00"/>
<path d="M243.175 303.935H198.706C197.183 303.935 196.517 302.013 197.723 301.07L208.854 292.365C213.786 288.496 216.671 282.565 216.671 276.301V215.93H225.21V276.301C225.21 282.565 228.095 288.496 233.043 292.365L244.159 301.07C245.364 302.013 244.698 303.935 243.175 303.935Z" fill="#22242A"/>
<path d="M277.95 76.8235C277.724 76.8235 277.517 76.6822 277.446 76.4553C277.184 75.6332 276.967 75.0128 276.826 74.6043C276.68 74.1907 276.599 73.9991 276.599 73.9991C276.493 73.7217 276.629 73.4191 276.901 73.3131C276.962 73.2879 277.028 73.2778 277.093 73.2778C277.305 73.2778 277.502 73.4039 277.582 73.6107C277.587 73.6208 277.915 74.4631 278.45 76.1375C278.541 76.4149 278.389 76.7125 278.112 76.7982C278.056 76.8184 278.001 76.8235 277.95 76.8235Z" fill="#FB4B00"/>
<path d="M259.153 209.197C259.027 209.197 258.901 209.151 258.8 209.055C258.583 208.859 258.568 208.526 258.765 208.309C259.97 206.998 261.125 205.651 262.23 204.269C262.335 204.143 262.487 204.072 262.643 204.072C262.759 204.072 262.875 204.113 262.976 204.188C263.203 204.37 263.238 204.703 263.057 204.93C261.932 206.327 260.762 207.694 259.546 209.025C259.44 209.141 259.299 209.197 259.153 209.197ZM265.866 200.85C265.76 200.85 265.654 200.819 265.563 200.754C265.326 200.587 265.266 200.254 265.437 200.017C266.461 198.565 267.445 197.082 268.378 195.574C268.478 195.413 268.65 195.327 268.826 195.327C268.922 195.327 269.018 195.352 269.104 195.403C269.351 195.559 269.432 195.882 269.275 196.134C268.332 197.657 267.339 199.155 266.3 200.628C266.194 200.774 266.032 200.85 265.866 200.85ZM271.52 191.746C271.434 191.746 271.348 191.726 271.268 191.685C271.01 191.544 270.915 191.221 271.056 190.969C271.908 189.406 272.71 187.817 273.477 186.213C273.562 186.027 273.754 185.916 273.951 185.916C274.026 185.916 274.107 185.931 274.178 185.966C274.445 186.092 274.556 186.405 274.43 186.667C273.658 188.291 272.841 189.895 271.984 191.474C271.888 191.645 271.706 191.746 271.52 191.746ZM276.13 182.072C276.064 182.072 275.993 182.057 275.928 182.032C275.655 181.921 275.529 181.613 275.64 181.341C276.321 179.697 276.962 178.038 277.562 176.363C277.638 176.146 277.844 176.015 278.061 176.015C278.117 176.015 278.177 176.025 278.238 176.045C278.51 176.141 278.656 176.444 278.556 176.721C277.95 178.411 277.305 180.085 276.619 181.745C276.533 181.951 276.336 182.072 276.13 182.072ZM279.751 171.985C279.7 171.985 279.65 171.975 279.6 171.96C279.317 171.874 279.161 171.577 279.246 171.299C279.771 169.6 280.255 167.885 280.704 166.165C280.77 165.928 280.981 165.767 281.219 165.767C281.259 165.767 281.304 165.777 281.35 165.787C281.632 165.862 281.804 166.15 281.728 166.432C281.279 168.167 280.785 169.892 280.26 171.612C280.19 171.839 279.978 171.985 279.751 171.985ZM282.464 161.611C282.429 161.611 282.389 161.606 282.353 161.601C282.066 161.54 281.884 161.258 281.95 160.97C282.328 159.23 282.671 157.48 282.979 155.73C283.024 155.473 283.246 155.296 283.498 155.296C283.533 155.296 283.564 155.296 283.594 155.301C283.882 155.352 284.073 155.629 284.023 155.917C283.71 157.677 283.362 159.437 282.979 161.197C282.928 161.444 282.706 161.611 282.464 161.611ZM284.335 151.055C284.315 151.055 284.29 151.055 284.265 151.049C283.977 151.009 283.771 150.742 283.811 150.454C284.058 148.684 284.27 146.914 284.451 145.149H284.456C284.482 144.876 284.714 144.674 284.981 144.674C284.996 144.674 285.016 144.674 285.031 144.679C285.324 144.71 285.536 144.967 285.506 145.259C285.324 147.035 285.107 148.815 284.86 150.601C284.825 150.863 284.598 151.055 284.335 151.055ZM285.435 140.387C285.425 140.387 285.41 140.387 285.4 140.387C285.107 140.367 284.89 140.115 284.91 139.823C285.031 138.037 285.122 136.257 285.183 134.486C285.193 134.204 285.425 133.977 285.707 133.977C285.717 133.977 285.722 133.977 285.727 133.977C286.02 133.987 286.247 134.234 286.237 134.527C286.176 136.302 286.086 138.098 285.964 139.898C285.944 140.176 285.712 140.387 285.435 140.387ZM285.808 129.67C285.516 129.67 285.279 129.433 285.279 129.145V128.823C285.279 127.133 285.253 125.458 285.203 123.799C285.193 123.507 285.425 123.265 285.717 123.254C285.722 123.254 285.727 123.254 285.732 123.254C286.015 123.254 286.252 123.481 286.257 123.769C286.312 125.433 286.338 127.123 286.338 128.823V129.145C286.338 129.438 286.101 129.67 285.808 129.67ZM285.48 118.957C285.203 118.957 284.971 118.74 284.956 118.463C284.84 116.657 284.699 114.877 284.532 113.132C284.502 112.845 284.719 112.587 285.006 112.557C285.021 112.557 285.042 112.557 285.057 112.557C285.324 112.557 285.556 112.759 285.581 113.031C285.753 114.791 285.894 116.577 286.01 118.392C286.025 118.685 285.808 118.937 285.516 118.952C285.506 118.957 285.49 118.957 285.48 118.957ZM284.451 108.285C284.189 108.285 283.962 108.094 283.927 107.826C283.69 105.985 283.438 104.215 283.18 102.525C283.14 102.238 283.337 101.971 283.624 101.925C283.655 101.92 283.68 101.92 283.705 101.92C283.962 101.92 284.189 102.107 284.23 102.369C284.487 104.064 284.734 105.839 284.976 107.69C285.016 107.978 284.81 108.245 284.522 108.28C284.497 108.285 284.477 108.285 284.451 108.285ZM282.843 97.6836C282.59 97.6836 282.368 97.5021 282.323 97.2449C282 95.3838 281.667 93.6286 281.34 91.9895C281.284 91.702 281.466 91.4246 281.753 91.3691C281.788 91.359 281.824 91.359 281.859 91.359C282.106 91.359 282.328 91.5305 282.379 91.7827C282.706 93.4319 283.039 95.1921 283.367 97.0633C283.417 97.3508 283.221 97.6282 282.933 97.6786C282.903 97.6836 282.873 97.6836 282.843 97.6836ZM280.734 87.1729C280.492 87.1729 280.275 87.0064 280.22 86.7643C279.771 84.8074 279.337 83.0775 278.934 81.5745C278.858 81.2921 279.025 81.0046 279.307 80.9289C279.352 80.9189 279.398 80.9138 279.443 80.9138C279.68 80.9138 279.892 81.0651 279.953 81.3022C280.361 82.8203 280.795 84.5603 281.249 86.5273C281.314 86.8097 281.138 87.0922 280.85 87.1577C280.81 87.1678 280.77 87.1729 280.734 87.1729Z" fill="#FB4B00"/>
<path d="M216.671 236.008V215.93H225.21V232.412C222.254 233.955 219.248 235.141 216.671 236.008Z" fill="#22242A"/>
<path d="M188.14 215.93H163.441L166.009 214.099L182.274 203.618L214.916 201.354C216.671 194.076 221.447 193.829 228.73 193.067C231.625 192.775 232.735 189.335 232.735 184.17C232.735 181.78 232.498 179.016 232.089 176.025C231.151 169.216 229.331 161.217 227.409 153.652C226.017 148.124 225.008 142.722 224.347 137.512C223.551 131.415 223.203 125.595 223.172 120.107C227.999 145.285 238.505 185.663 237.017 190.313C235.005 196.588 222.466 195.463 220.943 200.108C219.037 205.913 217.635 206.791 214.26 206.791C213.529 206.791 212.707 206.75 211.764 206.71C210.821 206.67 209.756 206.624 208.556 206.624C207.093 206.624 205.429 206.685 203.502 206.882C196.401 207.603 191.247 212.157 188.14 215.93Z" fill="#FB4B00"/>
<path d="M260.394 215.93H225.21C225.21 215.93 255.098 207.134 255.098 147.872C255.098 147.11 255.098 146.359 255.088 145.607C254.795 107.972 247.134 86.3759 237.425 78.977C237.057 78.6945 236.684 78.4373 236.306 78.1952C236.165 78.1044 236.028 78.0187 235.882 77.933C239.15 76.0013 243.493 74.1503 249.232 72.8743C247.508 75.3557 245.712 79.0829 246.559 83.0673C248.072 90.1182 265.145 117.237 258.618 160.678C253.903 192.023 255.466 208.329 260.394 215.93ZM255.381 212.001C255.249 212.001 255.118 212.051 255.017 212.147C254.387 212.747 253.741 213.342 253.091 213.932C252.869 214.124 252.854 214.457 253.045 214.674C253.151 214.795 253.298 214.85 253.439 214.85C253.565 214.85 253.691 214.81 253.792 214.719C254.458 214.124 255.108 213.519 255.744 212.909C255.955 212.707 255.966 212.374 255.764 212.162C255.658 212.056 255.517 212.001 255.381 212.001Z" fill="#D84100"/>
<path d="M255.098 147.872C255.098 147.111 255.098 146.359 255.088 145.608C255.098 146.359 255.098 147.111 255.098 147.872ZM236.306 78.1954C236.165 78.1046 236.028 78.0188 235.882 77.9331C236.028 78.0188 236.165 78.1046 236.306 78.1954Z" fill="#74BAAF"/>
<path d="M253.439 214.85C253.297 214.85 253.151 214.795 253.045 214.674C252.854 214.457 252.869 214.124 253.091 213.932C253.741 213.342 254.387 212.747 255.017 212.147C255.118 212.051 255.249 212.001 255.38 212.001C255.517 212.001 255.658 212.056 255.764 212.162C255.965 212.374 255.955 212.707 255.744 212.908C255.108 213.519 254.457 214.124 253.792 214.719C253.691 214.81 253.565 214.85 253.439 214.85Z" fill="#FB4B00"/>
<path d="M59.2215 97.1532C59.2215 97.1486 59.2215 97.1486 59.2261 97.1439C59.2215 97.1486 59.2215 97.1486 59.2215 97.1532Z" fill="#E9F8F5"/>
<path d="M329.39 193.198C326.293 202.181 322.591 210.019 318.723 217.1C305.357 241.521 289.833 257.06 289.253 279.831C289.253 279.831 284.431 258.376 288.3 233.935C290.469 220.207 295.371 205.54 305.397 193.198C333.308 158.872 329.178 127.657 329.178 127.657C329.178 127.657 343.169 153.258 329.39 193.198Z" fill="#FB4B00"/>
<path d="M329.284 127.865C329.233 127.759 329.198 127.693 329.183 127.668C329.218 127.733 329.254 127.799 329.284 127.865Z" fill="#E9F8F5"/>
<path d="M300.601 228.342C301.574 225.84 302.684 223.389 303.894 220.993C305.095 218.492 306.532 216.121 307.939 213.736L312.433 206.796C315.293 202.13 317.709 197.183 319.746 192.084C321.794 186.99 323.519 181.76 324.971 176.454C326.434 171.153 327.629 165.771 328.573 160.355C329.521 154.933 330.212 149.461 330.555 143.968C330.716 141.225 330.792 138.471 330.676 135.717C330.605 134.345 330.519 132.968 330.297 131.611C330.07 130.26 329.818 128.883 329.178 127.657C329.178 127.657 329.183 127.662 329.183 127.667C329.198 127.693 329.233 127.758 329.284 127.864C329.869 129.029 330.131 130.325 330.363 131.601C330.61 132.958 330.716 134.335 330.812 135.712C330.973 138.466 330.943 141.23 330.822 143.983C330.585 149.496 329.934 154.988 329.047 160.435C328.159 165.877 327.019 171.289 325.607 176.625C324.21 181.966 322.535 187.242 320.528 192.391C318.536 197.551 316.155 202.569 313.301 207.33L308.847 214.296C307.465 216.656 306.048 219.011 304.868 221.483C303.869 223.475 302.941 225.507 302.104 227.575C301.6 227.832 301.1 228.09 300.601 228.342Z" fill="#D84100"/>
<path d="M287.14 263.677C286.933 260.661 286.797 257.322 286.797 253.751C286.797 247.679 287.195 240.93 288.3 233.935C291.931 232.452 296.183 230.576 300.601 228.342C299.562 231.01 298.669 233.733 297.953 236.512C297.242 239.2 296.743 241.944 296.465 244.718C296.319 246.282 296.223 247.845 296.233 249.414C292.733 254.023 289.626 258.775 287.14 263.677ZM297.348 247.971C297.388 246.922 297.474 245.873 297.58 244.834C297.882 242.126 298.362 239.432 299.053 236.79C299.849 233.653 300.883 230.576 302.104 227.575C307.768 224.63 313.618 221.114 318.722 217.1C314.607 224.625 310.285 231.307 306.255 237.612C303.123 240.976 300.127 244.431 297.348 247.971Z" fill="#FB4B00"/>
<path d="M296.233 249.414C296.223 247.845 296.319 246.282 296.465 244.718C296.743 241.945 297.242 239.201 297.953 236.513C298.669 233.734 299.562 231.01 300.601 228.342C301.1 228.09 301.6 227.833 302.104 227.575C300.883 230.576 299.85 233.653 299.053 236.79C298.362 239.433 297.883 242.126 297.58 244.834C297.474 245.873 297.388 246.923 297.348 247.972C296.975 248.451 296.602 248.935 296.233 249.414Z" fill="#D84100"/>
<path d="M297 303.94C297 303.94 287.241 287.246 310.34 266.653C333.445 246.055 351.526 218.815 348.01 196.779C325.91 222.451 267.152 258.855 283.725 303.935L297 303.94Z" fill="#D84100"/>
<path d="M290.882 304.515C290.68 304.515 290.484 304.399 290.398 304.202V304.197C290.358 304.111 290.322 304.025 290.287 303.935H291.407C291.427 304.157 291.311 304.379 291.094 304.469C291.023 304.5 290.953 304.515 290.882 304.515Z" fill="#FCFCFC"/>
<path d="M291.406 303.935H290.287C288.224 298.987 287.614 293.58 287.81 288.31C288.007 282.918 289.102 277.612 290.67 272.493C293.873 262.25 299.118 252.702 305.781 244.335C309.119 240.154 312.852 236.275 316.957 232.851C321.083 229.456 325.203 226.082 328.966 222.29C332.754 218.542 336.314 214.563 339.562 210.331C342.775 206.085 345.761 201.621 348.01 196.779C345.801 201.641 342.846 206.13 339.668 210.412C336.45 214.674 332.915 218.689 329.147 222.476C325.42 226.304 321.3 229.729 317.214 233.153C313.154 236.593 309.477 240.477 306.194 244.663C299.643 253.03 294.513 262.562 291.427 272.72C289.919 277.804 288.885 283.049 288.738 288.34C288.582 293.605 289.258 298.967 291.366 303.773C291.386 303.829 291.401 303.884 291.406 303.935Z" fill="#FB4B00"/>
</svg>