<svg width="209" height="100" viewBox="0 0 209 100" fill="none" xmlns="http://www.w3.org/2000/svg">
<path d="M208.952 68.9125C208.952 69.8705 208.889 70.818 208.793 71.7549L208.719 72.4497C207.089 86.3143 195.888 97.3997 181.564 99.5894V100H32.5439C15.8061 100 2.04326 87.925 0.243497 72.3971C0.20115 72.1234 0.169391 71.8707 0.148216 71.6075C0.0741098 70.7127 0 69.8284 0 68.9125C0 51.7528 14.5675 37.8356 32.5439 37.8356C35.5823 37.8356 38.5255 38.2672 41.3204 38.9936C41.5639 22.0339 56.0149 8.34825 73.8325 8.34825C84.1123 8.34825 93.2699 12.9382 99.2409 20.0547C106.313 8.09559 119.748 0 135.151 0C157.373 0 175.487 16.7912 176.366 37.8356H176.408C194.385 37.8356 208.952 51.7528 208.952 68.9125Z" fill="#D84100"/>
<path d="M208.719 74.5342C207.089 87.3566 195.888 97.5998 181.564 99.621V100H32.5441C15.8063 100 2.04347 88.841 0.243713 74.4815C2.13876 60.2274 15.8805 49.1736 32.5441 49.1736C35.5825 49.1736 38.5257 49.5737 41.3206 50.2474C41.5641 34.5615 56.0151 21.9181 73.8327 21.9181C84.1125 21.9181 93.2701 26.1607 99.2411 32.7403C106.313 21.6865 119.748 14.212 135.152 14.212C157.373 14.212 175.487 29.7295 176.366 49.1736H176.408C193.093 49.1736 206.846 60.259 208.719 74.5342Z" fill="#FCFCFC"/>
<path d="M118.259 96V57.6681H128L104.005 37L80 57.6681H89.7415V96H118.259Z" fill="#D84100"/>
</svg>
