<svg width="217" height="119" viewBox="0 0 217 119" fill="none" xmlns="http://www.w3.org/2000/svg">
<mask id="mask0_67_1560" style="mask-type:alpha" maskUnits="userSpaceOnUse" x="0" y="0" width="117" height="104">
<rect width="116.198" height="103.021" fill="#D9D9D9"/>
</mask>
<g mask="url(#mask0_67_1560)">
<path d="M56.635 4.08557L56.6522 4.42205L56.6177 4.08557H56.635Z" fill="#F2561A"/>
<path d="M44.7114 53.9773V65.2346L59.3613 77.4042L64.0376 72.6189L71.6041 64.8731V52.5228L44.7114 53.9773Z" fill="#FCFCFC"/>
<path d="M81.5778 32.9344C81.5778 32.9344 81.1723 31.3853 80.7927 30.7053C80.4476 30.0857 79.973 29.5435 79.4122 29.1045C78.9291 28.7345 78.0922 28.5365 77.911 28.0115C77.7212 27.4521 78.2906 26.0578 78.3683 25.4468C78.4545 24.6722 78.4977 23.889 78.3941 23.1058C77.8765 19.2673 73.9077 16.651 70.1719 15.3514C66.4706 14.0604 63.3128 7.51949 59.508 8.7244C59.1542 8.61251 58.7574 8.52645 58.3432 8.44899C54.2019 7.69162 46.9977 8.53506 43.6243 9.71414C39.8885 11.0137 37.6366 19.2673 37.119 23.1058C36.955 24.2935 37.5417 25.6533 37.3088 26.7636C37.0672 27.9254 35.8162 28.2267 34.9534 28.8205C33.4004 29.8791 33.8059 32.9086 33.8059 32.9086L35.6005 41.9884C35.6005 41.9884 37.6539 44.0368 38.8618 45.1814C40.1904 46.4552 42.1835 53.3146 42.1835 53.3146L53.3478 62.9194L64.8054 62.4374L73.3469 54.8895L76.66 45.1814L79.9126 41.9884L81.5778 32.9344Z" fill="#FCFCFC"/>
<path d="M35.4797 29.0615C35.8593 30.6623 36.4288 32.2029 37.3778 33.6144C37.6453 32.1513 38.0939 26.6259 38.2406 25.3521C38.6202 21.944 46.5232 11.9088 48.8527 12.2187C50.2332 12.3994 62.3724 18.1227 62.3724 18.1227L76.7463 22.4432C76.7463 22.4432 77.2985 30.0341 77.5228 33.709L77.773 34.1996C77.9973 34.2598 78.1612 33.993 78.2389 33.7779C78.9636 31.85 79.9644 29.8533 80.4648 27.8738C80.8531 26.3677 80.4907 12.0293 80.4907 12.0293C80.4907 12.0293 67.1781 -0.0283535 59.7496 -0.0283535C53.5204 -0.0369595 44.582 1.95114 41.0619 6.97732C34.3926 8.38878 33.5298 18.1743 33.5298 18.1743C33.5298 18.1743 35.0311 27.1595 35.4797 29.0615Z" fill="#D84100"/>
<path d="M59.7755 114.395L71.6042 85.7697L59.2665 73.3075H57.6014C57.6014 73.3075 44.6166 85.6492 44.7115 86.5443L57.5323 114.395H59.7755Z" fill="#FB4B00"/>
<path d="M65 91.7798L60.4525 79.2298C60.3095 78.8285 60.3989 78.4151 60.7116 78.0557L62.4448 76.0789L62.3197 75.7374C61.6586 75.3361 60.9974 74.9347 60.3274 74.5333C59.8807 74.2578 59.3357 74.0002 59.0766 73.6468C58.88 73.3892 58.3708 72.8141 57.7722 73.0597C57.2451 73.2694 57.0753 73.6048 56.7269 73.8864C56.3963 74.1739 55.8602 74.4135 55.4582 74.6591C54.8596 75.0186 54.2699 75.378 53.6713 75.7374L53.5552 76.0789L55.2795 78.0557C55.6011 78.4151 55.6905 78.8285 55.5475 79.2298L51 91.7798L51.0179 91.9715L57.3165 101.808C57.4327 101.988 57.7454 102.035 57.9955 101.976C58.2457 102.035 58.5584 101.988 58.6745 101.808L64.9732 91.9715L65 91.7798Z" fill="#22242A"/>
<mask id="mask1_67_1560" style="mask-type:alpha" maskUnits="userSpaceOnUse" x="3" y="65" width="57" height="61">
<path d="M3.82458 65.8543H59.0422V125.781H3.82458V65.8543Z" fill="black"/>
</mask>
<g mask="url(#mask1_67_1560)">
<path d="M57.3684 125.781C56.8162 125.781 56.2554 125.764 55.7118 125.747C54.4694 125.721 53.2529 125.652 52.0278 125.557C39.552 124.662 27.896 120.832 17.7497 114.722C17.3701 114.498 16.9991 114.274 16.6108 114.016C12.1072 111.21 7.91407 107.949 4.08334 104.291C4.08334 104.291 12.3142 77.0169 12.5903 76.8448C18.3537 73.9874 25.5492 72.4899 35.1605 69.8391C38.1889 69.0215 40.665 68.3502 41.9937 67.9801C42.2525 67.9199 42.4596 67.8596 42.6235 67.8252C42.9255 67.7477 43.0722 67.6961 43.0722 67.6961L47.2998 80.3993L48.059 82.6628L48.7147 84.6595L52.3643 95.6069L57.3684 110.625L57.4805 114.033L57.4978 114.326L57.8774 125.781H57.3684Z" fill="#FB4B00"/>
</g>
<path d="M111.853 103.843C100.197 115.169 84.9858 122.864 68.0409 125.093C67.4456 125.153 66.833 125.239 66.2377 125.299C65.5647 125.377 64.8918 125.446 64.2188 125.514C62.1222 125.687 59.9998 125.781 57.8774 125.781H57.3683V110.625L57.9637 112.398V112.123L63.796 95.1077L67.2816 84.9005L67.4283 84.4873L68.1876 82.3099L73.2003 67.6961C73.2003 67.6961 73.347 67.7477 73.6489 67.8252C73.8301 67.8682 74.0372 67.9371 74.296 67.9973C75.6333 68.3674 78.1095 69.0387 81.1119 69.8391C90.7233 72.4899 99.9463 75.5624 103.682 76.8448C103.915 76.9223 111.853 103.843 111.853 103.843Z" fill="#FB4B00"/>
<path d="M71.8112 61.4219L58.4985 72.2919C58.2915 72.4554 57.9809 72.4554 57.7824 72.2919L44.4698 61.4219L41.4932 69.314L47.2479 86.5442L57.7048 73.23C57.9205 72.9632 58.3605 72.9632 58.5762 73.23L69.033 86.5442L74.7877 69.314L71.8112 61.4219Z" fill="#D84100"/>
<path d="M75.3916 78.8156L82.3628 81.475L64.2187 125.514C62.1221 125.687 59.9997 125.781 57.8773 125.781H57.3682C56.816 125.781 56.2552 125.764 55.7117 125.747C54.4693 125.721 53.2528 125.652 52.0276 125.557L33.9093 81.475L40.8892 78.8156L32.8654 75.244C33.245 74.1337 34.1337 71.8788 35.1604 69.8391C38.7495 68.8752 41.6226 66.4481 42.6838 66.1555L47.2996 80.3992L48.1193 82.5939L48.844 84.5217L51.0268 90.4L52.5453 94.8839L57.7392 110.367L65.2454 90.4L67.2815 84.9004L67.4282 84.4873L68.1702 82.2927L73.6057 66.1727V66.1555C74.6669 66.4481 77.5399 68.8752 81.1118 69.8391C82.1558 71.8788 83.0272 74.1337 83.4068 75.244L75.3916 78.8156Z" fill="#FB4B00"/>
</g>
<mask id="mask2_67_1560" style="mask-type:alpha" maskUnits="userSpaceOnUse" x="100" y="0" width="117" height="104">
<rect x="100" width="116.198" height="103.021" fill="#D9D9D9"/>
</mask>
<g mask="url(#mask2_67_1560)">
<path d="M156.635 4.08557L156.652 4.42205L156.618 4.08557H156.635Z" fill="#F2561A"/>
<path d="M144.711 53.9773V65.2346L159.361 77.4042L164.038 72.6189L171.604 64.8731V52.5228L144.711 53.9773Z" fill="#FCFCFC"/>
<path d="M181.578 32.9344C181.578 32.9344 181.172 31.3853 180.793 30.7053C180.448 30.0857 179.973 29.5435 179.412 29.1045C178.929 28.7345 178.092 28.5365 177.911 28.0115C177.721 27.4521 178.291 26.0578 178.368 25.4468C178.455 24.6722 178.498 23.889 178.394 23.1058C177.876 19.2673 173.908 16.651 170.172 15.3514C166.471 14.0604 163.313 7.51949 159.508 8.7244C159.154 8.61251 158.757 8.52645 158.343 8.44899C154.202 7.69162 146.998 8.53506 143.624 9.71414C139.888 11.0137 137.637 19.2673 137.119 23.1058C136.955 24.2935 137.542 25.6533 137.309 26.7636C137.067 27.9254 135.816 28.2267 134.953 28.8205C133.4 29.8791 133.806 32.9086 133.806 32.9086L135.6 41.9884C135.6 41.9884 137.654 44.0368 138.862 45.1814C140.19 46.4552 142.183 53.3146 142.183 53.3146L153.348 62.9194L164.805 62.4374L173.347 54.8895L176.66 45.1814L179.913 41.9884L181.578 32.9344Z" fill="#FCFCFC"/>
<path d="M135.48 29.0615C135.859 30.6623 136.429 32.2029 137.378 33.6144C137.645 32.1513 138.094 26.6259 138.241 25.3521C138.62 21.944 146.523 11.9088 148.853 12.2187C150.233 12.3994 162.372 18.1227 162.372 18.1227L176.746 22.4432C176.746 22.4432 177.298 30.0341 177.523 33.709L177.773 34.1996C177.997 34.2598 178.161 33.993 178.239 33.7779C178.964 31.85 179.964 29.8533 180.465 27.8738C180.853 26.3677 180.491 12.0293 180.491 12.0293C180.491 12.0293 167.178 -0.0283535 159.75 -0.0283535C153.52 -0.0369595 144.582 1.95114 141.062 6.97732C134.393 8.38878 133.53 18.1743 133.53 18.1743C133.53 18.1743 135.031 27.1595 135.48 29.0615Z" fill="#D84100"/>
<path d="M159.776 114.395L171.604 85.7697L159.266 73.3075H157.601C157.601 73.3075 144.617 85.6492 144.711 86.5443L157.532 114.395H159.776Z" fill="#FB4B00"/>
<path d="M165 91.7798L160.452 79.2298C160.31 78.8285 160.399 78.4151 160.712 78.0557L162.445 76.0789L162.32 75.7374C161.659 75.3361 160.997 74.9347 160.327 74.5333C159.881 74.2578 159.336 74.0002 159.077 73.6468C158.88 73.3892 158.371 72.8141 157.772 73.0597C157.245 73.2694 157.075 73.6048 156.727 73.8864C156.396 74.1739 155.86 74.4135 155.458 74.6591C154.86 75.0186 154.27 75.378 153.671 75.7374L153.555 76.0789L155.28 78.0557C155.601 78.4151 155.69 78.8285 155.548 79.2298L151 91.7798L151.018 91.9715L157.317 101.808C157.433 101.988 157.745 102.035 157.996 101.976C158.246 102.035 158.558 101.988 158.675 101.808L164.973 91.9715L165 91.7798Z" fill="#22242A"/>
<mask id="mask3_67_1560" style="mask-type:alpha" maskUnits="userSpaceOnUse" x="103" y="65" width="57" height="61">
<path d="M103.825 65.8543H159.042V125.781H103.825V65.8543Z" fill="black"/>
</mask>
<g mask="url(#mask3_67_1560)">
<path d="M157.368 125.781C156.816 125.781 156.255 125.764 155.712 125.747C154.469 125.721 153.253 125.652 152.028 125.557C139.552 124.662 127.896 120.832 117.75 114.722C117.37 114.498 116.999 114.274 116.611 114.016C112.107 111.21 107.914 107.949 104.083 104.291C104.083 104.291 112.314 77.0169 112.59 76.8448C118.354 73.9874 125.549 72.4899 135.161 69.8391C138.189 69.0215 140.665 68.3502 141.994 67.9801C142.253 67.9199 142.46 67.8596 142.624 67.8252C142.926 67.7477 143.072 67.6961 143.072 67.6961L147.3 80.3993L148.059 82.6628L148.715 84.6595L152.364 95.6069L157.368 110.625L157.481 114.033L157.498 114.326L157.877 125.781H157.368Z" fill="#FB4B00"/>
</g>
<path d="M211.853 103.843C200.197 115.169 184.986 122.864 168.041 125.093C167.446 125.153 166.833 125.239 166.238 125.299C165.565 125.377 164.892 125.446 164.219 125.514C162.122 125.687 160 125.781 157.877 125.781H157.368V110.625L157.964 112.398V112.123L163.796 95.1077L167.282 84.9005L167.428 84.4873L168.188 82.3099L173.2 67.6961C173.2 67.6961 173.347 67.7477 173.649 67.8252C173.83 67.8682 174.037 67.9371 174.296 67.9973C175.633 68.3674 178.109 69.0387 181.112 69.8391C190.723 72.4899 199.946 75.5624 203.682 76.8448C203.915 76.9223 211.853 103.843 211.853 103.843Z" fill="#FB4B00"/>
<path d="M171.811 61.4219L158.499 72.2919C158.291 72.4554 157.981 72.4554 157.782 72.2919L144.47 61.4219L141.493 69.314L147.248 86.5442L157.705 73.23C157.92 72.9632 158.36 72.9632 158.576 73.23L169.033 86.5442L174.788 69.314L171.811 61.4219Z" fill="#D84100"/>
<path d="M175.392 78.8156L182.363 81.475L164.219 125.514C162.122 125.687 160 125.781 157.877 125.781H157.368C156.816 125.781 156.255 125.764 155.712 125.747C154.469 125.721 153.253 125.652 152.028 125.557L133.909 81.475L140.889 78.8156L132.865 75.244C133.245 74.1337 134.134 71.8788 135.16 69.8391C138.749 68.8752 141.623 66.4481 142.684 66.1555L147.3 80.3992L148.119 82.5939L148.844 84.5217L151.027 90.4L152.545 94.8839L157.739 110.367L165.245 90.4L167.281 84.9004L167.428 84.4873L168.17 82.2927L173.606 66.1727V66.1555C174.667 66.4481 177.54 68.8752 181.112 69.8391C182.156 71.8788 183.027 74.1337 183.407 75.244L175.392 78.8156Z" fill="#FB4B00"/>
</g>
<mask id="mask4_67_1560" style="mask-type:alpha" maskUnits="userSpaceOnUse" x="50" y="15" width="117" height="104">
<rect x="50" y="15" width="116.198" height="103.021" fill="#D9D9D9"/>
</mask>
<g mask="url(#mask4_67_1560)">
<path d="M106.635 19.0856L106.652 19.4221L106.618 19.0856H106.635Z" fill="#F2561A"/>
<path d="M94.7114 68.9773V80.2346L109.361 92.4042L114.038 87.6189L121.604 79.8731V67.5228L94.7114 68.9773Z" fill="#FCFCFC"/>
<path d="M131.578 47.9344C131.578 47.9344 131.172 46.3853 130.793 45.7053C130.448 45.0857 129.973 44.5435 129.412 44.1045C128.929 43.7345 128.092 43.5365 127.911 43.0115C127.721 42.4521 128.291 41.0578 128.368 40.4468C128.455 39.6722 128.498 38.889 128.394 38.1058C127.876 34.2673 123.908 31.651 120.172 30.3514C116.471 29.0604 113.313 22.5195 109.508 23.7244C109.154 23.6125 108.757 23.5264 108.343 23.449C104.202 22.6916 96.9977 23.5351 93.6243 24.7141C89.8885 26.0137 87.6366 34.2673 87.119 38.1058C86.955 39.2935 87.5417 40.6533 87.3088 41.7636C87.0672 42.9254 85.8162 43.2267 84.9534 43.8205C83.4004 44.8791 83.8059 47.9086 83.8059 47.9086L85.6005 56.9884C85.6005 56.9884 87.6539 59.0368 88.8618 60.1814C90.1904 61.4552 92.1835 68.3146 92.1835 68.3146L103.348 77.9194L114.805 77.4374L123.347 69.8895L126.66 60.1814L129.913 56.9884L131.578 47.9344Z" fill="#FCFCFC"/>
<path d="M85.4797 44.0615C85.8593 45.6623 86.4288 47.2029 87.3778 48.6144C87.6453 47.1513 88.0939 41.6259 88.2406 40.3521C88.6202 36.944 96.5232 26.9088 98.8527 27.2187C100.233 27.3994 112.372 33.1227 112.372 33.1227L126.746 37.4432C126.746 37.4432 127.298 45.0341 127.523 48.709L127.773 49.1996C127.997 49.2598 128.161 48.993 128.239 48.7779C128.964 46.85 129.964 44.8533 130.465 42.8738C130.853 41.3677 130.491 27.0293 130.491 27.0293C130.491 27.0293 117.178 14.9716 109.75 14.9716C103.52 14.963 94.582 16.9511 91.0619 21.9773C84.3926 23.3888 83.5298 33.1743 83.5298 33.1743C83.5298 33.1743 85.0311 42.1595 85.4797 44.0615Z" fill="#D84100"/>
<path d="M109.776 129.395L121.604 100.77L109.266 88.3075H107.601C107.601 88.3075 94.6165 100.649 94.7115 101.544L107.532 129.395H109.776Z" fill="#FB4B00"/>
<path d="M115 106.78L110.452 94.2298C110.31 93.8285 110.399 93.4151 110.712 93.0557L112.445 91.0789L112.32 90.7374C111.659 90.3361 110.997 89.9347 110.327 89.5333C109.881 89.2578 109.336 89.0002 109.077 88.6468C108.88 88.3892 108.371 87.8141 107.772 88.0597C107.245 88.2694 107.075 88.6048 106.727 88.8864C106.396 89.1739 105.86 89.4135 105.458 89.6591C104.86 90.0186 104.27 90.378 103.671 90.7374L103.555 91.0789L105.28 93.0557C105.601 93.4151 105.69 93.8285 105.548 94.2298L101 106.78L101.018 106.972L107.317 116.808C107.433 116.988 107.745 117.035 107.996 116.976C108.246 117.035 108.558 116.988 108.675 116.808L114.973 106.972L115 106.78Z" fill="#22242A"/>
<mask id="mask5_67_1560" style="mask-type:alpha" maskUnits="userSpaceOnUse" x="53" y="80" width="57" height="61">
<path d="M53.8246 80.8543H109.042V140.781H53.8246V80.8543Z" fill="black"/>
</mask>
<g mask="url(#mask5_67_1560)">
<path d="M107.368 140.781C106.816 140.781 106.255 140.764 105.712 140.747C104.469 140.721 103.253 140.652 102.028 140.557C89.5521 139.662 77.896 135.832 67.7497 129.722C67.3701 129.498 66.9991 129.274 66.6109 129.016C62.1072 126.21 57.9141 122.949 54.0834 119.291C54.0834 119.291 62.3143 92.0169 62.5903 91.8448C68.3537 88.9874 75.5492 87.4899 85.1606 84.8391C88.1889 84.0215 90.6651 83.3502 91.9937 82.9801C92.2526 82.9199 92.4596 82.8596 92.6236 82.8252C92.9255 82.7477 93.0722 82.6961 93.0722 82.6961L97.2998 95.3993L98.059 97.6628L98.7148 99.6595L102.364 110.607L107.368 125.625L107.481 129.033L107.498 129.326L107.877 140.781H107.368Z" fill="#FB4B00"/>
</g>
<path d="M161.853 118.843C150.197 130.169 134.986 137.864 118.041 140.093C117.446 140.153 116.833 140.239 116.238 140.299C115.565 140.377 114.892 140.446 114.219 140.514C112.122 140.687 110 140.781 107.877 140.781H107.368V125.625L107.964 127.398V127.123L113.796 110.108L117.282 99.9005L117.428 99.4873L118.188 97.3099L123.2 82.6961C123.2 82.6961 123.347 82.7477 123.649 82.8252C123.83 82.8682 124.037 82.9371 124.296 82.9973C125.633 83.3674 128.109 84.0387 131.112 84.8391C140.723 87.4899 149.946 90.5624 153.682 91.8448C153.915 91.9223 161.853 118.843 161.853 118.843Z" fill="#FB4B00"/>
<path d="M121.811 76.4219L108.499 87.2919C108.291 87.4554 107.981 87.4554 107.782 87.2919L94.4698 76.4219L91.4932 84.314L97.2479 101.544L107.705 88.23C107.92 87.9632 108.36 87.9632 108.576 88.23L119.033 101.544L124.788 84.314L121.811 76.4219Z" fill="#D84100"/>
<path d="M125.392 93.8156L132.363 96.475L114.219 140.514C112.122 140.687 110 140.781 107.877 140.781H107.368C106.816 140.781 106.255 140.764 105.712 140.747C104.469 140.721 103.253 140.652 102.028 140.557L83.9093 96.475L90.8892 93.8156L82.8654 90.244C83.245 89.1337 84.1336 86.8788 85.1603 84.8391C88.7495 83.8752 91.6225 81.4481 92.6837 81.1555L97.2996 95.3992L98.1192 97.5939L98.844 99.5217L101.027 105.4L102.545 109.884L107.739 125.367L115.245 105.4L117.281 99.9004L117.428 99.4873L118.17 97.2927L123.606 81.1727V81.1555C124.667 81.4481 127.54 83.8752 131.112 84.8391C132.156 86.8788 133.027 89.1337 133.407 90.244L125.392 93.8156Z" fill="#FB4B00"/>
</g>
</svg>