<svg width="24" height="24" viewBox="0 0 24 24" fill="none" xmlns="http://www.w3.org/2000/svg">
<path d="M15.1886 5.50101H8.79513C6.58823 5.59838 5.59838 6.60446 5.50102 8.79513V15.1886C5.59838 17.2819 6.60446 18.3854 8.79513 18.4828H15.1886C17.3955 18.3854 18.3854 17.3793 18.4828 15.1886V8.79513C18.4016 6.60446 17.3955 5.6146 15.1886 5.50101ZM11.9919 16.1136C9.68763 16.1136 7.88641 14.3124 7.88641 12.0081C7.88641 9.70385 9.68763 7.90264 11.9919 7.90264C14.2961 7.90264 16.0974 9.70385 16.0974 12.0081C16.0974 14.3124 14.2961 16.1136 11.9919 16.1136ZM16.2921 8.714C15.789 8.714 15.286 8.30832 15.286 7.70791C15.286 7.10751 15.6917 6.70183 16.2921 6.70183C16.7951 6.70183 17.2982 7.10751 17.2982 7.70791C17.2982 8.30832 16.7951 8.714 16.2921 8.714ZM14.7018 12.0081C14.7018 13.501 13.501 14.7018 12.0081 14.7018C10.5152 14.7018 9.3144 13.501 9.3144 12.0081C9.3144 10.5152 10.5152 9.3144 12.0081 9.3144C13.501 9.3144 14.7018 10.5152 14.7018 12.0081ZM19.002 0H4.99797C2.19067 0 0 2.2069 0 4.99797V19.002C0 21.8093 2.2069 24 4.99797 24H19.002C21.8093 24 24 21.7931 24 19.002V4.99797C24 2.2069 21.7931 0 19.002 0ZM19.9919 15.3022C19.8945 18.2069 18.1907 19.7972 15.286 20.0081H8.68154C5.77687 19.9108 4.18661 18.3043 3.97566 15.3022V8.69777C4.17039 5.7931 5.77687 4.20284 8.68154 3.99189H15.286C18.1907 4.08925 19.7809 5.7931 19.9919 8.69777C19.9919 8.714 19.9919 15.3022 19.9919 15.3022Z" fill="#D84100"/>
</svg>
