<svg width="130" height="115" viewBox="0 0 130 115" fill="none" xmlns="http://www.w3.org/2000/svg">
<path d="M125.567 0H92.2014C89.9075 0 88.0516 1.8722 88.0516 4.16044L88.0307 41.6044L96.3722 33.2835H125.567C127.861 33.2835 129.738 31.4113 129.738 29.1231V4.16044C129.738 1.8722 127.861 0 125.567 0ZM121.397 24.9626H96.3722V20.8022H121.397V24.9626ZM121.397 18.722H96.3722V14.5615H121.397V18.722ZM121.397 12.4813H96.3722V8.32088H121.397V12.4813Z" fill="#FCFCFC"/>
<mask id="mask0_46_1330" style="mask-type:alpha" maskUnits="userSpaceOnUse" x="0" y="11" width="117" height="104">
<rect y="11.9792" width="116.198" height="103.021" fill="#D9D9D9"/>
</mask>
<g mask="url(#mask0_46_1330)">
<path d="M56.635 16.0648L56.6522 16.4013L56.6177 16.0648H56.635Z" fill="#F2561A"/>
<path d="M44.7114 65.9565V77.2138L59.3614 89.3833L64.0376 84.5981L71.6041 76.8523V64.502L44.7114 65.9565Z" fill="#FCFCFC"/>
<path d="M81.5778 44.9136C81.5778 44.9136 81.1723 43.3645 80.7927 42.6845C80.4476 42.0649 79.973 41.5227 79.4122 41.0837C78.9291 40.7137 78.0922 40.5157 77.911 39.9907C77.7212 39.4313 78.2906 38.037 78.3683 37.426C78.4545 36.6514 78.4977 35.8682 78.3941 35.085C77.8765 31.2465 73.9077 28.6302 70.1719 27.3306C66.4706 26.0396 63.3128 19.4987 59.508 20.7036C59.1542 20.5917 58.7574 20.5057 58.3432 20.4282C54.2019 19.6708 46.9977 20.5143 43.6243 21.6933C39.8885 22.9929 37.6366 31.2465 37.119 35.085C36.955 36.2727 37.5417 37.6325 37.3088 38.7428C37.0672 39.9047 35.8162 40.2059 34.9534 40.7997C33.4004 41.8583 33.8059 44.8878 33.8059 44.8878L35.6005 53.9676C35.6005 53.9676 37.6539 56.016 38.8618 57.1606C40.1904 58.4344 42.1835 65.2938 42.1835 65.2938L53.3478 74.8986L64.8054 74.4166L73.3469 66.8687L76.66 57.1606L79.9126 53.9676L81.5778 44.9136Z" fill="#FCFCFC"/>
<path d="M35.4797 41.0407C35.8593 42.6415 36.4288 44.1821 37.3778 45.5936C37.6453 44.1304 38.0939 38.6051 38.2406 37.3313C38.6202 33.9232 46.5232 23.888 48.8527 24.1978C50.2332 24.3786 62.3724 30.1019 62.3724 30.1019L76.7463 34.4223C76.7463 34.4223 77.2985 42.0133 77.5228 45.6882L77.773 46.1788C77.9973 46.239 78.1612 45.9722 78.2389 45.7571C78.9636 43.8292 79.9644 41.8325 80.4648 39.853C80.8531 38.3469 80.4907 24.0085 80.4907 24.0085C80.4907 24.0085 67.1781 11.9508 59.7496 11.9508C53.5204 11.9422 44.582 13.9303 41.0619 18.9565C34.3926 20.368 33.5298 30.1535 33.5298 30.1535C33.5298 30.1535 35.0311 39.1387 35.4797 41.0407Z" fill="#D84100"/>
<path d="M59.7755 126.374L71.6042 97.7488L59.2665 85.2867H57.6013C57.6013 85.2867 44.6165 97.6283 44.7115 98.5234L57.5323 126.374H59.7755Z" fill="#FB4B00"/>
<path d="M65 103.78L60.4525 91.2298C60.3095 90.8285 60.3989 90.4151 60.7116 90.0557L62.4448 88.0789L62.3197 87.7374C61.6586 87.3361 60.9974 86.9347 60.3274 86.5333C59.8807 86.2578 59.3357 86.0002 59.0766 85.6468C58.88 85.3892 58.3708 84.8141 57.7722 85.0597C57.2451 85.2694 57.0753 85.6048 56.7269 85.8864C56.3963 86.1739 55.8602 86.4135 55.4582 86.6591C54.8596 87.0186 54.2699 87.378 53.6713 87.7374L53.5552 88.0789L55.2795 90.0557C55.6011 90.4151 55.6905 90.8285 55.5475 91.2298L51 103.78L51.0179 103.972L57.3165 113.808C57.4327 113.988 57.7454 114.035 57.9955 113.976C58.2457 114.035 58.5584 113.988 58.6745 113.808L64.9732 103.972L65 103.78Z" fill="#22242A"/>
<mask id="mask1_46_1330" style="mask-type:alpha" maskUnits="userSpaceOnUse" x="3" y="77" width="57" height="61">
<path d="M3.82458 77.8335H59.0422V137.76H3.82458V77.8335Z" fill="black"/>
</mask>
<g mask="url(#mask1_46_1330)">
<path d="M57.3684 137.76C56.8162 137.76 56.2554 137.743 55.7119 137.726C54.4695 137.7 53.253 137.631 52.0278 137.537C39.5521 136.642 27.896 132.812 17.7497 126.701C17.3701 126.477 16.9991 126.254 16.6109 125.995C12.1072 123.19 7.9141 119.928 4.08337 116.27C4.08337 116.27 12.3143 88.9961 12.5903 88.824C18.3537 85.9666 25.5492 84.4691 35.1606 81.8183C38.1889 81.0007 40.6651 80.3294 41.9937 79.9593C42.2526 79.8991 42.4596 79.8388 42.6236 79.8044C42.9255 79.7269 43.0722 79.6753 43.0722 79.6753L47.2998 92.3785L48.059 94.642L48.7148 96.6387L52.3643 107.586L57.3684 122.604L57.4806 126.013L57.4978 126.305L57.8774 137.76H57.3684Z" fill="#FB4B00"/>
</g>
<path d="M111.853 115.822C100.197 127.149 84.9858 134.843 68.0409 137.072C67.4456 137.132 66.833 137.218 66.2377 137.278C65.5647 137.356 64.8918 137.425 64.2188 137.494C62.1222 137.666 59.9998 137.76 57.8774 137.76H57.3683V122.604L57.9637 124.377V124.102L63.796 107.087L67.2816 96.8796L67.4283 96.4665L68.1876 94.2891L73.2003 79.6753C73.2003 79.6753 73.347 79.7269 73.6489 79.8044C73.8301 79.8474 74.0372 79.9163 74.296 79.9765C75.6333 80.3466 78.1095 81.0179 81.1119 81.8183C90.7233 84.4691 99.9463 87.5416 103.682 88.824C103.915 88.9014 111.853 115.822 111.853 115.822Z" fill="#FB4B00"/>
<path d="M71.8112 73.401L58.4985 84.271C58.2915 84.4345 57.9809 84.4345 57.7824 84.271L44.4698 73.401L41.4932 81.2932L47.2479 98.5233L57.7048 85.2091C57.9205 84.9423 58.3605 84.9423 58.5762 85.2091L69.033 98.5233L74.7877 81.2932L71.8112 73.401Z" fill="#D84100"/>
<path d="M75.3916 90.7949L82.3628 93.4543L64.2186 137.494C62.1221 137.666 59.9997 137.76 57.8772 137.76H57.3682C56.816 137.76 56.2552 137.743 55.7117 137.726C54.4693 137.7 53.2527 137.631 52.0276 137.537L33.9093 93.4543L40.8892 90.7949L32.8654 87.2232C33.245 86.1129 34.1336 83.858 35.1603 81.8183C38.7495 80.8544 41.6225 78.4274 42.6837 78.1347L47.2996 92.3785L48.1192 94.5731L48.844 96.501L51.0268 102.379L52.5453 106.863L57.7392 122.346L65.2453 102.379L67.2815 96.8796L67.4282 96.4665L68.1701 94.2719L73.6056 78.1519V78.1347C74.6668 78.4274 77.5399 80.8544 81.1118 81.8183C82.1557 83.858 83.0271 86.1129 83.4068 87.2232L75.3916 90.7949Z" fill="#FB4B00"/>
</g>
</svg>
